<svg xmlns="http://www.w3.org/2000/svg" width="40" height="40" viewBox="0 0 64 64" fill="currentColor">
    <path
        d="M36.6465 43.4883C35.8721 43.4883 35.2754 43.1836 34.5518 42.498L29.4102 37.6738C29.334 37.6104 29.2578 37.585 29.1562 37.585H25.627C23.5322 37.585 22.3896 36.4043 22.3896 34.208V29.5107C22.3896 27.3145 23.5322 26.1211 25.627 26.1211H29.1689C29.2578 26.1211 29.3467 26.083 29.4102 26.0195L34.5518 21.2334C35.3262 20.4971 35.8975 20.2051 36.6211 20.2051C37.7764 20.2051 38.627 21.1064 38.627 22.2363V41.4951C38.627 42.625 37.7764 43.4883 36.6465 43.4883Z"
         class="speaker-bounce-1" />
</svg>