<svg width="36" height="36" viewBox="0 0 36 36" fill="none" xmlns="http://www.w3.org/2000/svg">
    <path
        d="M5.73926 18.0007C5.73926 17.5515 5.90039 17.1658 6.22266 16.8435C6.54492 16.5115 6.93066 16.3455 7.37988 16.3455H16.3594V7.38063C16.3594 6.93141 16.5205 6.54567 16.8428 6.2234C17.165 5.90114 17.5508 5.74001 18 5.74001C18.459 5.74001 18.8496 5.90114 19.1719 6.2234C19.4941 6.54567 19.6553 6.93141 19.6553 7.38063V16.3455H28.6201C29.0693 16.3455 29.4551 16.5115 29.7773 16.8435C30.0996 17.1658 30.2607 17.5515 30.2607 18.0007C30.2607 18.4597 30.0996 18.8504 29.7773 19.1726C29.4551 19.4851 29.0693 19.6414 28.6201 19.6414H19.6553V28.6355C19.6553 29.075 19.4941 29.4558 19.1719 29.7781C18.8496 30.1004 18.459 30.2615 18 30.2615C17.5508 30.2615 17.165 30.1004 16.8428 29.7781C16.5205 29.4558 16.3594 29.075 16.3594 28.6355V19.6414H7.37988C6.93066 19.6414 6.54492 19.4851 6.22266 19.1726C5.90039 18.8504 5.73926 18.4597 5.73926 18.0007Z"
        fill="currentColor" />
</svg>