<svg width="64" height="64" viewBox="0 0 64 64" fill="none" xmlns="http://www.w3.org/2000/svg">
    <path
        d="M11.8633 31.8984C11.8633 29.138 12.3841 26.5469 13.4258 24.125C14.4674 21.6901 15.9128 19.5482 17.7617 17.6992C19.6107 15.8372 21.7526 14.3854 24.1875 13.3438C26.6224 12.2891 29.2266 11.7617 32 11.7617C34.7734 11.7617 37.3776 12.2891 39.8125 13.3438C42.2474 14.3854 44.3893 15.8372 46.2383 17.6992C48.0872 19.5482 49.5326 21.6901 50.5742 24.125C51.6159 26.5469 52.1367 29.138 52.1367 31.8984C52.1367 34.6719 51.6029 37.2826 50.5352 39.7305C49.4674 42.1784 48.0156 44.3073 46.1797 46.1172C46.0365 46.2604 45.8802 46.332 45.7109 46.332C45.5547 46.332 45.4049 46.2539 45.2617 46.0977L44.3438 45.0625C44.0964 44.763 44.1094 44.4635 44.3828 44.1641C45.9453 42.6016 47.1823 40.7656 48.0938 38.6562C49.0182 36.5339 49.4805 34.2812 49.4805 31.8984C49.4805 29.5026 49.0247 27.2565 48.1133 25.1602C47.2018 23.0508 45.9388 21.1953 44.3242 19.5938C42.7227 17.9792 40.8672 16.7161 38.7578 15.8047C36.6484 14.8932 34.3958 14.4375 32 14.4375C29.6042 14.4375 27.3516 14.8932 25.2422 15.8047C23.1328 16.7161 21.2708 17.9792 19.6562 19.5938C18.0547 21.1953 16.7982 23.0508 15.8867 25.1602C14.9753 27.2565 14.5195 29.5026 14.5195 31.8984C14.5195 34.2812 14.9753 36.5273 15.8867 38.6367C16.7982 40.7461 18.0417 42.5885 19.6172 44.1641C19.8776 44.4635 19.8841 44.7565 19.6367 45.043L18.7188 46.0781C18.5885 46.2344 18.4323 46.3125 18.25 46.3125C18.0807 46.3125 17.9245 46.2409 17.7812 46.0977C15.9583 44.2878 14.513 42.1654 13.4453 39.7305C12.3906 37.2826 11.8633 34.6719 11.8633 31.8984ZM17.5469 31.8984C17.5469 29.9193 17.918 28.0573 18.6602 26.3125C19.4154 24.5677 20.457 23.0312 21.7852 21.7031C23.1133 20.375 24.6497 19.3333 26.3945 18.5781C28.1393 17.8229 30.0078 17.4453 32 17.4453C33.9792 17.4453 35.8411 17.8229 37.5859 18.5781C39.3438 19.3333 40.8867 20.375 42.2148 21.7031C43.543 23.0312 44.5781 24.5677 45.3203 26.3125C46.0755 28.0573 46.4531 29.9193 46.4531 31.8984C46.4531 33.8255 46.0885 35.6419 45.3594 37.3477C44.6432 39.0404 43.6667 40.5312 42.4297 41.8203C42.2865 41.9766 42.1237 42.0547 41.9414 42.0547C41.7721 42.0547 41.6224 41.9766 41.4922 41.8203L40.5547 40.7852C40.3073 40.5117 40.3073 40.2122 40.5547 39.8867C41.5573 38.8581 42.3451 37.6602 42.918 36.293C43.4909 34.9128 43.7773 33.4479 43.7773 31.8984C43.7773 30.2839 43.4714 28.7669 42.8594 27.3477C42.2474 25.9284 41.3945 24.6784 40.3008 23.5977C39.2201 22.5169 37.9701 21.6706 36.5508 21.0586C35.1315 20.4336 33.6146 20.1211 32 20.1211C30.3724 20.1211 28.849 20.4336 27.4297 21.0586C26.0104 21.6706 24.7604 22.5169 23.6797 23.5977C22.599 24.6784 21.7526 25.9284 21.1406 27.3477C20.5286 28.7669 20.2227 30.2839 20.2227 31.8984C20.2227 33.4349 20.5026 34.8932 21.0625 36.2734C21.6354 37.6536 22.4232 38.8581 23.4258 39.8867C23.6732 40.2122 23.6732 40.5117 23.4258 40.7852L22.5078 41.8008C22.3776 41.957 22.2214 42.0417 22.0391 42.0547C21.8568 42.0547 21.694 41.9701 21.5508 41.8008C20.3138 40.5117 19.3372 39.0208 18.6211 37.3281C17.9049 35.6224 17.5469 33.8125 17.5469 31.8984ZM23.2305 31.8984C23.2305 30.2969 23.6276 28.832 24.4219 27.5039C25.2161 26.1758 26.2708 25.1146 27.5859 24.3203C28.9141 23.526 30.3854 23.1289 32 23.1289C33.6146 23.1289 35.0794 23.526 36.3945 24.3203C37.7227 25.1146 38.7839 26.1758 39.5781 27.5039C40.3724 28.832 40.7695 30.2969 40.7695 31.8984C40.7695 32.9661 40.5807 33.9753 40.2031 34.9258C39.8255 35.8633 39.3047 36.7031 38.6406 37.4453C38.5104 37.6276 38.3542 37.7188 38.1719 37.7188C38.0026 37.7188 37.8398 37.6406 37.6836 37.4844L36.7266 36.4688C36.4792 36.2214 36.4596 35.9414 36.668 35.6289C37.1237 35.1341 37.4753 34.5677 37.7227 33.9297C37.9701 33.2917 38.0938 32.6146 38.0938 31.8984C38.0938 30.7917 37.8138 29.776 37.2539 28.8516C36.707 27.9271 35.9714 27.1914 35.0469 26.6445C34.1224 26.0846 33.1068 25.8047 32 25.8047C30.8932 25.8047 29.8776 26.0846 28.9531 26.6445C28.0286 27.1914 27.2865 27.9271 26.7266 28.8516C26.1797 29.776 25.9062 30.7917 25.9062 31.8984C25.9062 32.6016 26.0299 33.2721 26.2773 33.9102C26.5247 34.5482 26.8698 35.1146 27.3125 35.6094C27.5078 35.9219 27.4883 36.2018 27.2539 36.4492L26.2969 37.4648C26.1406 37.6211 25.9714 37.6992 25.7891 37.6992C25.6198 37.6992 25.4701 37.6146 25.3398 37.4453C24.6758 36.7031 24.1549 35.8568 23.7773 34.9062C23.4128 33.9557 23.2305 32.9531 23.2305 31.8984ZM19.8906 51.3711C19.4089 51.3711 19.0898 51.1758 18.9336 50.7852C18.7773 50.3945 18.8555 50.0299 19.168 49.6914L31.1016 36.1758C31.3359 35.9023 31.6289 35.7656 31.9805 35.7656C32.332 35.7656 32.625 35.9023 32.8594 36.1758L44.8125 49.6914C45.112 50.0299 45.1836 50.3945 45.0273 50.7852C44.8711 51.1758 44.5586 51.3711 44.0898 51.3711H19.8906Z"
        fill="currentColor" />
</svg>