<svg width="36" height="36" viewBox="0 0 36 36" fill="none" xmlns="http://www.w3.org/2000/svg">
    <path
        d="M17.9854 32.2598C17.8193 32.2598 17.6484 32.2549 17.4727 32.2451C17.3066 32.2354 17.1406 32.2256 16.9746 32.2158L16.1836 33.71C16.0762 33.9151 15.9297 34.0615 15.7441 34.1494C15.5586 34.2471 15.3535 34.2764 15.1289 34.2373C14.8945 34.1885 14.7041 34.0908 14.5576 33.9444C14.4209 33.8076 14.3379 33.6172 14.3086 33.3731L14.0742 31.7178C13.3906 31.5225 12.7607 31.293 12.1846 31.0293L10.9248 32.1426C10.7588 32.2988 10.5684 32.3916 10.3535 32.4209C10.1484 32.4502 9.94336 32.4014 9.73828 32.2744C9.54297 32.167 9.40625 32.0156 9.32812 31.8203C9.25 31.625 9.23047 31.4151 9.26953 31.1904L9.62109 29.5645C9.35742 29.3692 9.09375 29.1592 8.83008 28.9346C8.56641 28.7197 8.3125 28.4903 8.06836 28.2461L6.51562 28.876C6.05664 29.0615 5.6709 28.9688 5.3584 28.5977C5.21191 28.4219 5.12891 28.2315 5.10938 28.0264C5.09961 27.8213 5.1582 27.6162 5.28516 27.4111L6.17871 26.0049C5.9834 25.7217 5.80273 25.4336 5.63672 25.1406C5.4707 24.8477 5.31445 24.5498 5.16797 24.2471L3.49805 24.291C3.26367 24.3008 3.05859 24.252 2.88281 24.1445C2.70703 24.0371 2.58008 23.8711 2.50195 23.6465C2.43359 23.4317 2.42383 23.2266 2.47266 23.0313C2.53125 22.8262 2.65332 22.6504 2.83887 22.5039L4.15723 21.4785C4.0791 21.1465 4.01074 20.8194 3.95215 20.4971C3.89355 20.1651 3.84473 19.8233 3.80566 19.4717L2.20898 18.959C1.98438 18.8906 1.80859 18.7735 1.68164 18.6074C1.56445 18.4317 1.50586 18.2315 1.50586 18.0069C1.50586 17.7725 1.56445 17.5723 1.68164 17.4063C1.80859 17.2403 1.98438 17.1231 2.20898 17.0547L3.80566 16.542C3.84473 16.1904 3.89355 15.8535 3.95215 15.5313C4.01074 15.1992 4.0791 14.8672 4.15723 14.5352L2.83887 13.5098C2.43848 13.1973 2.32617 12.8164 2.50195 12.3672C2.58008 12.1524 2.70703 11.9863 2.88281 11.8692C3.05859 11.752 3.26367 11.6983 3.49805 11.708L5.16797 11.7666C5.31445 11.4639 5.4707 11.166 5.63672 10.8731C5.80273 10.5801 5.9834 10.2969 6.17871 10.0235L5.28516 8.60256C5.02148 8.17287 5.0459 7.77736 5.3584 7.41603C5.51465 7.24025 5.69043 7.12795 5.88574 7.07912C6.09082 7.02053 6.30078 7.03517 6.51562 7.12306L8.06836 7.75295C8.3125 7.52834 8.56152 7.30861 8.81543 7.09377C9.0791 6.86916 9.34766 6.6592 9.62109 6.46388L9.28418 4.82326C9.22559 4.58888 9.23535 4.37892 9.31348 4.19338C9.40137 3.99806 9.54297 3.8467 9.73828 3.73928C9.94336 3.62209 10.1484 3.57326 10.3535 3.59279C10.5684 3.61232 10.7637 3.7051 10.9395 3.87111L12.1699 4.98439C12.4727 4.84767 12.7803 4.72072 13.0928 4.60353C13.415 4.48635 13.7422 4.37892 14.0742 4.28127L14.3232 2.62599C14.3525 2.39162 14.4355 2.20119 14.5723 2.0547C14.709 1.90822 14.8994 1.81056 15.1436 1.76174C15.3584 1.73244 15.5586 1.76174 15.7441 1.84963C15.9297 1.93752 16.0811 2.08888 16.1982 2.30373L16.9746 3.78322C17.1406 3.77345 17.3066 3.76857 17.4727 3.76857C17.6484 3.75881 17.8193 3.75392 17.9854 3.75392C18.1611 3.75392 18.332 3.75881 18.498 3.76857C18.6641 3.76857 18.8301 3.77345 18.9961 3.78322L19.8018 2.30373C19.9092 2.08888 20.0508 1.93752 20.2266 1.84963C20.4121 1.75197 20.6221 1.72267 20.8564 1.76174C21.0811 1.82033 21.2617 1.92287 21.3984 2.06935C21.5449 2.20607 21.6328 2.39162 21.6621 2.62599L21.8965 4.28127C22.2285 4.37892 22.5508 4.48635 22.8633 4.60353C23.1855 4.71095 23.498 4.83791 23.8008 4.98439L25.0459 3.87111C25.2217 3.71486 25.4121 3.62209 25.6172 3.59279C25.8223 3.56349 26.0322 3.61232 26.2471 3.73928C26.4424 3.8467 26.5791 3.99806 26.6572 4.19338C26.7354 4.37892 26.7549 4.58888 26.7158 4.82326L26.3496 6.44924C26.623 6.64455 26.8867 6.85451 27.1406 7.07912C27.4043 7.29396 27.6582 7.51857 27.9023 7.75295L29.4697 7.13771C29.9287 6.9424 30.3145 7.03029 30.627 7.40138C30.7734 7.58693 30.8516 7.78224 30.8613 7.98732C30.8711 8.1924 30.8125 8.39748 30.6855 8.60256L29.8066 10.0088C29.9922 10.2822 30.168 10.5654 30.334 10.8584C30.5098 11.1514 30.6709 11.4492 30.8174 11.752L32.4727 11.7227C32.7168 11.7129 32.9219 11.7617 33.0879 11.8692C33.2637 11.9766 33.3955 12.1426 33.4834 12.3672C33.5518 12.582 33.5566 12.792 33.498 12.9971C33.4492 13.1924 33.3271 13.3633 33.1318 13.5098L31.8135 14.5352C31.9014 14.8574 31.9697 15.1846 32.0186 15.5166C32.0771 15.8486 32.126 16.1904 32.165 16.542L33.7617 17.0547C33.9863 17.1231 34.1621 17.2403 34.2891 17.4063C34.416 17.5723 34.4795 17.7725 34.4795 18.0069C34.4795 18.2315 34.416 18.4317 34.2891 18.6074C34.1621 18.7735 33.9863 18.8906 33.7617 18.959L32.165 19.4717C32.126 19.8233 32.0771 20.1651 32.0186 20.4971C31.9697 20.8194 31.9014 21.1465 31.8135 21.4785L33.1465 22.5039C33.332 22.6504 33.4541 22.8262 33.5127 23.0313C33.5713 23.2266 33.5615 23.4268 33.4834 23.6319C33.3955 23.8565 33.2637 24.0274 33.0879 24.1445C32.9219 24.2617 32.7217 24.3154 32.4873 24.3057L30.8174 24.2471C30.6709 24.5401 30.5098 24.833 30.334 25.126C30.168 25.419 29.9922 25.707 29.8066 25.9903L30.7002 27.4111C30.8271 27.6065 30.8809 27.8115 30.8613 28.0264C30.8516 28.2315 30.7686 28.4219 30.6123 28.5977C30.4658 28.7735 30.29 28.8858 30.085 28.9346C29.8896 28.9932 29.6797 28.9785 29.4551 28.8906L27.9023 28.2461C27.668 28.4805 27.4189 28.7051 27.1553 28.9199C26.8916 29.1445 26.623 29.3545 26.3496 29.5498L26.7012 31.1904C26.75 31.4248 26.7354 31.6348 26.6572 31.8203C26.5791 32.0059 26.4375 32.1572 26.2324 32.2744C26.0273 32.3916 25.8174 32.4404 25.6025 32.4209C25.3975 32.4014 25.2119 32.3086 25.0459 32.1426L23.8008 31.0293C23.498 31.166 23.1904 31.2881 22.8779 31.3955C22.5654 31.5127 22.2383 31.6201 21.8965 31.7178L21.6621 33.3877C21.6328 33.6221 21.5449 33.8125 21.3984 33.959C21.2617 34.1055 21.0762 34.1983 20.8418 34.2373C20.6172 34.2666 20.4121 34.2373 20.2266 34.1494C20.0508 34.0615 19.9043 33.9151 19.7871 33.71L18.9961 32.2158C18.8301 32.2256 18.6641 32.2354 18.498 32.2451C18.332 32.2549 18.1611 32.2598 17.9854 32.2598ZM17.9854 29.418C19.5674 29.418 21.0469 29.125 22.4238 28.5391C23.8008 27.9434 25.0117 27.1231 26.0566 26.0781C27.1113 25.0332 27.9316 23.8223 28.5176 22.4453C29.1035 21.0684 29.3965 19.5889 29.3965 18.0069C29.3965 16.4248 29.1035 14.9453 28.5176 13.5684C27.9316 12.1914 27.1113 10.9805 26.0566 9.93556C25.0117 8.88088 23.8008 8.06056 22.4238 7.47463C21.0469 6.88869 19.5674 6.59572 17.9854 6.59572C16.4131 6.59572 14.9336 6.88869 13.5469 7.47463C12.1699 8.06056 10.959 8.88088 9.91406 9.93556C8.86914 10.9805 8.04883 12.1914 7.45312 13.5684C6.86719 14.9453 6.57422 16.4248 6.57422 18.0069C6.57422 19.5889 6.86719 21.0684 7.45312 22.4453C8.04883 23.8223 8.86914 25.0332 9.91406 26.0781C10.959 27.1231 12.1699 27.9434 13.5469 28.5391C14.9336 29.125 16.4131 29.418 17.9854 29.418ZM15.1875 15.6631L10.3242 7.34279L12.4629 6.21486L17.209 14.3887L15.1875 15.6631ZM21.457 19.1787V16.791H30.9492V19.1787H21.457ZM17.2236 21.669L12.2871 29.7842L10.1777 28.5977L15.2168 20.3506L17.2236 21.669ZM18 22.0938C17.2383 22.0938 16.5498 21.9082 15.9346 21.5371C15.3193 21.166 14.8262 20.6729 14.4551 20.0576C14.0938 19.4424 13.9131 18.7588 13.9131 18.0069C13.9131 17.2451 14.0938 16.5567 14.4551 15.9414C14.8262 15.3262 15.3193 14.8379 15.9346 14.4766C16.5498 14.1055 17.2383 13.9199 18 13.9199C18.752 13.9199 19.4355 14.1055 20.0508 14.4766C20.666 14.8379 21.1592 15.3262 21.5303 15.9414C21.9014 16.5567 22.0869 17.2451 22.0869 18.0069C22.0869 18.7588 21.9014 19.4424 21.5303 20.0576C21.1592 20.6729 20.666 21.166 20.0508 21.5371C19.4355 21.9082 18.752 22.0938 18 22.0938ZM18 19.6621C18.4492 19.6621 18.835 19.501 19.1572 19.1787C19.4893 18.8565 19.6553 18.4658 19.6553 18.0069C19.6553 17.5479 19.4893 17.1572 19.1572 16.835C18.835 16.5127 18.4492 16.3516 18 16.3516C17.541 16.3516 17.1504 16.5127 16.8281 16.835C16.5059 17.1572 16.3447 17.5479 16.3447 18.0069C16.3447 18.4658 16.5059 18.8565 16.8281 19.1787C17.1504 19.501 17.541 19.6621 18 19.6621Z"
        fill="currentColor" />
</svg>