<svg width="36" height="36" viewBox="0 0 36 36" fill="none" xmlns="http://www.w3.org/2000/svg">
    <path
        d="M13.752 31.9736V22.7305C13.752 22.3887 13.8545 22.1152 14.0596 21.9102C14.2744 21.6953 14.5576 21.5879 14.9092 21.5879H21.0908C21.4424 21.5879 21.7158 21.6953 21.9111 21.9102C22.1162 22.1152 22.2188 22.3887 22.2188 22.7305V31.9736H13.752ZM1.6084 18.9072C1.13965 18.9072 0.768555 18.7705 0.495117 18.4971C0.231445 18.2139 0.0996094 17.8818 0.0996094 17.501C0.0996094 17.042 0.290039 16.6562 0.670898 16.3438L15.9346 3.52637C16.5693 2.98926 17.2529 2.7207 17.9854 2.7207C18.7275 2.7207 19.4111 2.98926 20.0361 3.52637L35.2998 16.3438C35.6904 16.6562 35.8857 17.042 35.8857 17.501C35.8857 17.8818 35.749 18.2139 35.4756 18.4971C35.2119 18.7705 34.8457 18.9072 34.377 18.9072C34.1523 18.9072 33.9375 18.8584 33.7324 18.7607C33.5371 18.6533 33.3516 18.5264 33.1758 18.3799L18.6152 6.16309C18.4199 5.99707 18.21 5.91406 17.9854 5.91406C17.7705 5.91406 17.5654 5.99707 17.3701 6.16309L2.82422 18.3799C2.63867 18.5264 2.44336 18.6533 2.23828 18.7607C2.04297 18.8584 1.83301 18.9072 1.6084 18.9072ZM27.2871 10.4111V7.0127C27.2871 6.68066 27.3848 6.41699 27.5801 6.22168C27.7852 6.02637 28.0488 5.92871 28.3711 5.92871H30.3486C30.6807 5.92871 30.9443 6.02637 31.1396 6.22168C31.335 6.41699 31.4326 6.68066 31.4326 7.0127V13.8975L27.2871 10.4111ZM8.08301 34.1123C6.96973 34.1123 6.10059 33.8096 5.47559 33.2041C4.86035 32.6084 4.55273 31.7637 4.55273 30.6699V14.3662L7.42383 12.418V29.8057C7.42383 30.2646 7.5459 30.6162 7.79004 30.8604C8.04395 31.1045 8.39551 31.2266 8.84473 31.2266H27.1406C27.5996 31.2266 27.9463 31.1045 28.1807 30.8604C28.4248 30.6162 28.5469 30.2646 28.5469 29.8057V12.4033L31.4326 14.3662V30.6699C31.4326 31.7539 31.1201 32.5986 30.4951 33.2041C29.8799 33.8096 29.0156 34.1123 27.9023 34.1123H8.08301Z"
        fill="currentColor" />
</svg>