<svg width="36" height="36" viewBox="0 0 36 36" fill="none" xmlns="http://www.w3.org/2000/svg">
    <path
        d="M17.9917 33.1337C15.9019 33.1337 13.9438 32.7382 12.1177 31.9471C10.2915 31.1659 8.68506 30.0819 7.29834 28.6952C5.91162 27.3182 4.82275 25.7167 4.03174 23.8905C3.25049 22.0546 2.85986 20.0917 2.85986 18.0018C2.85986 15.912 3.25049 13.954 4.03174 12.1278C4.82275 10.2919 5.91162 8.68054 7.29834 7.29382C8.68506 5.9071 10.2915 4.82312 12.1177 4.04187C13.9438 3.26062 15.9019 2.87 17.9917 2.87C20.0815 2.87 22.0396 3.26062 23.8657 4.04187C25.7017 4.82312 27.313 5.9071 28.6997 7.29382C30.0864 8.68054 31.1704 10.2919 31.9517 12.1278C32.7427 13.954 33.1382 15.912 33.1382 18.0018C33.1382 20.0917 32.7427 22.0546 31.9517 23.8905C31.1704 25.7167 30.0864 27.3182 28.6997 28.6952C27.313 30.0819 25.7017 31.1659 23.8657 31.9471C22.0396 32.7382 20.0815 33.1337 17.9917 33.1337ZM17.9917 30.1454C19.6714 30.1454 21.2437 29.828 22.7085 29.1932C24.1733 28.5682 25.4624 27.6991 26.5757 26.5858C27.6987 25.4725 28.5728 24.1835 29.1978 22.7186C29.8228 21.2538 30.1353 19.6815 30.1353 18.0018C30.1353 16.3221 29.8228 14.7499 29.1978 13.285C28.5728 11.8104 27.6987 10.5214 26.5757 9.41785C25.4624 8.30457 24.1733 7.43542 22.7085 6.81042C21.2437 6.17566 19.6714 5.85828 17.9917 5.85828C16.3218 5.85828 14.7495 6.17566 13.2749 6.81042C11.8101 7.43542 10.521 8.30457 9.40771 9.41785C8.29443 10.5214 7.42041 11.8104 6.78564 13.285C6.16064 14.7499 5.84814 16.3221 5.84814 18.0018C5.84814 19.6815 6.16064 21.2538 6.78564 22.7186C7.42041 24.1835 8.29443 25.4725 9.40771 26.5858C10.521 27.6991 11.8101 28.5682 13.2749 29.1932C14.7495 29.828 16.3218 30.1454 17.9917 30.1454ZM15.4282 26.0438C15.0962 26.0438 14.8179 25.9413 14.5933 25.7362C14.3784 25.5214 14.271 25.2528 14.271 24.9305C14.271 24.6083 14.3784 24.3446 14.5933 24.1395C14.8179 23.9247 15.0962 23.8173 15.4282 23.8173H17.1714V17.6942H15.6919C15.3599 17.6942 15.0815 17.5917 14.8569 17.3866C14.6323 17.1718 14.52 16.9032 14.52 16.5809C14.52 16.2684 14.6323 16.0048 14.8569 15.7899C15.0815 15.5751 15.3599 15.4677 15.6919 15.4677H18.4458C18.856 15.4677 19.1636 15.5995 19.3687 15.8632C19.5835 16.1171 19.6909 16.4637 19.6909 16.9032V23.8173H21.3169C21.6489 23.8173 21.9224 23.9247 22.1372 24.1395C22.3618 24.3446 22.4741 24.6083 22.4741 24.9305C22.4741 25.2528 22.3618 25.5214 22.1372 25.7362C21.9224 25.9413 21.6489 26.0438 21.3169 26.0438H15.4282ZM17.9038 13.1971C17.3569 13.1971 16.8882 13.0067 16.4976 12.6259C16.1167 12.2352 15.9263 11.7665 15.9263 11.2196C15.9263 10.663 16.1167 10.1942 16.4976 9.81335C16.8882 9.42273 17.3569 9.22742 17.9038 9.22742C18.4507 9.22742 18.9146 9.42273 19.2954 9.81335C19.686 10.1942 19.8813 10.663 19.8813 11.2196C19.8813 11.7665 19.686 12.2352 19.2954 12.6259C18.9146 13.0067 18.4507 13.1971 17.9038 13.1971Z"
        fill="currentColor" />
</svg>