<svg width="36" height="36" viewBox="0 0 36 36" fill="none" xmlns="http://www.w3.org/2000/svg">
    <path
        d="M11.8037 10.397C11.4131 10.397 11.0811 10.2652 10.8076 10.0015C10.5439 9.72809 10.4121 9.39606 10.4121 9.00543C10.4121 8.61481 10.5439 8.28766 10.8076 8.02399C11.0811 7.75055 11.4131 7.61383 11.8037 7.61383H31.6963C32.0869 7.61383 32.4189 7.75055 32.6924 8.02399C32.9658 8.28766 33.1025 8.61481 33.1025 9.00543C33.1025 9.40582 32.9658 9.73785 32.6924 10.0015C32.4189 10.2652 32.0869 10.397 31.6963 10.397H11.8037ZM11.8037 19.3912C11.4131 19.3912 11.0811 19.2593 10.8076 18.9957C10.5439 18.7222 10.4121 18.3902 10.4121 17.9996C10.4121 17.6089 10.5439 17.2818 10.8076 17.0181C11.0811 16.7447 11.4131 16.608 11.8037 16.608H31.6963C32.0869 16.608 32.4189 16.7447 32.6924 17.0181C32.9658 17.2818 33.1025 17.6089 33.1025 17.9996C33.1025 18.3902 32.9658 18.7222 32.6924 18.9957C32.4189 19.2593 32.0869 19.3912 31.6963 19.3912H11.8037ZM11.8037 28.3853C11.4131 28.3853 11.0811 28.2535 10.8076 27.9898C10.5439 27.7261 10.4121 27.399 10.4121 27.0084C10.4121 26.608 10.5439 26.2759 10.8076 26.0123C11.0811 25.7388 11.4131 25.6021 11.8037 25.6021H31.6963C32.0869 25.6021 32.4189 25.7388 32.6924 26.0123C32.9658 26.2857 33.1025 26.6177 33.1025 27.0084C33.1025 27.399 32.9658 27.7261 32.6924 27.9898C32.4189 28.2535 32.0869 28.3853 31.6963 28.3853H11.8037ZM4.94824 11.0709C4.38184 11.0709 3.89355 10.8707 3.4834 10.4703C3.08301 10.0699 2.88281 9.5816 2.88281 9.00543C2.88281 8.42926 3.08301 7.94098 3.4834 7.54059C3.89355 7.1402 4.38184 6.94 4.94824 6.94C5.51465 6.94 5.99805 7.1402 6.39844 7.54059C6.80859 7.94098 7.01367 8.42926 7.01367 9.00543C7.01367 9.5816 6.80859 10.0699 6.39844 10.4703C5.99805 10.8707 5.51465 11.0709 4.94824 11.0709ZM4.94824 20.065C4.38184 20.065 3.89355 19.8648 3.4834 19.4644C3.08301 19.0543 2.88281 18.566 2.88281 17.9996C2.88281 17.4332 3.08301 16.9498 3.4834 16.5494C3.89355 16.1392 4.38184 15.9341 4.94824 15.9341C5.51465 15.9341 5.99805 16.1392 6.39844 16.5494C6.80859 16.9498 7.01367 17.4332 7.01367 17.9996C7.01367 18.566 6.80859 19.0543 6.39844 19.4644C5.99805 19.8648 5.51465 20.065 4.94824 20.065ZM4.94824 29.0591C4.38184 29.0591 3.89355 28.8589 3.4834 28.4586C3.08301 28.0582 2.88281 27.5748 2.88281 27.0084C2.88281 26.4322 3.08301 25.9439 3.4834 25.5435C3.89355 25.1431 4.38184 24.9429 4.94824 24.9429C5.51465 24.9429 5.99805 25.1431 6.39844 25.5435C6.80859 25.9439 7.01367 26.4322 7.01367 27.0084C7.01367 27.5748 6.80859 28.0582 6.39844 28.4586C5.99805 28.8589 5.51465 29.0591 4.94824 29.0591Z"
        fill="currentColor" />
</svg>