<svg width="36" height="36" viewBox="0 0 36 36" fill="none" xmlns="http://www.w3.org/2000/svg">
    <path
        d="M8.22949 28.3413V7.6577C8.22949 6.84715 8.43457 6.24657 8.84473 5.85594C9.25488 5.46532 9.74316 5.27 10.3096 5.27C10.8174 5.27 11.3252 5.41161 11.833 5.69481L29.1328 15.8022C29.7578 16.1636 30.207 16.5054 30.4805 16.8276C30.7637 17.1499 30.9053 17.5405 30.9053 17.9995C30.9053 18.4487 30.7637 18.8393 30.4805 19.1714C30.207 19.4936 29.7578 19.8354 29.1328 20.1968L11.833 30.3042C11.3252 30.5874 10.8174 30.729 10.3096 30.729C9.74316 30.729 9.25488 30.5288 8.84473 30.1284C8.43457 29.7378 8.22949 29.1421 8.22949 28.3413ZM11.1152 26.8472C11.1152 26.9839 11.1641 27.0815 11.2617 27.1401C11.3691 27.1987 11.4863 27.1889 11.6133 27.1108L26.8037 18.2632C26.9209 18.1948 26.9795 18.1069 26.9795 17.9995C26.9795 17.8725 26.9209 17.7847 26.8037 17.7358L11.6133 8.88817C11.4863 8.81004 11.3691 8.80028 11.2617 8.85887C11.1641 8.91747 11.1152 9.01512 11.1152 9.15184V26.8472Z"
        fill="currentColor" />
</svg>