<svg width="36" height="36" viewBox="0 0 36 36" fill="none" xmlns="http://www.w3.org/2000/svg">
    <path
        d="M17.9917 33.1337C15.9019 33.1337 13.9438 32.7382 12.1177 31.9471C10.2915 31.1659 8.68506 30.0819 7.29834 28.6952C5.91162 27.3182 4.82275 25.7167 4.03174 23.8905C3.25049 22.0546 2.85986 20.0917 2.85986 18.0018C2.85986 15.912 3.25049 13.954 4.03174 12.1278C4.82275 10.2919 5.91162 8.68054 7.29834 7.29382C8.68506 5.9071 10.2915 4.82312 12.1177 4.04187C13.9438 3.26062 15.9019 2.87 17.9917 2.87C20.0815 2.87 22.0396 3.26062 23.8657 4.04187C25.7017 4.82312 27.313 5.9071 28.6997 7.29382C30.0864 8.68054 31.1704 10.2919 31.9517 12.1278C32.7427 13.954 33.1382 15.912 33.1382 18.0018C33.1382 20.0917 32.7427 22.0546 31.9517 23.8905C31.1704 25.7167 30.0864 27.3182 28.6997 28.6952C27.313 30.0819 25.7017 31.1659 23.8657 31.9471C22.0396 32.7382 20.0815 33.1337 17.9917 33.1337ZM17.9917 30.1454C19.6714 30.1454 21.2437 29.828 22.7085 29.1932C24.1733 28.5682 25.4624 27.6991 26.5757 26.5858C27.6987 25.4725 28.5728 24.1835 29.1978 22.7186C29.8228 21.2538 30.1353 19.6815 30.1353 18.0018C30.1353 16.3221 29.8228 14.7499 29.1978 13.285C28.5728 11.8104 27.6987 10.5214 26.5757 9.41785C25.4624 8.30457 24.1733 7.43542 22.7085 6.81042C21.2437 6.17566 19.6714 5.85828 17.9917 5.85828C16.3218 5.85828 14.7495 6.17566 13.2749 6.81042C11.8101 7.43542 10.521 8.30457 9.40771 9.41785C8.29443 10.5214 7.42041 11.8104 6.78564 13.285C6.16064 14.7499 5.84814 16.3221 5.84814 18.0018C5.84814 19.6815 6.16064 21.2538 6.78564 22.7186C7.42041 24.1835 8.29443 25.4725 9.40771 26.5858C10.521 27.6991 11.8101 28.5682 13.2749 29.1932C14.7495 29.828 16.3218 30.1454 17.9917 30.1454ZM12.4399 19.3934C12.0005 19.3934 11.6392 19.2762 11.356 19.0419C11.0728 18.7977 10.9312 18.4608 10.9312 18.0311C10.9312 17.6112 11.0679 17.2743 11.3413 17.0204C11.6245 16.7665 11.9907 16.6395 12.4399 16.6395H23.5435C24.0024 16.6395 24.3687 16.7665 24.6421 17.0204C24.9155 17.2743 25.0522 17.6112 25.0522 18.0311C25.0522 18.4608 24.9106 18.7977 24.6274 19.0419C24.3442 19.2762 23.9829 19.3934 23.5435 19.3934H12.4399Z"
        fill="currentColor" />
</svg>