<svg width="36" height="36" viewBox="0 0 36 36" fill="none" xmlns="http://www.w3.org/2000/svg">
    <path
        d="M13.6934 28.6338C13.3906 28.6338 13.1465 28.5508 12.9609 28.3848C12.7754 28.209 12.6777 27.9746 12.668 27.6816L12.2285 12.3301C12.2188 12.0469 12.3066 11.8174 12.4922 11.6416C12.6777 11.4561 12.9219 11.3633 13.2246 11.3633C13.5273 11.3633 13.7715 11.4512 13.957 11.627C14.1426 11.8027 14.2354 12.0322 14.2354 12.3154L14.6895 27.667C14.6895 27.96 14.5967 28.1943 14.4111 28.3701C14.2354 28.5459 13.9961 28.6338 13.6934 28.6338ZM18 28.6338C17.6973 28.6338 17.4482 28.5459 17.2529 28.3701C17.0674 28.1943 16.9746 27.9648 16.9746 27.6816V12.3301C16.9746 12.0469 17.0674 11.8174 17.2529 11.6416C17.4482 11.4561 17.6973 11.3633 18 11.3633C18.3125 11.3633 18.5615 11.4561 18.7471 11.6416C18.9424 11.8174 19.04 12.0469 19.04 12.3301V27.6816C19.04 27.9648 18.9424 28.1943 18.7471 28.3701C18.5615 28.5459 18.3125 28.6338 18 28.6338ZM22.3213 28.6338C22.0088 28.6338 21.7598 28.5459 21.5742 28.3701C21.3984 28.1943 21.3154 27.96 21.3252 27.667L21.7646 12.3301C21.7744 12.0371 21.8721 11.8027 22.0576 11.627C22.2432 11.4512 22.4824 11.3633 22.7754 11.3633C23.0879 11.3633 23.332 11.4561 23.5078 11.6416C23.6934 11.8174 23.7812 12.0469 23.7715 12.3301L23.332 27.6816C23.3223 27.9746 23.2246 28.209 23.0391 28.3848C22.8535 28.5508 22.6143 28.6338 22.3213 28.6338ZM11.3496 7.27637V4.1123C11.3496 2.98926 11.6865 2.11523 12.3604 1.49023C13.0439 0.855469 13.9912 0.538086 15.2021 0.538086H20.7686C21.9795 0.538086 22.9268 0.855469 23.6104 1.49023C24.2939 2.11523 24.6357 2.98926 24.6357 4.1123V7.27637H21.9258V4.24414C21.9258 3.87305 21.8037 3.5752 21.5596 3.35059C21.3154 3.11621 20.9883 2.99902 20.5781 2.99902H15.3926C14.9922 2.99902 14.6699 3.11621 14.4258 3.35059C14.1816 3.5752 14.0596 3.87305 14.0596 4.24414V7.27637H11.3496ZM4.86035 8.8877C4.49902 8.8877 4.19141 8.76074 3.9375 8.50684C3.68359 8.25293 3.55664 7.94531 3.55664 7.58398C3.55664 7.23242 3.68359 6.93457 3.9375 6.69043C4.19141 6.43652 4.49902 6.30957 4.86035 6.30957H31.1543C31.5156 6.30957 31.8184 6.43164 32.0625 6.67578C32.3164 6.91992 32.4434 7.22266 32.4434 7.58398C32.4434 7.94531 32.3164 8.25293 32.0625 8.50684C31.8184 8.76074 31.5156 8.8877 31.1543 8.8877H4.86035ZM11.2764 33.5996C10.1436 33.5996 9.23535 33.2822 8.55176 32.6475C7.87793 32.0127 7.5166 31.1289 7.46777 29.9961L6.44238 8.60938H9.12305L10.1338 29.542C10.1533 29.9717 10.2949 30.3232 10.5586 30.5967C10.8223 30.8701 11.1592 31.0068 11.5693 31.0068H24.4307C24.8408 31.0068 25.1777 30.8701 25.4414 30.5967C25.7051 30.333 25.8467 29.9814 25.8662 29.542L26.833 8.60938H29.5576L28.5469 29.9814C28.498 31.1143 28.1318 31.998 27.4482 32.6328C26.7646 33.2773 25.8613 33.5996 24.7383 33.5996H11.2764Z"
        fill="currentColor" />
</svg>