<svg id="vector" xmlns="http://www.w3.org/2000/svg" width="32" height="32" viewBox="0 0 134 134"
    fill="currentColor">
    <path
        d="M72 60.0717C68.062 62.3453 66.0931 63.4821 65.4323 64.9662C64.8559 66.2608 64.8559 67.7391 65.4323 69.0336C66.0931 70.5177 68.062 71.6545 72 73.9281L93 86.0525C96.938 88.326 98.9069 89.4628 100.523 89.293C101.932 89.1449 103.212 88.4057 104.045 87.2593C105 85.945 105 83.6714 105 79.1243V54.8755C105 50.3284 105 48.0548 104.045 46.7405C103.212 45.5941 101.932 44.8549 100.523 44.7068C98.9069 44.537 96.938 45.6738 93 47.9473L72 60.0717Z"
         class="rewind-right-arrow" />
    <path
        d="M72 60.0717C68.062 62.3453 66.0931 63.4821 65.4323 64.9662C64.8559 66.2608 64.8559 67.7391 65.4323 69.0336C66.0931 70.5177 68.062 71.6545 72 73.9281L93 86.0525C96.938 88.326 98.9069 89.4628 100.523 89.293C101.932 89.1449 103.212 88.4057 104.045 87.2593C105 85.945 105 83.6714 105 79.1243V54.8755C105 50.3284 105 48.0548 104.045 46.7405C103.212 45.5941 101.932 44.8549 100.523 44.7068C98.9069 44.537 96.938 45.6738 93 47.9473L72 60.0717Z"
         class="rewind-right-standby" />
    <path
        d="M32 60.0717C28.062 62.3453 26.0931 63.4821 25.4323 64.9662C24.8559 66.2608 24.8559 67.7391 25.4323 69.0336C26.0931 70.5177 28.062 71.6545 32 73.9281L53 86.0525C56.938 88.326 58.9069 89.4628 60.5226 89.293C61.9319 89.1449 63.2122 88.4057 64.0451 87.2593C65 85.945 65 83.6714 65 79.1243V54.8755C65 50.3284 65 48.0548 64.0451 46.7405C63.2122 45.5941 61.9319 44.8549 60.5226 44.7068C58.9069 44.537 56.938 45.6738 53 47.9473L32 60.0717Z"
         class="rewind-left-arrow" />
</svg>