<svg width="36" height="36" viewBox="0 0 36 36" fill="none" xmlns="http://www.w3.org/2000/svg">
    <path
        d="M19.5 0C25.573 0 28.6095 0 30.8862 1.27504C32.4953 2.17617 33.8238 3.50471 34.725 5.11379C36 7.39054 36 10.427 36 16.5V19.5C36 25.573 36 28.6095 34.725 30.8862C33.8238 32.4953 32.4953 33.8238 30.8862 34.725C28.6095 36 25.573 36 19.5 36H16.5C10.427 36 7.39054 36 5.11379 34.725C3.50471 33.8238 2.17617 32.4953 1.27504 30.8862C0 28.6095 0 25.573 0 19.5L0 16.5C0 10.427 0 7.39054 1.27504 5.11379C2.17617 3.50471 3.50471 2.17617 5.11379 1.27504C7.39054 0 10.427 0 16.5 0L19.5 0Z"
        fill="white" />
</svg>