<svg width="192" height="36" viewBox="0 0 192 36" fill="none" xmlns="http://www.w3.org/2000/svg">
    <path fill-rule="evenodd" clip-rule="evenodd"
        d="M139.11 15.884H135.582V23.8C135.582 24.6027 135.732 25.1814 136.03 25.536C136.329 25.872 136.805 26.04 137.458 26.04C137.701 26.04 137.962 26.012 138.242 25.956C138.522 25.9 138.774 25.816 138.998 25.704L139.082 27.86C138.765 27.972 138.41 28.056 138.018 28.112C137.645 28.1867 137.253 28.224 136.842 28.224C135.592 28.224 134.63 27.8787 133.958 27.188C133.305 26.4974 132.978 25.4614 132.978 24.08V15.884H130.43V13.728H132.978V7.92004H135.582V13.728H139.11V15.884ZM117.188 20.692H124.608L120.912 11.396L117.188 20.692ZM114.22 28H111.14L119.736 8.17604H122.256L130.768 28H127.632L125.616 23.128H116.208L114.22 28ZM145.441 15.12C144.713 15.6054 144.181 16.2027 143.845 16.912H143.761C143.761 16.632 143.752 16.2867 143.733 15.876C143.715 15.4467 143.687 15.064 143.649 14.728H141.157C141.195 15.1574 141.223 15.652 141.241 16.212C141.26 16.772 141.269 17.2294 141.269 17.584V28H143.901V20.944C143.901 19.6187 144.219 18.564 144.853 17.78C145.507 16.9774 146.319 16.576 147.289 16.576C147.812 16.576 148.251 16.6694 148.605 16.856C148.96 17.024 149.249 17.2667 149.473 17.584C149.697 17.8827 149.856 18.2467 149.949 18.676C150.043 19.1054 150.089 19.5814 150.089 20.104V28H152.721V20.832C152.721 20.3094 152.777 19.796 152.889 19.292C153.02 18.788 153.216 18.34 153.477 17.948C153.757 17.5374 154.112 17.2107 154.541 16.968C154.971 16.7067 155.484 16.576 156.081 16.576C156.66 16.576 157.136 16.688 157.509 16.912C157.883 17.136 158.181 17.4347 158.405 17.808C158.629 18.1814 158.788 18.6107 158.881 19.096C158.975 19.5814 159.021 20.0947 159.021 20.636V28H161.653V19.768C161.653 19.0214 161.551 18.3214 161.345 17.668C161.159 17.0147 160.86 16.4454 160.449 15.96C160.039 15.4747 159.525 15.092 158.909 14.812C158.293 14.5134 157.556 14.364 156.697 14.364C155.745 14.364 154.868 14.5974 154.065 15.064C153.263 15.512 152.637 16.1654 152.189 17.024C151.779 16.072 151.209 15.3907 150.481 14.98C149.772 14.5694 148.969 14.364 148.073 14.364C147.065 14.364 146.188 14.616 145.441 15.12ZM176.233 21.336C176.233 20.7014 176.131 20.0947 175.925 19.516C175.739 18.9374 175.459 18.4334 175.085 18.004C174.712 17.556 174.245 17.2014 173.685 16.94C173.144 16.6787 172.519 16.548 171.809 16.548C171.1 16.548 170.465 16.6787 169.905 16.94C169.364 17.2014 168.907 17.556 168.533 18.004C168.16 18.4334 167.871 18.9374 167.665 19.516C167.479 20.0947 167.385 20.7014 167.385 21.336C167.385 21.9707 167.479 22.5774 167.665 23.156C167.871 23.7347 168.16 24.248 168.533 24.696C168.907 25.144 169.364 25.4987 169.905 25.76C170.465 26.0214 171.1 26.152 171.809 26.152C172.519 26.152 173.144 26.0214 173.685 25.76C174.245 25.4987 174.712 25.144 175.085 24.696C175.459 24.248 175.739 23.7347 175.925 23.156C176.131 22.5774 176.233 21.9707 176.233 21.336ZM178.977 21.336C178.977 22.3627 178.791 23.3054 178.417 24.164C178.063 25.0227 177.559 25.7694 176.905 26.404C176.271 27.02 175.515 27.5054 174.637 27.86C173.76 28.196 172.817 28.364 171.809 28.364C170.801 28.364 169.859 28.196 168.981 27.86C168.104 27.5054 167.348 27.02 166.713 26.404C166.079 25.7694 165.575 25.0227 165.201 24.164C164.847 23.3054 164.669 22.3627 164.669 21.336C164.669 20.3094 164.847 19.376 165.201 18.536C165.575 17.6774 166.079 16.94 166.713 16.324C167.348 15.708 168.104 15.232 168.981 14.896C169.859 14.5414 170.801 14.364 171.809 14.364C172.817 14.364 173.76 14.5414 174.637 14.896C175.515 15.232 176.271 15.708 176.905 16.324C177.559 16.94 178.063 17.6774 178.417 18.536C178.791 19.376 178.977 20.3094 178.977 21.336ZM187.975 16.912C188.517 17.2107 188.937 17.6027 189.235 18.088L191.055 16.548C190.57 15.8387 189.879 15.2974 188.983 14.924C188.106 14.5507 187.191 14.364 186.239 14.364C185.605 14.364 184.989 14.448 184.391 14.616C183.794 14.7654 183.262 15.008 182.795 15.344C182.329 15.6614 181.946 16.0814 181.647 16.604C181.367 17.108 181.227 17.7147 181.227 18.424C181.227 19.04 181.339 19.5627 181.563 19.992C181.806 20.4027 182.114 20.748 182.487 21.028C182.861 21.308 183.271 21.532 183.719 21.7C184.186 21.8494 184.643 21.98 185.091 22.092C186.23 22.3534 187.089 22.6334 187.667 22.932C188.265 23.2307 188.563 23.688 188.563 24.304C188.563 24.6774 188.489 24.9854 188.339 25.228C188.19 25.4707 187.985 25.6667 187.723 25.816C187.481 25.9654 187.201 26.0774 186.883 26.152C186.585 26.208 186.267 26.236 185.931 26.236C185.185 26.236 184.494 26.0587 183.859 25.704C183.243 25.3494 182.758 24.9107 182.403 24.388L180.527 25.984C181.162 26.7867 181.955 27.384 182.907 27.776C183.878 28.168 184.867 28.364 185.875 28.364C186.547 28.364 187.201 28.2894 187.835 28.14C188.47 27.9907 189.03 27.748 189.515 27.412C190.019 27.0574 190.421 26.6094 190.719 26.068C191.018 25.5267 191.167 24.864 191.167 24.08C191.167 23.5014 191.055 22.9974 190.831 22.568C190.607 22.1387 190.29 21.7747 189.879 21.476C189.487 21.1587 189.021 20.8974 188.479 20.692C187.938 20.4867 187.35 20.3094 186.715 20.16C185.707 19.936 184.951 19.6934 184.447 19.432C183.943 19.152 183.691 18.732 183.691 18.172C183.691 17.8547 183.757 17.5934 183.887 17.388C184.037 17.164 184.223 16.9867 184.447 16.856C184.69 16.7067 184.961 16.604 185.259 16.548C185.558 16.4734 185.857 16.436 186.155 16.436C186.827 16.436 187.434 16.5947 187.975 16.912ZM2.95973 27.9533H0V7.93701H2.95973C8.48624 7.93701 12.9927 12.4323 12.9927 17.9451C12.9927 23.4579 8.48624 27.9533 2.95973 27.9533ZM25.5841 7.93701H28.5439V27.9533H25.5841C20.0576 27.9533 15.5511 23.4579 15.5511 17.9451C15.5511 12.4323 20.0576 7.93701 25.5841 7.93701ZM34.6222 7.93701H41.8682C47.4003 7.93701 51.9012 12.4268 51.9012 17.9451C51.9012 23.4635 47.4003 27.9533 41.8682 27.9533H34.6222V7.93701ZM37.6627 24.9175H41.8682C45.717 24.9175 48.8579 21.7871 48.8579 17.9424C48.8579 14.1031 45.7198 10.97 41.8682 10.97H37.6627V24.9175ZM53.4424 21.0365C53.4424 17.2112 56.561 14.1003 60.3958 14.1003C64.2307 14.1003 67.3492 17.2112 67.3492 21.0365C67.3492 24.8619 64.2307 27.9727 60.3958 27.9727C56.561 27.9727 53.4424 24.8619 53.4424 21.0365ZM56.2043 21.0115C56.2043 23.305 58.0687 25.1927 60.3958 25.1927C62.6978 25.1927 64.5874 23.3301 64.5874 21.0115C64.5874 18.718 62.695 16.8303 60.3958 16.8303C58.0966 16.8303 56.2043 18.6902 56.2043 21.0115ZM73.3574 27.9755H70.3168V7.93979H73.3574V27.9755ZM79.9647 15.3514C81.0906 14.5646 82.4618 14.1003 83.9389 14.1003C87.7709 14.1003 90.8895 17.2112 90.8923 21.0365C90.8923 24.8619 87.7737 27.9727 83.9389 27.9727C82.4618 27.9727 81.0934 27.5084 79.9647 26.7217V27.9755H76.9158V7.93979H79.9647V15.3514ZM79.9647 22.3292C80.5165 23.9861 82.08 25.1927 83.9389 25.1927C86.2381 25.1927 88.1304 23.3328 88.1304 21.0115C88.1304 18.718 86.2381 16.8303 83.9389 16.8303C82.0995 16.8303 80.5221 18.023 79.9647 19.691C79.8254 20.1052 79.7473 20.55 79.7473 21.0115C79.7473 21.473 79.8254 21.915 79.9647 22.3292ZM99.0715 22.9937L103.035 14.1059H106.357C105.983 14.9363 103.631 20.1804 101.593 24.7238C99.933 28.4242 98.4816 31.6599 98.4778 31.6674C97.5944 33.6468 95.2589 34.5419 93.283 33.6607L92.2295 33.1908L92.224 33.1881L93.453 30.4386L93.8905 30.6332C94.7043 30.9974 95.6658 30.6276 96.0309 29.8131C96.0337 29.8048 97.4104 26.7161 97.4104 26.7161L91.7864 14.1059H95.1084L99.0715 22.9937Z"
        fill="currentColor" />
</svg>