<svg width="30" height="20" viewBox="0 0 30 20" fill="none" xmlns="http://www.w3.org/2000/svg">
    <g clip-path="url(#clip0_207_8)">
        <path
            d="M16.0117 1.81812C18.4258 1.81812 19.8776 4.78099 20.958 7.92092L21.0631 8.23024L21.1659 8.54011L21.2666 8.84995C21.5987 9.88202 21.8972 10.9037 22.1828 11.8167C22.839 8.96008 22.4949 8.34671 23.1979 8.34671C23.4594 8.34671 23.724 8.53256 23.724 8.87123C23.724 9.0083 23.5105 10.461 23.2136 11.9166L23.1588 12.1809L23.1023 12.4436C23.0068 12.8791 22.9051 13.3002 22.8009 13.6704C25.8224 21.9469 28.0659 11.0453 28.3194 8.81691C28.3564 8.49556 28.5879 8.34672 28.8219 8.34672C29.1344 8.34672 29.3907 8.59283 29.3418 8.96318C28.8009 12.5671 27.9689 18.1818 24.5482 18.1818C22.6604 18.1818 21.5992 16.6374 20.7611 14.8678C20.179 13.6722 19.6841 12.2511 19.2288 10.8221L19.1203 10.4791C19.0844 10.3648 19.0487 10.2505 19.0132 10.1364L18.9073 9.79479C17.8713 6.44275 16.9926 3.33702 15.6457 3.33702C14.9875 3.33702 14.4995 4.05555 14.4657 4.05555C14.4036 4.05555 14.3548 3.76279 13.7401 2.96069C14.3251 2.26231 15.1314 1.81812 16.0117 1.81812ZM4.80934 1.82692C10.1957 1.82692 10.6747 16.6849 13.7232 16.6849C14.0811 16.6849 14.4669 16.4581 14.8886 15.9443C15.122 16.3577 15.3613 16.7247 15.6089 17.0478C15.0004 17.774 14.2433 18.1812 13.2952 18.1812C9.88906 18.1807 8.42559 12.2177 7.16605 8.19178C6.86941 9.48319 6.71544 10.6519 6.65516 11.1766C6.61775 11.5101 6.38397 11.662 6.14846 11.662C5.88728 11.662 5.62398 11.4752 5.62398 11.1416C5.62398 11.1167 5.62545 11.091 5.62848 11.0646C5.80292 9.74118 6.15443 7.73614 6.54802 6.3382C6.02411 4.90309 5.36971 3.33458 4.40561 3.33458C2.45924 3.33458 1.34461 8.44844 1.03117 11.1766C0.993764 11.5101 0.759979 11.662 0.524468 11.662C0.263303 11.662 0 11.4752 0 11.1416C0 11.1167 0.00146422 11.091 0.00449843 11.0646C0.0496669 10.7219 0.0980906 10.373 0.15073 10.0213L0.196904 9.71916C0.204779 9.66871 0.212746 9.61823 0.220807 9.56772L0.27033 9.26437C0.887195 5.57133 2.03712 1.82692 4.80934 1.82692ZM10.3981 1.81878C11.3654 1.81878 12.4031 2.34503 13.2976 3.57969C13.3476 3.63964 13.849 4.45427 14.0072 4.73669C14.554 5.77231 15.0302 7.038 15.4694 8.354L15.5832 8.69833C16.8447 12.5534 17.8174 16.7028 19.3326 16.7028C19.6918 16.7028 20.0814 16.4697 20.5126 15.9442C20.746 16.3575 20.9852 16.7245 21.2329 17.0476C20.6259 17.7724 19.8691 18.1812 18.9192 18.1812C13.565 18.1804 12.983 3.3313 10.0333 3.3313C9.36758 3.3313 8.87559 4.05559 8.84162 4.05559C8.7795 4.05559 8.7307 3.76287 8.11611 2.96083C8.7168 2.24348 9.52906 1.81878 10.3981 1.81878Z"
            fill="currentColor" />
    </g>
    <defs>
        <clipPath id="clip0_207_8">
            <rect width="30" height="20" fill="currentColor" />
        </clipPath>
    </defs>
</svg>