<svg id="vector" xmlns="http://www.w3.org/2000/svg" width="83" height="15" viewBox="0 0 83 15">
    <path 
        d="M44.0933,5.726L42.3467,9.646L40.5999,5.726L39.1354,5.726L41.6143,11.2879C41.6143,11.2879 41.008,12.6505 41.0066,12.6536C40.8458,13.0133 40.4218,13.176 40.0625,13.016L39.8703,12.9304L39.3289,14.1428L39.329,14.1428L39.3312,14.1438L39.7957,14.3507C40.6671,14.7388 41.6955,14.3441 42.0854,13.4717C42.0887,13.4645 45.2599,6.3906 45.5579,5.726L44.0933,5.726ZM36.1165,10.6164C35.2968,10.6164 34.6078,10.0836 34.3642,9.3529C34.3032,9.1699 34.2687,8.9748 34.2687,8.772C34.2687,8.568 34.3032,8.3727 34.3642,8.1898C34.6094,7.4545 35.3046,6.9276 36.1165,6.9276C37.1305,6.9276 37.9642,7.7599 37.9642,8.772C37.9642,9.7955 37.1305,10.6164 36.1165,10.6164L36.1165,10.6164ZM36.1165,5.7242C35.4652,5.7242 34.8611,5.9287 34.3642,6.2757L34.3641,3.0063L33.0207,3.0063L33.0207,11.844L34.3642,11.844L34.3642,11.2907C34.8611,11.6378 35.4652,11.8422 36.1165,11.8422C37.8065,11.8422 39.1811,10.4701 39.1811,8.7832C39.1811,7.0962 37.8065,5.7242 36.1165,5.7242L36.1165,5.7242ZM30.5532,11.844L31.894,11.844L31.894,3.0063L30.5532,3.0063L30.5532,11.844ZM26.6212,10.616C25.5959,10.616 24.7734,9.7838 24.7734,8.7716C24.7734,7.7482 25.6072,6.9271 26.6212,6.9271C27.6351,6.9271 28.4689,7.7594 28.4689,8.7716C28.4689,9.7951 27.6351,10.616 26.6212,10.616L26.6212,10.616ZM26.6212,5.7239C24.9311,5.7239 23.5565,7.0959 23.5565,8.7829C23.5565,10.4699 24.9311,11.8419 26.6212,11.8419C28.3111,11.8419 29.6857,10.4699 29.6857,8.7829C29.6857,7.0959 28.3111,5.7239 26.6212,5.7239L26.6212,5.7239ZM18.4538,10.4949L16.6003,10.4949L16.6003,4.3432L18.4538,4.3432C20.1514,4.3432 21.5352,5.7245 21.5352,7.419C21.5352,9.1136 20.1514,10.4949 18.4538,10.4949L18.4538,10.4949ZM18.4538,3.0047L15.2594,3.0047L15.2594,11.8334L18.4538,11.8334C20.8923,11.8334 22.8762,9.8531 22.8762,7.419C22.8762,4.985 20.8923,3.0047 18.4538,3.0047L18.4538,3.0047ZM12.5811,3.0048L11.2764,3.0048C8.84,3.0048 6.854,4.9872 6.854,7.4191C6.854,9.851 8.84,11.8334 11.2764,11.8334L12.5811,11.8334L12.5811,3.0048ZM0,11.8334L1.3049,11.8334C3.7412,11.8334 5.7273,9.851 5.7273,7.4191C5.7273,4.9872 3.7412,3.0048 1.3049,3.0048L0,3.0048L0,11.8334ZM81.4329,6.7164C81.0578,6.0797 80.32,5.7303 79.4696,5.7303C78.4567,5.7303 77.4813,6.2296 77.4813,7.353C77.4813,9.5123 80.8702,8.5512 80.8702,10.1366C80.8702,10.9479 80.1573,11.2723 79.4322,11.2723C78.7193,11.2723 78.094,10.8979 77.7563,10.3736L77.2186,10.7606C77.719,11.4971 78.5566,11.8467 79.4322,11.8467C80.495,11.8467 81.5455,11.3225 81.5455,10.0867C81.5455,9.138 80.8327,8.6886 79.5947,8.4139C78.6317,8.2017 78.1316,7.977 78.1316,7.303C78.1316,6.579 78.8318,6.292 79.4446,6.292C80.0948,6.292 80.6202,6.604 80.9078,7.0908L81.4329,6.7164ZM73.4636,6.3107C72.0131,6.3107 71.1002,7.3967 71.1002,8.7823C71.1002,10.1677 72.0131,11.2413 73.4636,11.2413C74.9267,11.2413 75.8397,10.1677 75.8397,8.7823C75.8397,7.3967 74.9267,6.3107 73.4636,6.3107L73.4636,6.3107ZM73.4636,11.8529C71.663,11.8529 70.3999,10.5422 70.3999,8.7823C70.3999,7.0097 71.663,5.724 73.4636,5.724C75.277,5.724 76.5399,7.0097 76.5399,8.7823C76.5399,10.5422 75.277,11.8529 73.4636,11.8529L73.4636,11.8529ZM60.5652,11.844L61.253,11.844L61.253,8.7322C61.253,7.1095 62.1659,6.2856 63.0913,6.2856C64.2918,6.2856 64.5795,7.1969 64.5795,8.2703L64.5795,11.844L65.2672,11.844L65.2672,8.6572C65.2672,7.3715 65.8674,6.2856 67.0805,6.2856C68.2559,6.2856 68.6687,7.2468 68.6687,8.3952L68.6687,11.844L69.3439,11.844L69.3441,8.1455C69.3441,6.7724 68.6812,5.724 67.1805,5.724C66.2178,5.724 65.4673,6.2233 65.0922,7.1095L65.0671,7.1095C64.7421,6.1359 64.0793,5.724 63.2038,5.724C62.3787,5.724 61.5782,6.2357 61.2406,7.0346L61.2157,7.0346C61.2157,6.7225 61.1906,6.0486 61.1656,5.724L60.5154,5.724C60.5527,6.111 60.5652,6.8848 60.5652,7.2093L60.5652,11.844ZM59.3074,5.724L57.6442,5.724L57.6442,3L56.9563,3L56.9563,5.724L55.7433,5.724L55.7433,6.2982L56.969,6.2982L56.969,10.3459C56.969,11.4817 57.6817,11.8438 58.3944,11.8438C58.7447,11.8438 59.0448,11.7814 59.3198,11.6815L59.2824,11.0949C59.0697,11.1948 58.8072,11.2571 58.5696,11.2571C58.0193,11.2571 57.6442,11.02 57.6442,10.1837L57.6442,6.2982L59.3074,6.2982L59.3074,5.724ZM49.6887,8.8106L53.9029,8.8106L51.8145,3.7552L49.6887,8.8106ZM48.4257,11.8438L47.6378,11.8438L51.477,3.0063L52.1898,3.0063L55.9539,11.8438L55.1661,11.8438L54.1657,9.4596L49.4262,9.4596L48.4257,11.8438Z"
        fill="currentColor" fill-rule="evenodd" id="path_0" />
</svg>