<svg width="97" height="20" viewBox="0 0 97 20" fill="currentColor" xmlns="http://www.w3.org/2000/svg">
<g clip-path="url(#clip0_2_55)">
<path opacity="0.4" fill-rule="evenodd" clip-rule="evenodd" d="M7.08442 0H89.9156C92.379 0 93.2723 0.256492 94.1729 0.73813C95.0735 1.21977 95.7802 1.92655 96.2619 2.82714C96.7435 3.72772 97 4.62101 97 7.08442V12.9156C97 15.379 96.7435 16.2723 96.2619 17.1729C95.7802 18.0734 95.0735 18.7802 94.1729 19.2619C93.2723 19.7435 92.379 20 89.9156 20H7.08442C4.62101 20 3.72772 19.7435 2.82714 19.2619C1.92655 18.7802 1.21977 18.0734 0.73813 17.1729C0.256492 16.2723 0 15.379 0 12.9156V7.08442C0 4.62101 0.256492 3.72772 0.73813 2.82714C1.21977 1.92655 1.92655 1.21977 2.82714 0.73813C3.72772 0.256492 4.62101 0 7.08442 0Z" fill="currentColor"/>
<path d="M16.1838 6C17.4176 6 18.1597 7.44851 18.7119 8.98359L18.7656 9.13482L18.8181 9.28631L18.8696 9.43778C19.0393 9.94235 19.1919 10.4418 19.3379 10.8882C19.6733 9.49163 19.4974 9.19176 19.8567 9.19176C19.9903 9.19176 20.1256 9.28262 20.1256 9.44819C20.1256 9.5152 20.0165 10.2254 19.8647 10.937L19.8367 11.0663L19.8078 11.1947C19.759 11.4076 19.7071 11.6135 19.6538 11.7945C21.1981 15.8408 22.3448 10.5111 22.4743 9.42163C22.4933 9.26453 22.6116 9.19176 22.7312 9.19176C22.8909 9.19176 23.0219 9.31208 22.9969 9.49314C22.7204 11.255 22.2952 14 20.5468 14C19.582 14 19.0396 13.245 18.6112 12.3798C18.3137 11.7953 18.0608 11.1006 17.8281 10.4019L17.7726 10.2342C17.7542 10.1784 17.736 10.1225 17.7178 10.0667L17.6637 9.89971C17.1342 8.26093 16.6851 6.74258 15.9967 6.74258C15.6603 6.74258 15.4108 7.09385 15.3936 7.09385C15.3618 7.09385 15.3369 6.95073 15.0227 6.55859C15.3217 6.21716 15.7338 6 16.1838 6ZM10.4581 6.0043C13.2111 6.0043 13.456 13.2682 15.0141 13.2682C15.197 13.2682 15.3942 13.1573 15.6097 12.9062C15.729 13.1082 15.8513 13.2877 15.9779 13.4456C15.6669 13.8006 15.2799 13.9997 14.7953 13.9997C13.0544 13.9995 12.3064 11.0842 11.6626 9.11601C11.511 9.74737 11.4323 10.3188 11.4015 10.5753C11.3824 10.7383 11.2629 10.8126 11.1425 10.8126C11.0091 10.8126 10.8745 10.7212 10.8745 10.5581C10.8745 10.546 10.8752 10.5334 10.8768 10.5205C10.9659 9.8735 11.1456 8.89326 11.3468 8.20982C11.079 7.50821 10.7445 6.74138 10.2518 6.74138C9.25694 6.74138 8.68725 9.24149 8.52704 10.5753C8.50792 10.7383 8.38843 10.8126 8.26806 10.8126C8.13458 10.8126 8 10.7212 8 10.5581C8 10.546 8.00075 10.5334 8.0023 10.5205C8.02539 10.353 8.05014 10.1824 8.07704 10.0104L8.10064 9.86273C8.10466 9.83807 8.10874 9.81339 8.11286 9.78869L8.13817 9.64039C8.45345 7.83491 9.0412 6.0043 10.4581 6.0043ZM13.3146 6.00033C13.809 6.00033 14.3394 6.2576 14.7966 6.86121C14.8221 6.89052 15.0784 7.28879 15.1593 7.42686C15.4387 7.93316 15.6821 8.55194 15.9066 9.19532L15.9647 9.36366C16.6095 11.2484 17.1067 13.277 17.8811 13.277C18.0647 13.277 18.2638 13.163 18.4842 12.9061C18.6035 13.1082 18.7258 13.2876 18.8523 13.4455C18.5421 13.7999 18.1553 13.9997 17.6698 13.9997C14.9332 13.9993 14.6358 6.73978 13.1281 6.73978C12.7879 6.73978 12.5364 7.09388 12.5191 7.09388C12.4873 7.09388 12.4624 6.95077 12.1482 6.55866C12.4553 6.20796 12.8704 6.00033 13.3146 6.00033Z" fill="currentColor"/>
<path d="M32.28 5.24001C32.37 5.49001 32.46 5.76001 32.55 6.06001H36.44V6.94001H27.55V6.06001H31.52C31.43 5.83001 31.33 5.62001 31.22 5.42001L32.28 5.24001ZM34.82 14.5H33.99L33.77 13.65L34.54 13.69C34.91 13.69 35.1 13.55 35.1 13.29V10.76H28.9V14.53H28V9.94001H36V13.49C36 14.16 35.6 14.5 34.82 14.5ZM29.12 7.41001H34.89V9.49001H29.12V7.41001ZM33.98 8.77001V8.13001H30.03V8.77001H33.98ZM29.97 11.24H34.04V13.34H29.97V11.24ZM33.2 12.64V11.94H30.82V12.64H33.2Z" fill="currentColor"/>
<path d="M43.49 10.8C43.33 11.12 43.13 11.39 42.91 11.63L42.36 10.96C42.78 10.5 43.07 9.89001 43.21 9.13001L43.99 9.27001C43.94 9.51001 43.89 9.74001 43.83 9.95001H44.56V9.09001H45.49V9.95001H46.86V10.8H45.49V11.81H47.07V12.68H45.49V14.56H44.56V12.68H42.43V11.81H44.56V10.8H43.49ZM43.73 6.67001H42.49V5.83001H46.8C46.79 7.25001 46.69 8.10001 46.5 8.38001C46.31 8.66001 45.98 8.80001 45.52 8.80001C45.28 8.80001 45 8.78001 44.67 8.76001L44.45 7.98001C44.8 8.00001 45.09 8.02001 45.32 8.04001C45.56 8.03001 45.72 7.95001 45.78 7.81001C45.84 7.67001 45.87 7.29001 45.89 6.67001H44.62C44.52 7.10001 44.37 7.48001 44.19 7.82001C43.92 8.25001 43.53 8.64001 43.02 8.99001L42.46 8.28001C42.88 8.04001 43.2 7.76001 43.41 7.43001C43.55 7.21001 43.65 6.96001 43.73 6.67001ZM39.24 10.27V11.4H39.94V10.27H39.24ZM39.19 12.19C39.1 13.15 38.88 13.95 38.52 14.61L37.88 14.02C38.24 13.31 38.42 12.41 38.43 11.31V8.33001L37.92 7.71001C38.48 7.12001 38.96 6.30001 39.36 5.26001L40.22 5.46001C40.15 5.64001 40.08 5.82001 40.01 5.99001H41.71V6.64001C41.52 7.01001 41.33 7.34001 41.14 7.62001H42.21V13.67C42.21 14.19 41.93 14.45 41.38 14.45H40.89L40.69 13.74V14.36H39.94V12.19H39.19ZM40.18 7.62001C40.35 7.37001 40.52 7.08001 40.7 6.76001H39.64C39.48 7.07001 39.31 7.36001 39.13 7.62001H40.18ZM40.69 13.67C40.84 13.69 40.98 13.71 41.11 13.71C41.31 13.71 41.41 13.6 41.41 13.39V12.19H40.69V13.67ZM41.41 11.4V10.27H40.69V11.4H41.41ZM41.41 9.49001V8.43001H40.69V9.49001H41.41ZM39.94 8.43001H39.24V9.49001H39.94V8.43001Z" fill="currentColor"/>
<path d="M50.87 9.55001V14.5H49.94V9.75001C49.62 10.65 49.22 11.47 48.74 12.22L48.33 11.18C49.04 10.28 49.56 9.25001 49.88 8.09001H48.56V7.18001H49.94V5.30001H50.87V7.18001H52.14V8.09001H50.87V8.54001C51.33 9.01001 51.79 9.52001 52.25 10.07L51.74 10.83C51.4 10.31 51.11 9.88001 50.87 9.55001ZM56.8 5.31001L57.27 6.16001C56.15 6.54001 54.9 6.77001 53.52 6.84001V8.42001H57.5V9.33001H56.1V14.51H55.14V9.33001H53.52C53.44 11.48 52.93 13.19 51.98 14.46L51.3 13.75C52.11 12.69 52.55 11.21 52.61 9.32001V6.03001C54.17 5.99001 55.57 5.75001 56.8 5.31001Z" fill="currentColor"/>
<path d="M61.08 10.79H67V11.49C66.49 12.11 65.88 12.63 65.16 13.07C66.01 13.39 66.99 13.63 68.09 13.77L67.68 14.59C66.35 14.37 65.21 14.02 64.26 13.56C63.26 14.03 62.09 14.37 60.77 14.59L60.36 13.76C61.47 13.6 62.46 13.36 63.32 13.03C62.69 12.61 62.17 12.14 61.75 11.6H61.08V10.79ZM62.77 11.6C63.17 12 63.64 12.34 64.19 12.64C64.77 12.34 65.28 11.99 65.72 11.6H62.77ZM60.64 8.70001V9.26001C60.6 11.44 60.25 13.18 59.57 14.5L58.85 13.86C59.39 12.76 59.68 11.22 59.7 9.26001V6.00001H63.49C63.38 5.78001 63.26 5.57001 63.14 5.39001L64.15 5.23001C64.26 5.46001 64.37 5.72001 64.47 6.00001H67.83V6.90001H60.64V7.82001H62.14V7.15001H63.06V7.82001H65.41V7.14001H66.33V7.82001H67.83V8.70001H66.33V10.24H62.14V8.70001H60.64ZM63.06 8.70001V9.45001H65.41V8.70001H63.06Z" fill="currentColor"/>
<path d="M70.28 5.75001H77.56V6.68001H74.04V7.28001C74.02 7.84001 73.98 8.36001 73.92 8.86001H78.35V9.78001H75.33V12.99C75.33 13.31 75.48 13.48 75.79 13.48H76.92C77.12 13.48 77.27 13.41 77.37 13.27C77.48 13.13 77.56 12.67 77.6 11.91L78.49 12.2C78.41 13.25 78.25 13.88 78.03 14.08C77.83 14.27 77.52 14.37 77.1 14.37H75.5C74.76 14.37 74.39 13.97 74.39 13.19V9.78001H73.77C73.59 10.64 73.34 11.38 73.01 12.01C72.39 13.1 71.39 13.94 70.01 14.53L69.48 13.68C70.86 13.05 71.79 12.25 72.28 11.29C72.49 10.83 72.66 10.33 72.78 9.78001H69.63V8.86001H72.95C73.01 8.36001 73.05 7.84001 73.07 7.28001V6.68001H70.28V5.75001Z" fill="currentColor"/>
<path d="M88.66 8.59001V12.51H87.73V9.43001H84.55V12.52H83.62V8.59001H88.66ZM83.95 5.63001H88.36V8.07001H83.95V5.63001ZM87.44 7.28001V6.44001H84.87V7.28001H87.44ZM85.63 9.90001H86.58V10.93C86.54 11.91 86.28 12.69 85.8 13.29C85.32 13.83 84.56 14.26 83.5 14.56L82.99 13.75C83.99 13.47 84.68 13.12 85.05 12.69C85.41 12.24 85.6 11.65 85.63 10.93V9.90001ZM81.21 14.42H80.27L80.06 13.51C80.34 13.55 80.62 13.57 80.88 13.57C81.14 13.57 81.27 13.44 81.27 13.19V11.02C80.87 11.18 80.46 11.32 80.05 11.45L79.81 10.49C80.31 10.38 80.79 10.24 81.27 10.06V7.97001H80.01V7.06001H81.27V5.31001H82.2V7.06001H83.31V7.97001H82.2V9.69001C82.55 9.53001 82.9 9.35001 83.24 9.17001V10.13C82.9 10.31 82.55 10.48 82.2 10.64V13.43C82.2 14.09 81.87 14.42 81.21 14.42ZM86.82 12.41C87.65 12.79 88.41 13.24 89.1 13.77L88.57 14.59C87.85 13.97 87.11 13.47 86.35 13.11L86.82 12.41Z" fill="currentColor"/>
</g>
<defs>
<clipPath id="clip0_2_55">
<rect width="97" height="20" fill="currentColor"/>
</clipPath>
</defs>
</svg>
