<svg width="64" height="64" viewBox="0 0 64 64" fill="none" xmlns="http://www.w3.org/2000/svg">
    <path fill-rule="evenodd" clip-rule="evenodd"
        d="M1.91256 7.67068C0 11.0858 0 15.6405 0 24.75V39.25C0 48.3595 0 52.9142 1.91256 56.3293C3.26425 58.7429 5.25707 60.7357 7.67068 62.0874C11.0858 64 15.6405 64 24.75 64H39.25C48.3595 64 52.9142 64 56.3293 62.0874C58.7429 60.7357 60.7357 58.7429 62.0874 56.3293C64 52.9142 64 48.3595 64 39.25V24.75C64 15.6405 64 11.0858 62.0874 7.67068C60.7357 5.25707 58.7429 3.26425 56.3293 1.91256C52.9142 0 48.3595 0 39.25 0H24.75C15.6405 0 11.0858 0 7.67068 1.91256C5.25707 3.26425 3.26425 5.25707 1.91256 7.67068ZM20.8281 53.0703C21.3229 53.6302 22 53.9102 22.8594 53.9102C23.4583 53.9102 24.0182 53.7604 24.5391 53.4609C25.0729 53.1615 25.7044 52.6927 26.4336 52.0547L33.0742 46.1953H44.793C46.7721 46.1953 48.4518 45.8242 49.832 45.082C51.2253 44.3398 52.2865 43.2721 53.0156 41.8789C53.7578 40.4857 54.1289 38.8125 54.1289 36.8594V21.5664C54.1289 19.6133 53.7578 17.9401 53.0156 16.5469C52.2865 15.1536 51.2253 14.0859 49.832 13.3438C48.4518 12.5885 46.7721 12.2109 44.793 12.2109H19.1875C17.2214 12.2109 15.5417 12.5885 14.1484 13.3438C12.7552 14.0859 11.6875 15.1536 10.9453 16.5469C10.2161 17.9401 9.85156 19.6133 9.85156 21.5664V36.8594C9.85156 38.8125 10.2227 40.4857 10.9648 41.8789C11.7201 43.2721 12.7812 44.3398 14.1484 45.082C15.5156 45.8242 17.1237 46.1953 18.9727 46.1953H20.1055V50.8242C20.1055 51.7617 20.3464 52.5104 20.8281 53.0703Z"
        fill="currentColor" />
    <path
        d="M22.4492 27.1914C22.4492 25.9935 22.8529 25.0104 23.6602 24.2422C24.4674 23.474 25.4701 23.0898 26.668 23.0898C28.0221 23.0898 29.1029 23.5716 29.9102 24.5352C30.7305 25.4857 31.1406 26.6576 31.1406 28.0508C31.1406 29.2096 30.9323 30.2383 30.5156 31.1367C30.112 32.0221 29.5911 32.7708 28.9531 33.3828C28.3281 33.9948 27.6771 34.457 27 34.7695C26.3229 35.082 25.7174 35.2383 25.1836 35.2383C24.8841 35.2383 24.6367 35.1536 24.4414 34.9844C24.2461 34.8151 24.1484 34.5938 24.1484 34.3203C24.1484 34.0859 24.2135 33.8906 24.3438 33.7344C24.487 33.5651 24.7214 33.4414 25.0469 33.3633C25.5677 33.2331 26.0625 33.0312 26.5312 32.7578C27.013 32.4714 27.4362 32.1328 27.8008 31.7422C28.1654 31.3385 28.4453 30.8828 28.6406 30.375H28.3867C28.1263 30.7005 27.7943 30.9284 27.3906 31.0586C26.987 31.1758 26.5573 31.2344 26.1016 31.2344C25.0078 31.2344 24.1224 30.8503 23.4453 30.082C22.7812 29.3008 22.4492 28.3372 22.4492 27.1914ZM33.0742 27.1914C33.0742 25.9935 33.4714 25.0104 34.2656 24.2422C35.0729 23.474 36.082 23.0898 37.293 23.0898C38.6471 23.0898 39.7279 23.5716 40.5352 24.5352C41.3555 25.4857 41.7656 26.6576 41.7656 28.0508C41.7656 29.2096 41.5573 30.2383 41.1406 31.1367C40.737 32.0221 40.2161 32.7708 39.5781 33.3828C38.9531 33.9948 38.2956 34.457 37.6055 34.7695C36.9284 35.082 36.3294 35.2383 35.8086 35.2383C35.5091 35.2383 35.2617 35.1536 35.0664 34.9844C34.8711 34.8151 34.7734 34.5938 34.7734 34.3203C34.7734 34.0859 34.8385 33.8906 34.9688 33.7344C35.112 33.5651 35.3529 33.4414 35.6914 33.3633C36.1992 33.2331 36.6875 33.0312 37.1562 32.7578C37.638 32.4714 38.0612 32.1328 38.4258 31.7422C38.7904 31.3385 39.0703 30.8828 39.2656 30.375H39.0117C38.7513 30.7005 38.4193 30.9284 38.0156 31.0586C37.612 31.1758 37.1823 31.2344 36.7266 31.2344C35.6328 31.2344 34.7474 30.8503 34.0703 30.082C33.4062 29.3008 33.0742 28.3372 33.0742 27.1914Z"
        fill="currentColor" />
</svg>