<svg width="64" height="64" viewBox="0 0 64 64" fill="none" xmlns="http://www.w3.org/2000/svg">
    <path fill-rule="evenodd" clip-rule="evenodd"
        d="M1.91256 7.67068C0 11.0858 0 15.6405 0 24.75V39.25C0 48.3595 0 52.9142 1.91256 56.3293C3.26425 58.7429 5.25707 60.7357 7.67068 62.0874C11.0858 64 15.6405 64 24.75 64H39.25C48.3595 64 52.9142 64 56.3293 62.0874C58.7429 60.7357 60.7357 58.7429 62.0874 56.3293C64 52.9142 64 48.3595 64 39.25V24.75C64 15.6405 64 11.0858 62.0874 7.67068C60.7357 5.25706 58.7429 3.26425 56.3293 1.91256C52.9142 0 48.3595 0 39.25 0H24.75C15.6405 0 11.0858 0 7.67068 1.91256C5.25707 3.26425 3.26425 5.25706 1.91256 7.67068ZM22.5078 21.2734C22.9115 21.6641 23.4062 21.8594 23.9922 21.8594H50.418C50.9909 21.8594 51.4792 21.6641 51.8828 21.2734C52.2865 20.8698 52.4883 20.375 52.4883 19.7891C52.4883 19.2161 52.2865 18.7279 51.8828 18.3242C51.4792 17.9206 50.9909 17.7188 50.418 17.7188H23.9922C23.4062 17.7188 22.9115 17.9206 22.5078 18.3242C22.1172 18.7279 21.9219 19.2161 21.9219 19.7891C21.9219 20.375 22.1172 20.8698 22.5078 21.2734ZM22.5078 33.3828C22.9115 33.7865 23.4062 33.9883 23.9922 33.9883H50.418C50.9909 33.9883 51.4792 33.793 51.8828 33.4023C52.2865 32.9987 52.4883 32.5039 52.4883 31.918C52.4883 31.3451 52.2865 30.8633 51.8828 30.4727C51.4792 30.069 50.9909 29.8672 50.418 29.8672H23.9922C23.4062 29.8672 22.9115 30.069 22.5078 30.4727C22.1172 30.8633 21.9219 31.3451 21.9219 31.918C21.9219 32.4909 22.1172 32.9792 22.5078 33.3828ZM22.5078 45.5312C22.9115 45.9219 23.4062 46.1172 23.9922 46.1172H50.418C50.9909 46.1172 51.4792 45.9219 51.8828 45.5312C52.2865 45.1276 52.4883 44.6328 52.4883 44.0469C52.4883 43.474 52.2865 42.9857 51.8828 42.582C51.4792 42.1784 50.9909 41.9766 50.418 41.9766H23.9922C23.4062 41.9766 22.9115 42.1784 22.5078 42.582C22.1172 42.9857 21.9219 43.474 21.9219 44.0469C21.9219 44.6328 22.1172 45.1276 22.5078 45.5312ZM12.3711 21.8789C12.957 22.4518 13.6602 22.7383 14.4805 22.7383C15.2878 22.7383 15.9844 22.4518 16.5703 21.8789C17.1562 21.306 17.4492 20.6094 17.4492 19.7891C17.4492 18.9688 17.1562 18.2721 16.5703 17.6992C15.9844 17.1263 15.2878 16.8398 14.4805 16.8398C13.6602 16.8398 12.957 17.1263 12.3711 17.6992C11.7982 18.2721 11.5117 18.9688 11.5117 19.7891C11.5117 20.6094 11.7982 21.306 12.3711 21.8789ZM12.3711 34.0078C12.957 34.5938 13.6602 34.8867 14.4805 34.8867C15.2878 34.8867 15.9844 34.5938 16.5703 34.0078C17.1562 33.4219 17.4492 32.7253 17.4492 31.918C17.4492 31.1107 17.1562 30.4141 16.5703 29.8281C15.9844 29.2422 15.2878 28.9492 14.4805 28.9492C13.6602 28.9492 12.957 29.2422 12.3711 29.8281C11.7982 30.4141 11.5117 31.1107 11.5117 31.918C11.5117 32.7253 11.7982 33.4219 12.3711 34.0078ZM12.3711 46.1367C12.957 46.7227 13.6602 47.0156 14.4805 47.0156C15.2878 47.0156 15.9844 46.7227 16.5703 46.1367C17.1562 45.5638 17.4492 44.8672 17.4492 44.0469C17.4492 43.2266 17.1562 42.5299 16.5703 41.957C15.9844 41.3841 15.2878 41.0977 14.4805 41.0977C13.6602 41.0977 12.957 41.3841 12.3711 41.957C11.7982 42.5299 11.5117 43.2266 11.5117 44.0469C11.5117 44.8672 11.7982 45.5638 12.3711 46.1367Z"
        fill="currentColor" />
</svg>