<svg width="64" height="64" viewBox="0 0 64 64" fill="none" xmlns="http://www.w3.org/2000/svg">
    <path
        d="M23.9922 21.8594C23.4062 21.8594 22.9115 21.6641 22.5078 21.2734C22.1172 20.8698 21.9219 20.375 21.9219 19.7891C21.9219 19.2161 22.1172 18.7279 22.5078 18.3242C22.9115 17.9206 23.4062 17.7188 23.9922 17.7188H50.418C50.9909 17.7188 51.4792 17.9206 51.8828 18.3242C52.2865 18.7279 52.4883 19.2161 52.4883 19.7891C52.4883 20.375 52.2865 20.8698 51.8828 21.2734C51.4792 21.6641 50.9909 21.8594 50.418 21.8594H23.9922ZM23.9922 33.9883C23.4062 33.9883 22.9115 33.7865 22.5078 33.3828C22.1172 32.9792 21.9219 32.4909 21.9219 31.918C21.9219 31.3451 22.1172 30.8633 22.5078 30.4727C22.9115 30.069 23.4062 29.8672 23.9922 29.8672H50.418C50.9909 29.8672 51.4792 30.069 51.8828 30.4727C52.2865 30.8633 52.4883 31.3451 52.4883 31.918C52.4883 32.5039 52.2865 32.9987 51.8828 33.4023C51.4792 33.793 50.9909 33.9883 50.418 33.9883H23.9922ZM23.9922 46.1172C23.4062 46.1172 22.9115 45.9219 22.5078 45.5312C22.1172 45.1276 21.9219 44.6328 21.9219 44.0469C21.9219 43.474 22.1172 42.9857 22.5078 42.582C22.9115 42.1784 23.4062 41.9766 23.9922 41.9766H50.418C50.9909 41.9766 51.4792 42.1784 51.8828 42.582C52.2865 42.9857 52.4883 43.474 52.4883 44.0469C52.4883 44.6328 52.2865 45.1276 51.8828 45.5312C51.4792 45.9219 50.9909 46.1172 50.418 46.1172H23.9922ZM14.4805 22.7383C13.6602 22.7383 12.957 22.4518 12.3711 21.8789C11.7982 21.306 11.5117 20.6094 11.5117 19.7891C11.5117 18.9688 11.7982 18.2721 12.3711 17.6992C12.957 17.1263 13.6602 16.8398 14.4805 16.8398C15.2878 16.8398 15.9844 17.1263 16.5703 17.6992C17.1562 18.2721 17.4492 18.9688 17.4492 19.7891C17.4492 20.6094 17.1562 21.306 16.5703 21.8789C15.9844 22.4518 15.2878 22.7383 14.4805 22.7383ZM14.4805 34.8867C13.6602 34.8867 12.957 34.5938 12.3711 34.0078C11.7982 33.4219 11.5117 32.7253 11.5117 31.918C11.5117 31.1107 11.7982 30.4141 12.3711 29.8281C12.957 29.2422 13.6602 28.9492 14.4805 28.9492C15.2878 28.9492 15.9844 29.2422 16.5703 29.8281C17.1562 30.4141 17.4492 31.1107 17.4492 31.918C17.4492 32.7253 17.1562 33.4219 16.5703 34.0078C15.9844 34.5938 15.2878 34.8867 14.4805 34.8867ZM14.4805 47.0156C13.6602 47.0156 12.957 46.7227 12.3711 46.1367C11.7982 45.5638 11.5117 44.8672 11.5117 44.0469C11.5117 43.2266 11.7982 42.5299 12.3711 41.957C12.957 41.3841 13.6602 41.0977 14.4805 41.0977C15.2878 41.0977 15.9844 41.3841 16.5703 41.957C17.1562 42.5299 17.4492 43.2266 17.4492 44.0469C17.4492 44.8672 17.1562 45.5638 16.5703 46.1367C15.9844 46.7227 15.2878 47.0156 14.4805 47.0156Z"
        fill="currentColor" />
</svg>