<svg width="56" height="56" viewBox="0 0 56 56" fill="none" xmlns="http://www.w3.org/2000/svg">
    <path fill-rule="evenodd" clip-rule="evenodd"
        d="M1.65755 6.64792C0 9.6077 0 13.5551 0 21.45V34.55C0 42.4449 0 46.3923 1.65755 49.3521C2.82902 51.4439 4.55612 53.171 6.64792 54.3424C9.6077 56 13.5551 56 21.45 56H34.55C42.4449 56 46.3923 56 49.3521 54.3424C51.4439 53.171 53.171 51.4439 54.3424 49.3521C56 46.3923 56 42.4449 56 34.55V21.45C56 13.5551 56 9.6077 54.3424 6.64792C53.171 4.55612 51.4439 2.82902 49.3521 1.65755C46.3923 0 42.4449 0 34.55 0H21.45C13.5551 0 9.6077 0 6.64792 1.65755C4.55612 2.82902 2.82902 4.55612 1.65755 6.64792ZM11.623 28.4092C12.0039 28.79 12.4727 28.9805 13.0293 28.9805C13.5762 28.9805 14.04 28.79 14.4209 28.4092C14.8018 28.0186 14.9922 27.5498 14.9922 27.0029V25.8604C14.9922 24.5713 15.3926 23.5557 16.1934 22.8135C17.0039 22.0615 18.1025 21.6855 19.4893 21.6855H30.6367V24.9668C30.6367 25.416 30.7637 25.7725 31.0176 26.0361C31.2715 26.29 31.623 26.417 32.0723 26.417C32.2871 26.417 32.4775 26.3828 32.6436 26.3145C32.8193 26.2461 32.9805 26.1533 33.127 26.0361L39.2354 20.8799C39.5771 20.5967 39.748 20.2549 39.748 19.8545C39.7578 19.4443 39.5869 19.0977 39.2354 18.8145L33.127 13.6582C32.9805 13.541 32.8193 13.4482 32.6436 13.3799C32.4775 13.3115 32.2871 13.2773 32.0723 13.2773C31.623 13.2773 31.2715 13.4092 31.0176 13.6729C30.7637 13.9268 30.6367 14.2832 30.6367 14.7422V17.8477H19.709C17.9219 17.8477 16.3838 18.1504 15.0947 18.7559C13.8057 19.3516 12.8096 20.2109 12.1064 21.334C11.4033 22.457 11.0518 23.7998 11.0518 25.3623V27.0029C11.0518 27.5498 11.2422 28.0186 11.623 28.4092ZM44.3623 27.5303C43.9814 27.1494 43.5176 26.959 42.9707 26.959C42.4141 26.959 41.9453 27.1494 41.5645 27.5303C41.1934 27.9111 41.0078 28.3799 41.0078 28.9365V30.0791C41.0078 31.3682 40.6025 32.3838 39.792 33.126C38.9912 33.8682 37.8975 34.2393 36.5107 34.2393H25.3633V30.9727C25.3633 30.5137 25.2363 30.1572 24.9824 29.9033C24.7285 29.6396 24.377 29.5078 23.9277 29.5078C23.7129 29.5078 23.5176 29.542 23.3418 29.6104C23.166 29.6787 23.0098 29.7715 22.873 29.8887L16.75 35.0449C16.418 35.3379 16.252 35.6846 16.252 36.085C16.252 36.4854 16.418 36.8271 16.75 37.1104L22.873 42.2666C23.0098 42.3838 23.166 42.4766 23.3418 42.5449C23.5176 42.6133 23.7129 42.6475 23.9277 42.6475C24.377 42.6475 24.7285 42.5156 24.9824 42.252C25.2363 41.998 25.3633 41.6465 25.3633 41.1973V38.0918H36.291C38.0684 38.0918 39.6016 37.7939 40.8906 37.1982C42.1895 36.5928 43.1904 35.7285 43.8936 34.6055C44.5967 33.4727 44.9482 32.1299 44.9482 30.5771V28.9365C44.9482 28.3799 44.7529 27.9111 44.3623 27.5303Z"
        fill="currentColor" />
</svg>