<svg width="56" height="56" viewBox="0 0 56 56" fill="none" xmlns="http://www.w3.org/2000/svg">
    <path fill-rule="evenodd" clip-rule="evenodd"
        d="M1.65755 6.64792C0 9.6077 0 13.5551 0 21.45V34.55C0 42.4449 0 46.3923 1.65755 49.3521C2.82902 51.4439 4.55612 53.171 6.64792 54.3424C9.6077 56 13.5551 56 21.45 56H34.55C42.4449 56 46.3923 56 49.3521 54.3424C51.4439 53.171 53.171 51.4439 54.3424 49.3521C56 46.3923 56 42.4449 56 34.55V21.45C56 13.5551 56 9.6077 54.3424 6.64792C53.171 4.55612 51.4439 2.82902 49.3521 1.65755C46.3923 0 42.4449 0 34.55 0H21.45C13.5551 0 9.6077 0 6.64792 1.65755C4.55612 2.82902 2.82902 4.55612 1.65755 6.64792ZM11.5791 28.4385C11.9502 28.7998 12.4287 28.9805 13.0146 28.9805C13.6006 28.9805 14.0742 28.7998 14.4355 28.4385C14.7969 28.0674 14.9775 27.5889 14.9775 27.0029V25.8604C14.9775 24.5713 15.3779 23.5557 16.1787 22.8135C16.9893 22.0615 18.0879 21.6855 19.4746 21.6855H26.3447V24.9668C26.3447 25.416 26.4717 25.7725 26.7256 26.0361C26.9893 26.29 27.3457 26.417 27.7949 26.417C28 26.417 28.1904 26.3828 28.3662 26.3145C28.542 26.2461 28.6982 26.1533 28.835 26.0361L34.958 20.8799C35.2998 20.5967 35.4707 20.2549 35.4707 19.8545C35.4707 19.4443 35.2998 19.0977 34.958 18.8145L28.835 13.6582C28.6982 13.541 28.542 13.4482 28.3662 13.3799C28.1904 13.3115 28 13.2773 27.7949 13.2773C27.3457 13.2773 26.9893 13.4092 26.7256 13.6729C26.4717 13.9268 26.3447 14.2832 26.3447 14.7422V17.8477H19.6943C17.9072 17.8477 16.3691 18.1504 15.0801 18.7559C13.791 19.3516 12.7949 20.2109 12.0918 21.334C11.3887 22.457 11.0371 23.7998 11.0371 25.3623V27.0029C11.0371 27.5889 11.2178 28.0674 11.5791 28.4385ZM44.377 27.501C44.0156 27.1396 43.542 26.959 42.9561 26.959C42.3701 26.959 41.8965 27.1396 41.5352 27.501C41.1738 27.8623 40.9932 28.3408 40.9932 28.9365V30.0791C40.9932 31.3682 40.5879 32.3838 39.7773 33.126C38.9766 33.8682 37.8828 34.2393 36.4961 34.2393H25.3486V30.9727C25.3486 30.5137 25.2217 30.1572 24.9678 29.9033C24.7139 29.6396 24.3623 29.5078 23.9131 29.5078C23.6982 29.5078 23.5029 29.542 23.3271 29.6104C23.1514 29.6787 22.9951 29.7715 22.8584 29.8887L16.7354 35.0449C16.4033 35.3379 16.2373 35.6846 16.2373 36.085C16.2373 36.4854 16.4033 36.8271 16.7354 37.1104L22.8584 42.2666C22.9951 42.3838 23.1514 42.4766 23.3271 42.5449C23.5029 42.6133 23.6982 42.6475 23.9131 42.6475C24.3623 42.6475 24.7139 42.5156 24.9678 42.252C25.2217 41.998 25.3486 41.6465 25.3486 41.1973V38.0918H36.2764C38.0537 38.0918 39.5869 37.7939 40.876 37.1982C42.1748 36.5928 43.1758 35.7285 43.8789 34.6055C44.582 33.4727 44.9336 32.1299 44.9336 30.5771V28.9365C44.9336 28.3408 44.748 27.8623 44.377 27.501ZM41.6523 23.6631C42.0039 23.9854 42.4678 24.1465 43.0439 24.1465C43.6299 24.1465 44.0938 23.9854 44.4355 23.6631C44.7871 23.3408 44.9629 22.8477 44.9629 22.1836V15.2256C44.9629 14.5713 44.7529 14.0439 44.333 13.6436C43.9229 13.2432 43.3955 13.043 42.751 13.043C42.2432 13.043 41.7988 13.1211 41.418 13.2773C41.0469 13.4336 40.666 13.6533 40.2754 13.9365L38.3125 15.4014C38.0195 15.6064 37.8193 15.8018 37.7119 15.9873C37.6045 16.1729 37.5508 16.3926 37.5508 16.6465C37.5508 17.0078 37.668 17.3008 37.9023 17.5254C38.1367 17.75 38.4346 17.8623 38.7959 17.8623C39.1279 17.8623 39.4258 17.7598 39.6895 17.5547L41.0078 16.5146H41.125V22.1836C41.125 22.8477 41.3008 23.3408 41.6523 23.6631Z"
        fill="currentColor" />
</svg>