<svg width="56" height="56" viewBox="0 0 56 56" fill="none" xmlns="http://www.w3.org/2000/svg">
    <path
        d="M13.0293 28.9805C12.4727 28.9805 12.0039 28.79 11.623 28.4092C11.2422 28.0186 11.0518 27.5498 11.0518 27.0029V25.3623C11.0518 23.7998 11.4033 22.457 12.1064 21.334C12.8096 20.2109 13.8057 19.3516 15.0947 18.7559C16.3838 18.1504 17.9219 17.8477 19.709 17.8477H30.6367V14.7422C30.6367 14.2832 30.7637 13.9268 31.0176 13.6729C31.2715 13.4092 31.623 13.2773 32.0723 13.2773C32.2871 13.2773 32.4775 13.3115 32.6436 13.3799C32.8193 13.4482 32.9805 13.541 33.127 13.6582L39.2354 18.8145C39.5869 19.0977 39.7578 19.4443 39.748 19.8545C39.748 20.2549 39.5771 20.5967 39.2354 20.8799L33.127 26.0361C32.9805 26.1533 32.8193 26.2461 32.6436 26.3145C32.4775 26.3828 32.2871 26.417 32.0723 26.417C31.623 26.417 31.2715 26.29 31.0176 26.0361C30.7637 25.7725 30.6367 25.416 30.6367 24.9668V21.6855H19.4893C18.1025 21.6855 17.0039 22.0615 16.1934 22.8135C15.3926 23.5557 14.9922 24.5713 14.9922 25.8604V27.0029C14.9922 27.5498 14.8018 28.0186 14.4209 28.4092C14.04 28.79 13.5762 28.9805 13.0293 28.9805ZM42.9707 26.959C43.5176 26.959 43.9814 27.1494 44.3623 27.5303C44.7529 27.9111 44.9482 28.3799 44.9482 28.9365V30.5771C44.9482 32.1299 44.5967 33.4727 43.8936 34.6055C43.1904 35.7285 42.1895 36.5928 40.8906 37.1982C39.6016 37.7939 38.0684 38.0918 36.291 38.0918H25.3633V41.1973C25.3633 41.6465 25.2363 41.998 24.9824 42.252C24.7285 42.5156 24.377 42.6475 23.9277 42.6475C23.7129 42.6475 23.5176 42.6133 23.3418 42.5449C23.166 42.4766 23.0098 42.3838 22.873 42.2666L16.75 37.1104C16.418 36.8271 16.252 36.4854 16.252 36.085C16.252 35.6846 16.418 35.3379 16.75 35.0449L22.873 29.8887C23.0098 29.7715 23.166 29.6787 23.3418 29.6104C23.5176 29.542 23.7129 29.5078 23.9277 29.5078C24.377 29.5078 24.7285 29.6396 24.9824 29.9033C25.2363 30.1572 25.3633 30.5137 25.3633 30.9727V34.2393H36.5107C37.8975 34.2393 38.9912 33.8682 39.792 33.126C40.6025 32.3838 41.0078 31.3682 41.0078 30.0791V28.9365C41.0078 28.3799 41.1934 27.9111 41.5645 27.5303C41.9453 27.1494 42.4141 26.959 42.9707 26.959Z"
        fill="currentColor" />
</svg>