<svg width="56" height="56" viewBox="0 0 56 56" fill="none" xmlns="http://www.w3.org/2000/svg">
    <path fill-rule="evenodd" clip-rule="evenodd"
        d="M1.65755 6.64792C0 9.6077 0 13.5551 0 21.45V34.55C0 42.4449 0 46.3923 1.65755 49.3521C2.82902 51.4439 4.55612 53.171 6.64792 54.3424C9.6077 56 13.5551 56 21.45 56H34.55C42.4449 56 46.3923 56 49.3521 54.3424C51.4439 53.171 53.171 51.4439 54.3424 49.3521C56 46.3923 56 42.4449 56 34.55V21.45C56 13.5551 56 9.6077 54.3424 6.64792C53.171 4.55612 51.4439 2.82902 49.3521 1.65755C46.3923 0 42.4449 0 34.55 0H21.45C13.5551 0 9.6077 0 6.64792 1.65755C4.55612 2.82902 2.82902 4.55612 1.65755 6.64792ZM10.1143 35.3672C9.74316 35.7285 9.55762 36.1777 9.55762 36.7148C9.55762 37.2422 9.74316 37.6865 10.1143 38.0479C10.4951 38.4092 10.9639 38.5898 11.5205 38.5898H15.1387C16.4766 38.5898 17.5947 38.3701 18.4932 37.9307C19.3916 37.4814 20.2607 36.7539 21.1006 35.748L24.631 31.4331L28.0146 35.5723C28.9229 36.6758 29.9141 37.457 30.9883 37.916C32.0723 38.3652 33.2832 38.5898 34.6211 38.5898H37.3311V41.959C37.3311 42.418 37.458 42.7744 37.7119 43.0283C37.9658 43.2822 38.3174 43.4092 38.7666 43.4092C38.9814 43.4092 39.1719 43.375 39.3379 43.3066C39.5137 43.2383 39.6748 43.1455 39.8213 43.0283L45.9297 37.8867C46.2715 37.5938 46.4424 37.2471 46.4424 36.8467C46.4424 36.4463 46.2715 36.0996 45.9297 35.8066L39.8213 30.665C39.6748 30.5479 39.5137 30.4551 39.3379 30.3867C39.1719 30.3086 38.9814 30.2695 38.7666 30.2695C38.3174 30.2695 37.9658 30.4014 37.7119 30.665C37.458 30.9287 37.3311 31.2852 37.3311 31.7344V34.8252H34.6943C33.7373 34.8252 32.9219 34.6592 32.248 34.3271C31.5742 33.9854 30.9248 33.4336 30.2998 32.6719L26.9596 28.587L30.3291 24.4688C30.7588 23.9414 31.1689 23.5215 31.5596 23.209C31.96 22.8965 32.3896 22.6768 32.8486 22.5498C33.3076 22.4131 33.8496 22.3447 34.4746 22.3447H37.3311V25.4355C37.3311 25.8848 37.458 26.2412 37.7119 26.5049C37.9658 26.7588 38.3174 26.8857 38.7666 26.8857C38.9814 26.8857 39.1719 26.8516 39.3379 26.7832C39.5137 26.7148 39.6748 26.6221 39.8213 26.5049L45.9297 21.3486C46.2715 21.0654 46.4424 20.7236 46.4424 20.3232C46.4424 19.9131 46.2715 19.5664 45.9297 19.2832L39.8213 14.127C39.6748 14.0098 39.5137 13.917 39.3379 13.8486C39.1719 13.7803 38.9814 13.7461 38.7666 13.7461C38.3174 13.7461 37.9658 13.8779 37.7119 14.1416C37.458 14.3955 37.3311 14.7471 37.3311 15.1963V18.5654H34.6504C33.2051 18.5654 31.9551 18.7998 30.9004 19.2686C29.8457 19.7275 28.8008 20.5918 27.7656 21.8613L24.6192 25.7249L21.1006 21.4219C20.2607 20.4062 19.3477 19.6787 18.3613 19.2393C17.375 18.79 16.2178 18.5654 14.8896 18.5654H11.5205C10.9639 18.5654 10.4951 18.7461 10.1143 19.1074C9.74316 19.4688 9.55762 19.918 9.55762 20.4551C9.55762 20.9824 9.74316 21.4316 10.1143 21.8027C10.4951 22.1641 10.9639 22.3447 11.5205 22.3447H14.4648C15.4023 22.3447 16.2275 22.5107 16.9404 22.8428C17.6631 23.1748 18.3369 23.7266 18.9619 24.498L22.2965 28.5772L18.9619 32.6719C18.3369 33.4434 17.707 33.9951 17.0723 34.3271C16.4375 34.6592 15.6562 34.8252 14.7285 34.8252H11.5205C10.9639 34.8252 10.4951 35.0059 10.1143 35.3672Z"
        fill="currentColor" />
</svg>