<svg width="56" height="56" viewBox="0 0 56 56" fill="none" xmlns="http://www.w3.org/2000/svg">
    <path
        d="M9.55762 36.7148C9.55762 36.1777 9.74316 35.7285 10.1143 35.3672C10.4951 35.0059 10.9639 34.8252 11.5205 34.8252H14.7285C15.6562 34.8252 16.4375 34.6592 17.0723 34.3271C17.707 33.9951 18.3369 33.4434 18.9619 32.6719L27.7656 21.8613C28.8008 20.5918 29.8457 19.7275 30.9004 19.2686C31.9551 18.7998 33.2051 18.5654 34.6504 18.5654H37.3311V15.1963C37.3311 14.7471 37.458 14.3955 37.7119 14.1416C37.9658 13.8779 38.3174 13.7461 38.7666 13.7461C38.9814 13.7461 39.1719 13.7803 39.3379 13.8486C39.5137 13.917 39.6748 14.0098 39.8213 14.127L45.9297 19.2832C46.2715 19.5664 46.4424 19.9131 46.4424 20.3232C46.4424 20.7236 46.2715 21.0654 45.9297 21.3486L39.8213 26.5049C39.6748 26.6221 39.5137 26.7148 39.3379 26.7832C39.1719 26.8516 38.9814 26.8857 38.7666 26.8857C38.3174 26.8857 37.9658 26.7588 37.7119 26.5049C37.458 26.2412 37.3311 25.8848 37.3311 25.4355V22.3447H34.4746C33.8496 22.3447 33.3076 22.4131 32.8486 22.5498C32.3896 22.6768 31.96 22.8965 31.5596 23.209C31.1689 23.5215 30.7588 23.9414 30.3291 24.4688L21.1006 35.748C20.2607 36.7539 19.3916 37.4814 18.4932 37.9307C17.5947 38.3701 16.4766 38.5898 15.1387 38.5898H11.5205C10.9639 38.5898 10.4951 38.4092 10.1143 38.0479C9.74316 37.6865 9.55762 37.2422 9.55762 36.7148ZM9.55762 20.4551C9.55762 19.918 9.74316 19.4688 10.1143 19.1074C10.4951 18.7461 10.9639 18.5654 11.5205 18.5654H14.8896C16.2178 18.5654 17.375 18.79 18.3613 19.2393C19.3477 19.6787 20.2607 20.4062 21.1006 21.4219L30.2998 32.6719C30.9248 33.4336 31.5742 33.9854 32.248 34.3271C32.9219 34.6592 33.7373 34.8252 34.6943 34.8252H37.3311V31.7344C37.3311 31.2852 37.458 30.9287 37.7119 30.665C37.9658 30.4014 38.3174 30.2695 38.7666 30.2695C38.9814 30.2695 39.1719 30.3086 39.3379 30.3867C39.5137 30.4551 39.6748 30.5479 39.8213 30.665L45.9297 35.8066C46.2715 36.0996 46.4424 36.4463 46.4424 36.8467C46.4424 37.2471 46.2715 37.5938 45.9297 37.8867L39.8213 43.0283C39.6748 43.1455 39.5137 43.2383 39.3379 43.3066C39.1719 43.375 38.9814 43.4092 38.7666 43.4092C38.3174 43.4092 37.9658 43.2822 37.7119 43.0283C37.458 42.7744 37.3311 42.418 37.3311 41.959V38.5898H34.6211C33.2832 38.5898 32.0723 38.3652 30.9883 37.916C29.9141 37.457 28.9229 36.6758 28.0146 35.5723L18.9619 24.498C18.3369 23.7266 17.6631 23.1748 16.9404 22.8428C16.2275 22.5107 15.4023 22.3447 14.4648 22.3447H11.5205C10.9639 22.3447 10.4951 22.1641 10.1143 21.8027C9.74316 21.4316 9.55762 20.9824 9.55762 20.4551Z"
        fill="currentColor" />
</svg>