<svg width="36" height="36" viewBox="0 0 36 36" fill="none" xmlns="http://www.w3.org/2000/svg">
    <path
        d="M7.83396 32.7793C7.49216 32.5254 7.2822 32.1836 7.20407 31.7539C7.13571 31.334 7.19919 30.8359 7.3945 30.2598L10.4121 21.3096L2.72165 15.7871C2.2236 15.4355 1.87692 15.0693 1.68161 14.6885C1.4863 14.2979 1.457 13.8975 1.59372 13.4873C1.73044 13.0869 1.98923 12.7891 2.37009 12.5938C2.75095 12.3887 3.24899 12.291 3.86423 12.3008L13.2832 12.3594L16.1543 3.36523C16.3398 2.7793 16.584 2.33496 16.8867 2.03223C17.1992 1.71973 17.5654 1.56348 17.9853 1.56348C18.415 1.56348 18.7812 1.71973 19.084 2.03223C19.3965 2.33496 19.6455 2.7793 19.831 3.36523L22.7021 12.3594L32.1211 12.3008C32.7363 12.291 33.2343 12.3887 33.6152 12.5938C33.9961 12.7891 34.2549 13.0869 34.3916 13.4873C34.5283 13.8975 34.499 14.2979 34.3037 14.6885C34.1084 15.0693 33.7617 15.4355 33.2636 15.7871L25.5732 21.3096L28.5908 30.2598C28.7861 30.8359 28.8447 31.334 28.7666 31.7539C28.6982 32.1836 28.4931 32.5254 28.1513 32.7793C27.8095 33.0527 27.4238 33.1504 26.9941 33.0723C26.5644 32.9941 26.1054 32.7793 25.6172 32.4277L17.9853 26.8174L10.3681 32.4277C9.87985 32.7793 9.42087 32.9941 8.99118 33.0723C8.56149 33.1504 8.17575 33.0527 7.83396 32.7793ZM10.4121 29.2344C10.4316 29.2637 10.4707 29.2588 10.5293 29.2197L17.1357 24.1221C17.4287 23.8877 17.7119 23.7705 17.9853 23.7705C18.2685 23.7705 18.5566 23.8877 18.8496 24.1221L25.456 29.2197C25.5146 29.2588 25.5537 29.2637 25.5732 29.2344C25.583 29.2148 25.583 29.1758 25.5732 29.1172L22.79 21.2656C22.7119 21.0312 22.6679 20.8213 22.6582 20.6357C22.6582 20.4404 22.707 20.2646 22.8047 20.1084C22.9121 19.9521 23.0732 19.8008 23.2881 19.6543L30.1728 14.9521C30.2314 14.9131 30.2558 14.874 30.2461 14.835C30.2363 14.8057 30.1924 14.791 30.1142 14.791L21.7939 14.9961C21.4131 15.0059 21.1152 14.9424 20.9004 14.8057C20.6855 14.6592 20.5244 14.3955 20.417 14.0146L18.0732 6.03125C18.0537 5.96289 18.0244 5.92871 17.9853 5.92871C17.956 5.92871 17.9316 5.96289 17.9121 6.03125L15.5683 14.0146C15.4609 14.3955 15.2998 14.6592 15.0849 14.8057C14.8701 14.9424 14.5722 15.0059 14.1914 14.9961L5.87107 14.791C5.79294 14.791 5.74899 14.8057 5.73923 14.835C5.72946 14.874 5.75388 14.9131 5.81247 14.9521L12.6972 19.6543C12.9121 19.8008 13.0683 19.9521 13.166 20.1084C13.2734 20.2646 13.3222 20.4404 13.3125 20.6357C13.3125 20.8213 13.2734 21.0312 13.1953 21.2656L10.4121 29.1172C10.3925 29.1758 10.3925 29.2148 10.4121 29.2344Z"
        fill="currentColor" />
</svg>