<svg width="36" height="36" viewBox="0 0 36 36" fill="none" xmlns="http://www.w3.org/2000/svg">
    <path
        d="M7.83396 32.7793C7.49216 32.5254 7.2822 32.1836 7.20407 31.7539C7.13571 31.334 7.19919 30.8359 7.3945 30.2598L10.4121 21.3096L2.72165 15.7871C2.2236 15.4355 1.87692 15.0693 1.68161 14.6885C1.4863 14.2979 1.457 13.8975 1.59372 13.4873C1.73044 13.0869 1.98923 12.7891 2.37009 12.5938C2.75095 12.3984 3.24899 12.3008 3.86423 12.3008H13.2832L16.1543 3.36523C16.3398 2.7793 16.584 2.33496 16.8867 2.03223C17.1992 1.71973 17.5654 1.56348 17.9853 1.56348C18.415 1.56348 18.7812 1.71973 19.084 2.03223C19.3965 2.33496 19.6455 2.7793 19.831 3.36523L22.7021 12.3008H32.1211C32.7363 12.3008 33.2343 12.3984 33.6152 12.5938C33.9961 12.7891 34.2549 13.0869 34.3916 13.4873C34.5283 13.8975 34.499 14.2979 34.3037 14.6885C34.1084 15.0693 33.7617 15.4355 33.2636 15.7871L25.5732 21.3096L28.5908 30.2598C28.7861 30.8359 28.8447 31.334 28.7666 31.7539C28.6982 32.1836 28.4931 32.5254 28.1513 32.7793C27.8095 33.0527 27.4238 33.1504 26.9941 33.0723C26.5644 32.9941 26.1054 32.7793 25.6172 32.4277L17.9853 26.8174L10.3681 32.4277C9.87985 32.7793 9.42087 32.9941 8.99118 33.0723C8.56149 33.1504 8.17575 33.0527 7.83396 32.7793Z"
        fill="currentColor" />
</svg>