<svg id="vector" xmlns="http://www.w3.org/2000/svg" width="40" height="34" viewBox="0 0 40 34">
    <path fill="#FFFFFF"
        d="M17.6881,28.0396C17.1683,28.0396 16.6782,27.8614 16.099,27.5198L1.4703,19.0396C0.5644,18.5198 0,17.9703 0,17.0198C0,16.0545 0.5644,15.5198 1.4703,15L16.099,6.5198C16.6782,6.1782 17.1683,6 17.6881,6C18.6238,6 19.5149,6.698 19.5149,8.0644L19.5149,16.6188C19.6485,15.9059 20.1832,15.4455 20.9406,15L35.5842,6.5198C36.1485,6.1782 36.6386,6 37.1733,6C38.1089,6 39,6.698 39,8.0644L39,25.9752C39,27.3416 38.1089,28.0396 37.1733,28.0396C36.6386,28.0396 36.1485,27.8614 35.5842,27.5198L20.9406,19.0396C20.1832,18.5941 19.6485,18.1337 19.5149,17.4208L19.5149,25.9752C19.5149,27.3416 18.6238,28.0396 17.6881,28.0396Z"
        stroke="#00000000" stroke-width="1" fill-rule="nonzero" id="path_0" />
</svg>