<svg xmlns="http://www.w3.org/2000/svg" width="28" height="28"><path d="M14.4 12.2c0-1.1.8-1.9 2-1.9 1.3 0 2.1 1 2.1 2.4 0 2-1.7 3.2-2.7 3.2-.3 0-.5-.2-.5-.4s.1-.4.4-.4c.8-.2 1.4-.7 1.7-1.4h-.2c-.2.3-.6.4-1.1.4-1-.1-1.7-.9-1.7-1.9zm-4.9 0c0-1.1.8-1.9 2-1.9 1.3 0 2.1 1 2.1 2.4 0 2-1.7 3.2-2.7 3.2-.3 0-.5-.2-.5-.4s.1-.4.4-.4c.8-.2 1.5-.7 1.7-1.4h-.2c-.2.3-.6.4-1.1.4-1-.1-1.7-.9-1.7-1.9zm.9 9.2l2.8-2.7c.6-.6.9-.7 1.6-.7h4.6c1.3 0 2.1-.8 2.1-2.1V9.4c0-1.4-.8-2.1-2.1-2.1H8.5c-1.3 0-2.1.7-2.1 2.1v6.5c0 1.3.8 2.1 2.1 2.1h1c.6 0 .9.3.9.9v2.5zM9.9 24c-.9 0-1.5-.6-1.5-1.6v-2h-.5C5.4 20.3 4 19 4 16.5V9c0-2.5 1.5-4 4.1-4h11.8C22.5 5 24 6.4 24 9v7.6c0 2.5-1.5 3.8-4.1 3.8h-5.1l-3.1 2.7c-.7.6-1.2.9-1.8.9z"/></svg>