<svg width="101" height="21" viewBox="0 0 101 21" fill="none" xmlns="http://www.w3.org/2000/svg">
<path fill-rule="evenodd" clip-rule="evenodd" d="M4 0H97C99.2091 0 101 1.79086 101 4V17C101 19.2091 99.2091 21 97 21H4C1.79086 21 0 19.2091 0 17V4C0 1.79086 1.79086 0 4 0ZM12.4844 6.2601C12.205 6.0469 11.8969 5.924 11.5522 5.924C11.2643 5.924 10.9572 6.0001 10.7033 6.1651C10.8082 6.2498 10.9089 6.3462 11.0059 6.4534C11.5245 6.2373 11.9026 6.6119 12.1959 7.1053C12.5934 7.77447 12.9308 8.84482 13.2891 9.98162C13.8083 11.6285 14.3714 13.4148 15.2249 14.3229C15.3179 14.4218 15.4374 14.5283 15.5156 14.588C15.795 14.8011 16.1031 14.924 16.4478 14.924C16.7355 14.924 17.0427 14.8479 17.2966 14.6828C17.1918 14.5984 17.091 14.5016 16.9941 14.3946C16.8926 14.437 16.7951 14.459 16.7017 14.459C16.4261 14.459 16.1839 14.2805 15.9618 13.9799L15.9543 13.9698C15.9287 13.9353 15.8771 13.8658 15.804 13.7427C15.4065 13.0736 15.0692 12.0033 14.7109 10.8666C14.1918 9.2197 13.6287 7.43326 12.7751 6.5252C12.6939 6.4389 12.5808 6.3335 12.4844 6.2601ZM15.0818 14.3954C14.981 14.4372 14.884 14.459 14.7911 14.459C13.9286 14.459 13.3942 12.7568 12.8029 10.8733C12.0377 8.43589 11.1771 5.69478 9.38689 5.9454C9.08959 5.9869 8.81469 6.1212 8.61229 6.3023C7.59033 7.19479 7.22707 9.57559 7.00943 11.002L7.00079 11.0586C6.99359 11.1199 7.03619 11.1754 7.09609 11.1827C7.10049 11.1833 7.10479 11.1835 7.10919 11.1835C7.16369 11.1835 7.21069 11.1418 7.21829 11.0764C7.36509 9.8193 7.82869 7.3454 8.82859 6.6073C9.30499 6.253 9.71309 6.3342 10.0916 6.8187C10.1578 6.9036 10.2223 6.9994 10.2851 7.1054C10.5948 7.6267 10.8674 8.3871 11.1405 9.2319C11.1847 9.3688 11.229 9.5075 11.2734 9.648C11.3178 9.78854 11.363 9.93362 11.4093 10.082C12.0614 12.1731 12.9193 14.924 14.537 14.924C14.8249 14.924 15.132 14.8478 15.386 14.6829C15.2807 14.5983 15.1792 14.5028 15.0818 14.3954ZM16.8595 11.616C16.8153 11.4793 16.771 11.3405 16.7265 11.2C16.682 11.0592 16.6366 10.9138 16.5902 10.765L16.5899 10.764C15.938 8.67404 15.0801 5.924 13.4629 5.924C13.1751 5.924 12.868 6.0001 12.614 6.1652C12.7194 6.2497 12.8209 6.3453 12.9182 6.4526C13.0191 6.4108 13.116 6.389 13.2089 6.389C14.066 6.389 14.6071 8.10376 15.2043 9.99606C15.9395 12.3255 16.7595 14.924 18.3584 14.924C18.7247 14.924 19.1016 14.8019 19.3876 14.5457C20.4096 13.6532 20.7728 11.2728 20.9905 9.84633L20.9992 9.7893C21.0063 9.7282 20.9637 9.6726 20.9039 9.6654C20.8996 9.6648 20.8952 9.6646 20.8908 9.6646C20.8364 9.6646 20.7893 9.7062 20.7816 9.7717C20.6348 11.0288 20.1712 13.5026 19.1713 14.2407C18.9702 14.3903 18.7848 14.459 18.6124 14.459C18.3516 14.459 18.1207 14.3009 17.9085 14.0293C17.8422 13.9445 17.7777 13.8485 17.7148 13.7426C17.4052 13.2212 17.1326 12.461 16.8595 11.616ZM18.9867 9.6647C19.0531 9.6727 19.0957 9.7281 19.0885 9.7894L19.0802 9.84358C18.9043 10.997 18.6333 12.7739 17.9962 13.8848C17.9326 13.7984 17.8704 13.7006 17.8094 13.5926C18.437 12.5387 18.7543 10.7711 18.8711 9.7717C18.8787 9.7062 18.9257 9.6645 18.9801 9.6645C18.9822 9.6645 18.9846 9.66458 18.9867 9.6647C18.9887 9.66484 18.9932 9.6653 18.9932 9.6653L18.9867 9.6647ZM16.3239 13.4013C16.2681 13.2959 16.2138 13.1872 16.1606 13.0754C16.0801 13.2608 15.9927 13.4348 15.8985 13.5931C15.9594 13.7009 16.0215 13.7986 16.0847 13.8848C16.1707 13.7346 16.2504 13.5726 16.3239 13.4013ZM17.076 9.6647C17.1424 9.6727 17.1851 9.7281 17.1779 9.7894L17.1702 9.83995C17.105 10.2675 17.0272 10.7775 16.9229 11.3078C16.8782 11.1676 16.8336 11.0269 16.7893 10.8861C16.8681 10.4698 16.9239 10.0833 16.9604 9.7717C16.968 9.7062 17.015 9.6645 17.0695 9.6645C17.0716 9.6645 17.0739 9.66458 17.076 9.6647C17.0781 9.66484 17.0805 9.66506 17.0826 9.6653L17.076 9.6647ZM10.1906 7.2554C10.1296 7.1474 10.0674 7.0496 10.0038 6.9633C9.36694 8.0734 9.09598 9.849 8.91998 11.0024L8.91139 11.0586C8.90419 11.1198 8.94689 11.1753 9.00679 11.1827C9.01109 11.1832 9.01549 11.1835 9.01989 11.1835C9.07429 11.1835 9.12129 11.1418 9.12889 11.0763C9.24569 10.077 9.56299 8.3093 10.1906 7.2554ZM11.2107 9.962C11.1663 9.8211 11.1218 9.6804 11.0771 9.5401C10.9729 10.0704 10.8951 10.5803 10.8298 11.0078L10.8221 11.0586C10.8149 11.1198 10.8575 11.1753 10.9174 11.1827C10.9218 11.1832 10.9261 11.1835 10.9305 11.1835C10.985 11.1835 11.032 11.1418 11.0396 11.0763C11.076 10.7646 11.1319 10.3782 11.2107 9.962ZM12.1014 7.2549C12.0406 7.1471 11.9787 7.0493 11.9153 6.9632C11.8293 7.1135 11.7495 7.2754 11.6762 7.4467C11.7319 7.5521 11.7862 7.6608 11.8394 7.7726C11.92 7.5872 12.0072 7.413 12.1014 7.2549ZM30.66 5.996C30.556 5.66 30.448 5.332 30.336 5.012L29.064 5.228C29.2 5.476 29.32 5.732 29.424 5.996H24.66V7.052H35.328V5.996H30.66ZM32.124 15.104L32.388 16.124H33.384C34.328 16.124 34.8 15.72 34.8 14.912V10.652H25.2V16.16H26.28V11.636H33.72V14.672C33.72 14.992 33.496 15.152 33.048 15.152L32.124 15.104ZM33.468 7.616H26.544V10.112H33.468V7.616ZM32.448 12.212H27.564V14.732H32.448V12.212ZM42.492 12.68C42.78 12.36 43.012 12.028 43.188 11.684H44.472V12.896H41.916V13.94H44.472V16.196H45.588V13.94H47.484V12.896H45.588V11.684H47.232V10.664H45.588V9.632H44.472V10.664H43.596C43.652 10.472 43.716 10.2 43.788 9.848L42.852 9.68C42.684 10.584 42.344 11.316 41.832 11.876L42.492 12.68ZM41.988 5.72V6.728H43.476C43.372 7.088 43.244 7.392 43.092 7.64C42.844 8.024 42.464 8.364 41.952 8.66L42.624 9.512C43.24 9.088 43.708 8.62 44.028 8.108C44.26 7.668 44.432 7.208 44.544 6.728H46.068C46.044 7.496 46 7.952 45.936 8.096C45.864 8.264 45.68 8.356 45.384 8.372C45.112 8.348 44.764 8.324 44.34 8.3L44.604 9.236C45.132 9.268 45.472 9.284 45.624 9.284C46.184 9.284 46.576 9.116 46.8 8.78C47.032 8.444 47.152 7.424 47.16 5.72H41.988ZM37.224 16.256C37.656 15.472 37.924 14.504 38.028 13.352H38.928V15.956H39.828V15.212L40.068 16.064H40.656C41.32 16.064 41.652 15.752 41.652 15.128V7.868H40.368C40.584 7.548 40.812 7.156 41.052 6.692V5.912H39.012L39.264 5.276L38.232 5.036C37.752 6.292 37.176 7.272 36.504 7.976L37.116 8.72V12.296C37.1 13.616 36.88 14.7 36.456 15.548L37.224 16.256ZM50.328 16.124H51.444V10.184C51.708 10.544 52.056 11.056 52.488 11.72L53.1 10.808C52.548 10.144 51.996 9.532 51.444 8.972V8.432H52.968V7.34H51.444V5.084H50.328V7.34H48.672V8.432H50.256C49.872 9.808 49.252 11.04 48.396 12.128L48.888 13.388C49.464 12.484 49.944 11.496 50.328 10.424V16.124ZM54.624 6.932C56.264 6.852 57.764 6.58 59.124 6.116L58.56 5.096C57.088 5.624 55.412 5.912 53.532 5.96V9.908C53.46 12.172 52.936 13.944 51.96 15.224L52.776 16.076C53.912 14.556 54.528 12.504 54.624 9.92H56.568V16.136H57.72V9.92H59.4V8.828H54.624V6.932ZM70.2 11.672H63.096V12.644H63.9C64.396 13.284 65.024 13.856 65.784 14.36C64.768 14.752 63.584 15.044 62.232 15.236L62.724 16.232C64.332 15.96 65.728 15.548 66.912 14.996C68.08 15.564 69.448 15.976 71.016 16.232L71.508 15.248C70.212 15.08 69.04 14.8 67.992 14.408C68.864 13.88 69.6 13.248 70.2 12.512V11.672ZM62.568 9.836V9.164H64.368V11.012H69.396V9.164H71.196V8.108H69.396V7.292H68.292V8.108H65.472V7.304H64.368V8.108H62.568V7.004H71.196V5.924H67.164C67.052 5.604 66.924 5.296 66.78 5L65.568 5.192C65.712 5.408 65.852 5.652 65.988 5.924H61.44V9.836C61.416 12.18 61.076 14.02 60.42 15.356L61.284 16.124C62.092 14.556 62.52 12.46 62.568 9.836ZM82.272 5.624H73.536V6.74H76.884V7.46C76.86 8.124 76.812 8.756 76.74 9.356H72.756V10.46H76.536C76.4 11.092 76.2 11.696 75.936 12.272C75.344 13.432 74.224 14.388 72.576 15.14L73.212 16.16C74.868 15.448 76.068 14.44 76.812 13.136C77.204 12.392 77.508 11.5 77.724 10.46H78.468V14.552C78.468 15.496 78.912 15.968 79.8 15.968H81.72C82.216 15.968 82.588 15.852 82.836 15.62C83.108 15.372 83.292 14.62 83.388 13.364L82.32 13.016C82.272 13.928 82.18 14.472 82.044 14.648C81.924 14.816 81.744 14.9 81.504 14.9H80.148C79.78 14.9 79.596 14.704 79.596 14.312V10.46H83.22V9.356H77.904C77.976 8.756 78.024 8.124 78.048 7.46V6.74H82.272V5.624ZM94.968 13.736V9.032H88.968V13.748H90.072V10.04H93.864V13.736H94.968ZM94.62 5.48H89.352V8.408H94.62V5.48ZM92.496 10.604H91.356V11.84C91.316 12.712 91.084 13.416 90.66 13.952C90.22 14.464 89.396 14.888 88.188 15.224L88.8 16.196C90.048 15.844 90.968 15.336 91.56 14.672C92.136 13.952 92.448 13.008 92.496 11.84V10.604ZM84.672 14.936L84.924 16.028H86.052C86.844 16.028 87.24 15.624 87.24 14.816V11.492C87.672 11.3 88.092 11.096 88.5 10.88V9.728C87.996 9.992 87.576 10.2 87.24 10.352V8.288H88.572V7.196H87.24V5.096H86.124V7.196H84.612V8.288H86.124V10.796C85.572 11.004 84.984 11.176 84.36 11.312L84.648 12.464C85.2 12.296 85.692 12.124 86.124 11.948V14.528C86.124 14.848 85.968 15.008 85.656 15.008C85.336 15.008 85.008 14.984 84.672 14.936ZM95.52 15.248C94.704 14.624 93.792 14.08 92.784 13.616L92.22 14.456C93.108 14.88 93.996 15.472 94.884 16.232L95.52 15.248Z" fill="white"/>
<path d="M32.376 9.248V8.48H27.636V9.248H32.376Z" fill="white"/>
<path d="M31.44 13.892V13.052H28.584V13.892H31.44Z" fill="white"/>
<path d="M40.692 10.112V8.84H39.828V10.112H40.692Z" fill="white"/>
<path d="M38.928 8.84H38.088V10.112H38.928V8.84Z" fill="white"/>
<path d="M38.088 11.048V12.404H38.928V11.048H38.088Z" fill="white"/>
<path d="M39.216 7.868C39.384 7.62 39.592 7.276 39.84 6.836H38.568C38.368 7.22 38.164 7.564 37.956 7.868H39.216Z" fill="white"/>
<path d="M40.692 12.404V11.048H39.828V12.404H40.692Z" fill="white"/>
<path d="M39.828 15.128C40.068 15.16 40.236 15.176 40.332 15.176C40.572 15.176 40.692 15.048 40.692 14.792V13.352H39.828V15.128Z" fill="white"/>
<path d="M65.472 9.164V10.064H68.292V9.164H65.472Z" fill="white"/>
<path d="M65.124 12.644C65.588 13.108 66.156 13.524 66.828 13.892C67.516 13.54 68.128 13.124 68.664 12.644H65.124Z" fill="white"/>
<path d="M93.516 7.46V6.452H90.456V7.46H93.516Z" fill="white"/>
</svg>
