<svg width="53" height="21" viewBox="0 0 53 21" fill="none" xmlns="http://www.w3.org/2000/svg">
<path fill-rule="evenodd" clip-rule="evenodd" d="M4 0H49C51.2091 0 53 1.79086 53 4V17C53 19.2091 51.2091 21 49 21H4C1.79086 21 0 19.2091 0 17V4C0 1.79086 1.79086 0 4 0ZM11.4844 6.1641C11.205 5.9509 10.8969 5.828 10.5522 5.828C10.2643 5.828 9.95719 5.9041 9.70329 6.0691C9.80819 6.1538 9.90889 6.2502 10.0059 6.3574C10.5245 6.1413 10.9026 6.5159 11.1959 7.0093C11.5934 7.67847 11.9308 8.74882 12.2891 9.88562C12.8083 11.5325 13.3714 13.3188 14.2249 14.2269C14.3179 14.3258 14.4374 14.4323 14.5156 14.492C14.795 14.7051 15.1031 14.828 15.4478 14.828C15.7355 14.828 16.0427 14.7519 16.2966 14.5868C16.1918 14.5024 16.091 14.4056 15.9941 14.2986C15.8926 14.341 15.7951 14.363 15.7017 14.363C15.4261 14.363 15.1839 14.1845 14.9618 13.8839L14.9543 13.8738C14.9287 13.8393 14.8771 13.7698 14.804 13.6467C14.4065 12.9776 14.0692 11.9073 13.7109 10.7706C13.1918 9.1237 12.6287 7.33726 11.7751 6.4292C11.6939 6.3429 11.5808 6.2375 11.4844 6.1641ZM14.0818 14.2994C13.981 14.3412 13.884 14.363 13.7911 14.363C12.9286 14.363 12.3942 12.6608 11.8029 10.7773C11.0377 8.33989 10.1771 5.59877 8.38689 5.8494C8.08959 5.8909 7.81469 6.0252 7.61229 6.2063C6.59033 7.09879 6.22707 9.47959 6.00943 10.906L6.00079 10.9626C5.99359 11.0239 6.03619 11.0794 6.09609 11.0867C6.10049 11.0873 6.10479 11.0875 6.10919 11.0875C6.16369 11.0875 6.21069 11.0458 6.21829 10.9804C6.36509 9.7233 6.82869 7.2494 7.82859 6.5113C8.30499 6.157 8.71309 6.2382 9.09159 6.7227C9.15779 6.8076 9.22229 6.9034 9.28509 7.0094C9.59479 7.5307 9.86739 8.2911 10.1405 9.1359C10.1847 9.2728 10.229 9.4115 10.2734 9.552C10.3178 9.69254 10.363 9.83762 10.4093 9.98602C11.0614 12.0771 11.9193 14.828 13.537 14.828C13.8249 14.828 14.132 14.7518 14.386 14.5869C14.2807 14.5023 14.1792 14.4068 14.0818 14.2994ZM15.8595 11.52C15.8153 11.3833 15.771 11.2445 15.7265 11.104C15.6819 10.9629 15.6364 10.8171 15.5899 10.668C14.938 8.57804 14.0801 5.828 12.4629 5.828C12.1751 5.828 11.868 5.9041 11.614 6.0692C11.7194 6.1537 11.8209 6.2493 11.9182 6.3566C12.0191 6.3148 12.116 6.293 12.2089 6.293C13.066 6.293 13.6071 8.00775 14.2043 9.90006C14.9395 12.2295 15.7595 14.828 17.3584 14.828C17.7247 14.828 18.1016 14.7059 18.3876 14.4497C19.4096 13.5572 19.7728 11.1768 19.9905 9.75033L19.9992 9.6933C20.0063 9.6322 19.9637 9.5766 19.9039 9.5694C19.8996 9.5688 19.8952 9.5686 19.8908 9.5686C19.8364 9.5686 19.7893 9.6102 19.7816 9.6757C19.6348 10.9328 19.1712 13.4066 18.1713 14.1447C17.9702 14.2943 17.7848 14.363 17.6124 14.363C17.3516 14.363 17.1207 14.2049 16.9085 13.9333C16.8422 13.8485 16.7777 13.7525 16.7148 13.6466C16.4052 13.1252 16.1326 12.365 15.8595 11.52ZM17.9867 9.5687C18.0531 9.5767 18.0957 9.6321 18.0885 9.6934L18.0802 9.74758C17.9043 10.901 17.6333 12.6779 16.9962 13.7888C16.9326 13.7024 16.8704 13.6046 16.8094 13.4966C17.437 12.4427 17.7543 10.6751 17.8711 9.6757C17.8787 9.6102 17.9257 9.5685 17.9801 9.5685L17.9867 9.5687C17.9887 9.56884 17.9932 9.5693 17.9932 9.5693L17.9867 9.5687ZM15.3239 13.3053C15.2681 13.1999 15.2138 13.0912 15.1606 12.9794C15.0801 13.1648 14.9927 13.3388 14.8985 13.4971C14.9594 13.6049 15.0215 13.7026 15.0847 13.7888C15.1707 13.6386 15.2504 13.4766 15.3239 13.3053ZM16.076 9.5687C16.1424 9.5767 16.1851 9.6321 16.1779 9.6934L16.1702 9.74394C16.105 10.1715 16.0272 10.6815 15.9229 11.2118C15.8782 11.0716 15.8336 10.9309 15.7893 10.7901C15.8681 10.3738 15.9239 9.9873 15.9604 9.6757C15.968 9.6102 16.015 9.5685 16.0695 9.5685L16.076 9.5687C16.0781 9.56884 16.0805 9.56906 16.0826 9.5693L16.076 9.5687ZM9.19059 7.1594C9.12959 7.0514 9.06739 6.9536 9.00379 6.8673C8.36693 7.9774 8.09598 9.753 7.91997 10.9064L7.91139 10.9626C7.90419 11.0238 7.94689 11.0793 8.00679 11.0867C8.01109 11.0872 8.01549 11.0875 8.01989 11.0875C8.07429 11.0875 8.12129 11.0458 8.12889 10.9803C8.24569 9.981 8.56299 8.2133 9.19059 7.1594ZM10.2107 9.866C10.1663 9.7251 10.1218 9.5844 10.0771 9.4441C9.97285 9.97444 9.89506 10.4843 9.82984 10.9118L9.82209 10.9626C9.81489 11.0238 9.85749 11.0793 9.91739 11.0867C9.92179 11.0872 9.92609 11.0875 9.93049 11.0875C9.98499 11.0875 10.032 11.0458 10.0396 10.9803C10.076 10.6686 10.1319 10.2822 10.2107 9.866ZM11.1014 7.1589C11.0406 7.0511 10.9787 6.9533 10.9153 6.8672C10.8293 7.0175 10.7495 7.1794 10.6762 7.3507C10.7319 7.4561 10.7862 7.5648 10.8394 7.6766C10.92 7.4912 11.0072 7.317 11.1014 7.1589ZM33.272 5.528H24.536V6.644H27.884V7.364C27.86 8.028 27.812 8.66 27.74 9.26H23.756V10.364H27.536C27.4 10.996 27.2 11.6 26.936 12.176C26.344 13.336 25.224 14.292 23.576 15.044L24.212 16.064C25.868 15.352 27.068 14.344 27.812 13.04C28.204 12.296 28.508 11.404 28.724 10.364H29.468V14.456C29.468 15.4 29.912 15.872 30.8 15.872H32.72C33.216 15.872 33.588 15.756 33.836 15.524C34.108 15.276 34.292 14.524 34.388 13.268L33.32 12.92C33.272 13.832 33.18 14.376 33.044 14.552C32.924 14.72 32.744 14.804 32.504 14.804H31.148C30.78 14.804 30.596 14.608 30.596 14.216V10.364H34.22V9.26H28.904C28.976 8.66 29.024 8.028 29.048 7.364V6.644H33.272V5.528ZM45.968 13.64V8.936H39.968V13.652H41.072V9.944H44.864V13.64H45.968ZM45.62 5.384H40.352V8.312H45.62V5.384ZM43.496 10.508H42.356V11.744C42.316 12.616 42.084 13.32 41.66 13.856C41.22 14.368 40.396 14.792 39.188 15.128L39.8 16.1C41.048 15.748 41.968 15.24 42.56 14.576C43.136 13.856 43.448 12.912 43.496 11.744V10.508ZM35.672 14.84L35.924 15.932H37.052C37.844 15.932 38.24 15.528 38.24 14.72V11.396C38.672 11.204 39.092 11 39.5 10.784V9.632C38.996 9.896 38.576 10.104 38.24 10.256V8.192H39.572V7.1H38.24V5H37.124V7.1H35.612V8.192H37.124V10.7C36.572 10.908 35.984 11.08 35.36 11.216L35.648 12.368C36.2 12.2 36.692 12.028 37.124 11.852V14.432C37.124 14.752 36.968 14.912 36.656 14.912C36.336 14.912 36.008 14.888 35.672 14.84ZM46.52 15.152C45.704 14.528 44.792 13.984 43.784 13.52L43.22 14.36C44.108 14.784 44.996 15.376 45.884 16.136L46.52 15.152Z" fill="white"/>
<path d="M44.516 7.364V6.356H41.456V7.364H44.516Z" fill="white"/>
</svg>
