<svg id="vector" xmlns="http://www.w3.org/2000/svg" width="32" height="32" viewBox="0 0 32 32">
    <path 
        d="M16.0049,26.3008C21.6787,26.3008 26.3467,21.6328 26.3467,15.9492C26.3467,13.0391 24.9404,9.9531 22.8311,8.2734C22.1279,7.6582 21.3174,7.6875 20.8389,8.2441C20.3018,8.8594 20.4971,9.6504 21.0635,10.2266C22.6846,11.6719 23.6904,13.6445 23.6904,15.9492C23.7002,20.207 20.2627,23.6445 16.0049,23.6445C11.7373,23.6445 8.3193,20.207 8.3193,15.9492C8.3193,12.4727 10.5947,9.5625 13.749,8.6152L13.749,10.002C13.749,10.8418 14.4521,11.0957 15.1846,10.5684L18.8076,7.9414C19.3936,7.5117 19.3838,6.8281 18.8076,6.4082L15.1943,3.7715C14.4619,3.2441 13.749,3.4785 13.749,4.3379L13.749,5.8613C9.1299,6.8867 5.6533,11.0371 5.6533,15.9492C5.6533,21.6328 10.3213,26.3008 16.0049,26.3008ZM13.0654,20.2168C14.7061,20.2168 15.7998,19.2988 15.7998,17.8926C15.7998,16.9844 15.2627,16.1934 14.3936,16.0176C15.126,15.8027 15.6045,15.0703 15.6045,14.3184C15.6045,13.0684 14.5986,12.2383 13.0947,12.2383C11.8643,12.2383 10.9463,12.9609 10.7217,13.7129C10.6631,13.8887 10.624,14.0254 10.624,14.1816C10.624,14.6406 10.9072,14.9531 11.3369,14.9531C11.6592,14.9531 11.8838,14.8066 12.0596,14.4844C12.2842,14.0059 12.5967,13.752 13.0654,13.752C13.5635,13.752 13.9053,14.084 13.9053,14.5625C13.9053,15.0215 13.5928,15.4219 13.0654,15.4219L12.8506,15.4219C12.3721,15.4219 12.0693,15.7148 12.0693,16.1543C12.0693,16.6133 12.3623,16.8965 12.8506,16.8965L13.085,16.8965C13.6807,16.8965 14.0518,17.2578 14.0518,17.7949C14.0518,18.2734 13.6416,18.6543 13.0947,18.6543C12.5967,18.6543 12.1963,18.3809 11.9717,17.9219C11.8057,17.6191 11.5811,17.4531 11.2393,17.4531C10.8682,17.4531 10.5166,17.7461 10.5166,18.2246C10.5166,18.3613 10.5361,18.498 10.585,18.6543C10.8193,19.4941 11.874,20.2168 13.0654,20.2168ZM19.1787,20.2168C20.7314,20.2168 21.9131,18.7324 21.9131,16.2324C21.9131,13.7227 20.7314,12.2383 19.1787,12.2383C17.626,12.2383 16.4932,13.5664 16.4932,16.2324C16.4932,18.8789 17.626,20.2168 19.1787,20.2168ZM19.208,18.625C18.583,18.625 18.2217,17.7949 18.2217,16.2324C18.2217,14.6602 18.583,13.8301 19.208,13.8301C19.833,13.8301 20.1748,14.6504 20.1748,16.2324C20.1748,17.7949 19.8232,18.625 19.208,18.625Z"
        fill="currentColor" fill-rule="nonzero" id="path_0" />
</svg>