<svg width="26" height="19" viewBox="0 0 26 19" fill="none" xmlns="http://www.w3.org/2000/svg">
<g clip-path="url(#clip0_1_4)">
<path d="M21.666 18.3115C22.0527 18.5664 22.5713 18.4521 22.8525 18.0302C24.3994 15.7099 25.3311 12.8271 25.3311 9.66305C25.3311 6.4902 24.3818 3.61618 22.8525 1.28708C22.5713 0.856412 22.0527 0.750944 21.666 1.00583C21.2441 1.27829 21.1826 1.79684 21.4727 2.26266C22.8174 4.31051 23.6523 6.85055 23.6523 9.66305C23.6523 12.458 22.8174 15.0156 21.4727 17.0547C21.1826 17.5205 21.2441 18.039 21.666 18.3115ZM2.62012 13.416H5.10742C5.17773 13.416 5.24805 13.4336 5.30078 13.4863L9.15918 16.9316C9.61621 17.3447 9.96777 17.5381 10.4336 17.5381C11.084 17.5381 11.5762 17.0459 11.5762 16.3955V2.97458C11.5762 2.3154 11.084 1.78805 10.416 1.78805C9.96777 1.78805 9.65137 1.9902 9.15918 2.43844L5.30078 5.85739C5.24805 5.91012 5.17773 5.9277 5.10742 5.9277H2.62012C1.31934 5.9277 0.660156 6.61325 0.660156 7.98434V11.3593C0.660156 12.7392 1.32812 13.416 2.62012 13.416ZM18.1064 15.9297C18.5107 16.1757 19.0029 16.0879 19.2754 15.6748C20.4268 14.0576 21.0859 11.8867 21.0859 9.65427C21.0859 7.42184 20.4355 5.24216 19.2754 3.63376C19.0029 3.22067 18.5107 3.12399 18.1064 3.37887C17.6846 3.64255 17.623 4.16989 17.9307 4.63571C18.8711 6.0068 19.4072 7.79098 19.4072 9.65427C19.4072 11.5088 18.8535 13.2929 17.9307 14.6728C17.6318 15.1386 17.6846 15.6572 18.1064 15.9297ZM14.5732 13.5742C14.9512 13.8203 15.4434 13.7324 15.7158 13.3457C16.4277 12.3965 16.8496 11.0517 16.8496 9.65427C16.8496 8.2568 16.4277 6.92087 15.7158 5.96286C15.4434 5.57614 14.9512 5.48825 14.5732 5.74313C14.1426 6.02438 14.0547 6.54294 14.4062 7.0527C14.8896 7.74704 15.1621 8.67868 15.1621 9.65427C15.1621 10.6299 14.8809 11.5527 14.4062 12.2558C14.0635 12.7656 14.1426 13.2841 14.5732 13.5742Z" fill="white"/>
</g>
<defs>
<clipPath id="clip0_1_4">
<rect width="26" height="19" fill="white"/>
</clipPath>
</defs>
</svg>
