<svg id="vector" xmlns="http://www.w3.org/2000/svg" width="28" height="28" viewBox="0 0 28 28">
    <path 
        d="M6,0L22,0C25.3137,-0 28,2.6863 28,6L28,22C28,25.3137 25.3137,28 22,28L6,28C2.6863,28 0,25.3137 0,22L0,6C-0,2.6863 2.6863,0 6,0ZM5.5284,9.0448C6.3642,9.0448 7.0448,8.3403 7.0448,7.5284C7.0448,6.6806 6.3642,6 5.5284,6C4.6567,6 4,6.6567 4,7.5284C4,8.3403 4.7045,9.0448 5.5284,9.0448ZM22.806,6.2985L10.1254,6.2985C9.4328,6.2985 8.9313,6.8 8.9313,7.5164C8.9313,8.2328 9.4328,8.7463 10.1254,8.7463L22.806,8.7463C23.5104,8.7463 24,8.2328 24,7.5164C24,6.8 23.5104,6.2985 22.806,6.2985ZM5.5284,15.1343C6.3642,15.1343 7.0448,14.4299 7.0448,13.6179C7.0448,12.7701 6.3642,12.0896 5.5284,12.0896C4.6567,12.0896 4,12.7463 4,13.6179C4,14.4299 4.7045,15.1343 5.5284,15.1343ZM22.806,12.3881L10.1254,12.3881C9.4328,12.3881 8.9313,12.8896 8.9313,13.606C8.9313,14.3224 9.4328,14.8358 10.1254,14.8358L22.806,14.8358C23.5104,14.8358 24,14.3224 24,13.606C24,12.8896 23.5104,12.3881 22.806,12.3881ZM5.5284,21.2239C6.3642,21.2239 7.0448,20.5433 7.0448,19.7075C7.0448,18.8955 6.3642,18.1791 5.5284,18.1791C4.7045,18.1791 4,18.8955 4,19.7075C4,20.5672 4.6567,21.2239 5.5284,21.2239ZM22.806,18.4776L10.1254,18.4776C9.4328,18.4776 8.9313,18.9791 8.9313,19.6955C8.9313,20.4119 9.4328,20.9254 10.1254,20.9254L22.806,20.9254C23.5104,20.9254 24,20.4119 24,19.6955C24,18.9791 23.5104,18.4776 22.806,18.4776Z"
        fill="currentColor" fill-rule="evenodd" id="path_0" />
</svg>