<svg id="vector" xmlns="http://www.w3.org/2000/svg" width="32" height="32" viewBox="0 0 134 134"
    fill="currentColor">
    <path
        d="M62 60.0717C65.938 62.3453 67.9069 63.4821 68.5677 64.9662C69.1441 66.2608 69.1441 67.7391 68.5677 69.0336C67.9069 70.5177 65.938 71.6545 62 73.9281L41 86.0525C37.062 88.326 35.0931 89.4628 33.4774 89.293C32.0681 89.1449 30.7878 88.4057 29.9549 87.2593C29 85.945 29 83.6714 29 79.1243V54.8755C29 50.3284 29 48.0548 29.9549 46.7405C30.7878 45.5941 32.0681 44.8549 33.4774 44.7068C35.0931 44.537 37.062 45.6738 41 47.9473L62 60.0717Z"
         class="forward-left-arrow"></path>
    <path
        d="M62 60.0717C65.938 62.3453 67.9069 63.4821 68.5677 64.9662C69.1441 66.2608 69.1441 67.7391 68.5677 69.0336C67.9069 70.5177 65.938 71.6545 62 73.9281L41 86.0525C37.062 88.326 35.0931 89.4628 33.4774 89.293C32.0681 89.1449 30.7878 88.4057 29.9549 87.2593C29 85.945 29 83.6714 29 79.1243V54.8755C29 50.3284 29 48.0548 29.9549 46.7405C30.7878 45.5941 32.0681 44.8549 33.4774 44.7068C35.0931 44.537 37.062 45.6738 41 47.9473L62 60.0717Z"
         class="forward-left-standby"></path>
    <path
        d="M102 60.0717C105.938 62.3453 107.907 63.4821 108.568 64.9662C109.144 66.2608 109.144 67.7391 108.568 69.0336C107.907 70.5177 105.938 71.6545 102 73.9281L81 86.0525C77.062 88.326 75.0931 89.4628 73.4774 89.293C72.0681 89.1449 70.7878 88.4057 69.9549 87.2593C69 85.945 69 83.6714 69 79.1243V54.8755C69 50.3284 69 48.0548 69.9549 46.7405C70.7878 45.5941 72.0681 44.8549 73.4774 44.7068C75.0931 44.537 77.062 45.6738 81 47.9473L102 60.0717Z"
         class="forward-right-arrow"></path>
</svg>