<svg width="28" height="28" viewBox="0 0 28 28" fill="currentColor" xmlns="http://www.w3.org/2000/svg">
    <path
        d="M20.2515 22.8467C20.6748 22.5313 20.7578 22 20.5254 21.311L18.8403 16.3057L23.1401 13.2261C23.7378 12.8027 23.9868 12.3213 23.8208 11.8149C23.6465 11.3169 23.1733 11.0679 22.4346 11.0762L17.1719 11.1177L15.5615 6.0791C15.3374 5.3735 14.9722 5 14.4409 5C13.9097 5 13.5361 5.3735 13.312 6.0791L11.71 11.1177L6.43073 11.0762C5.70853 11.0679 5.22713 11.3169 5.05273 11.8149C4.87843 12.3213 5.14413 12.8027 5.73343 13.2261L10.0332 16.3057L8.34823 21.311C8.11573 22 8.19873 22.5313 8.62213 22.8467C9.05373 23.1787 9.57673 23.0708 10.1743 22.6392L14.4409 19.5098L18.6992 22.6392C19.2969 23.0708 19.8198 23.1787 20.2515 22.8467ZM18.5249 20.564L14.9722 17.7998C14.582 17.4927 14.2915 17.4927 13.9014 17.7998L10.3486 20.564C10.3154 20.5806 10.2905 20.5972 10.2822 20.5806C10.2656 20.564 10.2656 20.5557 10.2822 20.5059L11.8013 16.2725C11.959 15.8076 11.9258 15.5586 11.4858 15.2681L7.76713 12.7363C7.73393 12.7197 7.71733 12.7031 7.72563 12.6782C7.73393 12.6616 7.75053 12.6533 7.79203 12.6533L12.291 12.7778C12.7808 12.7944 13.0049 12.6616 13.146 12.1802L14.3911 7.8638C14.4077 7.814 14.416 7.8057 14.4409 7.8057C14.4575 7.8057 14.4658 7.814 14.4824 7.8638L15.7275 12.1802C15.8687 12.6616 16.0928 12.7944 16.5908 12.7778L21.0816 12.6533C21.1231 12.6533 21.148 12.6616 21.1563 12.6782C21.1563 12.7031 21.148 12.7114 21.1148 12.7363L17.3877 15.2681C16.9561 15.5586 16.9146 15.8076 17.0806 16.2725L18.5913 20.5059C18.6079 20.5557 18.6079 20.564 18.5913 20.5806C18.583 20.5972 18.5581 20.5806 18.5249 20.564Z"
         />
</svg>