<svg id="vector" xmlns="http://www.w3.org/2000/svg" width="28" height="28" viewBox="0 0 28 28">
    <path 
        d="M22,0C25.3137,-0 28,2.6863 28,6L28,22C28,25.3137 25.3137,28 22,28L6,28C2.6863,28 0,25.3137 0,22L0,6C-0,2.6863 2.6863,0 6,0L22,0ZM21.9736,13.5497C21.3958,13.5497 20.9396,14.0037 20.9396,14.5619L20.9396,14.5619L20.9396,15.0532C20.9396,16.1324 20.2021,16.832 19.0541,16.832L19.0541,16.832L13.466,16.832L13.466,15.4774C13.466,14.9936 13.1391,14.6736 12.6373,14.6736C12.4244,14.6736 12.1887,14.7554 12.0215,14.8969L12.0215,14.8969L9.1476,17.219C8.737,17.5465 8.737,18.0973 9.1476,18.4397L9.1476,18.4397L12.0215,20.7767C12.1887,20.9181 12.4244,21 12.6373,21C13.1391,21 13.466,20.68 13.466,20.1962L13.466,20.1962L13.466,18.8267L18.8945,18.8267C21.3426,18.8267 23,17.4274 23,15.1722L23,15.1722L23,14.5619C23,14.0037 22.5438,13.5497 21.9736,13.5497ZM14.7357,7.067C14.2339,7.067 13.8994,7.387 13.8994,7.8708L13.8994,7.8708L13.8994,9.218L10.1055,9.218C7.6574,9.218 6,10.6172 6,12.8724L6,12.8724L6,13.4827C6,14.0484 6.4562,14.4949 7.0264,14.4949C7.6042,14.4949 8.0604,14.0484 8.0604,13.4827L8.0604,13.4827L8.0604,12.9915C8.0604,11.9197 8.7979,11.2201 9.9459,11.2201L9.9459,11.2201L13.8994,11.2201L13.8994,12.5821C13.8994,13.0659 14.2339,13.3934 14.7357,13.3934C14.9486,13.3934 15.1843,13.3115 15.3515,13.1701L15.3515,13.1701L18.2254,10.848C18.636,10.5056 18.6284,9.9623 18.2254,9.6273L18.2254,9.6273L15.3515,7.2903C15.1843,7.1489 14.9486,7.067 14.7357,7.067ZM21.814,7C21.297,7 21.0004,7.1265 20.6431,7.3945L20.6431,7.3945L19.7308,8.0941C19.4267,8.3248 19.305,8.4811 19.305,8.7416C19.305,9.1138 19.5787,9.3668 19.936,9.3668C20.1337,9.3668 20.2706,9.3147 20.453,9.1659L20.453,9.1659L21.0157,8.697L21.0537,8.697L21.0537,11.488C21.0537,12.0909 21.4262,12.3961 21.9736,12.3961C22.5134,12.3961 22.8784,12.0909 22.8784,11.488L22.8784,11.488L22.8784,8.0346C22.8784,7.4168 22.4602,7 21.814,7Z"
        fill="currentColor" fill-rule="nonzero" id="path_0" />
</svg>