<svg id="vector" xmlns="http://www.w3.org/2000/svg" width="28" height="28" viewBox="0 0 28 28">
    <path 
        d="M22,0C25.3137,-0 28,2.6863 28,6L28,22C28,25.3137 25.3137,28 22,28L6,28C2.6863,28 0,25.3137 0,22L0,6C-0,2.6863 2.6863,0 6,0L22,0ZM21.8696,13.4311C21.249,13.4311 20.7466,13.9208 20.7466,14.5329L20.7466,14.5329L20.7466,15.001C20.7466,16.0597 20.0226,16.7366 18.8627,16.7366L18.8627,16.7366L13.4398,16.7366L13.4398,15.4331C13.4398,14.9362 13.1073,14.6121 12.5902,14.6121C12.3685,14.6121 12.1395,14.6914 11.977,14.8282L11.977,14.8282L9.0661,17.1903C8.6597,17.5216 8.6523,18.0689 9.0661,18.4146L9.0661,18.4146L11.977,20.784C12.1395,20.9208 12.3685,21 12.5902,21C13.1073,21 13.4398,20.6759 13.4398,20.179L13.4398,20.179L13.4398,18.9043L18.7223,18.9043C21.3007,18.9043 23,17.4784 23,15.1739L23,15.1739L23,14.5329C23,13.9208 22.4976,13.4311 21.8696,13.4311ZM16.4098,7C15.8927,7 15.5602,7.3313 15.5602,7.821L15.5602,7.821L15.5602,9.0957L10.2777,9.0957C7.6993,9.0957 6,10.5144 6,12.8189L6,12.8189L6,13.4599C6,14.072 6.5024,14.5617 7.123,14.5617C7.751,14.5617 8.2534,14.072 8.2534,13.4599L8.2534,13.4599L8.2534,12.9918C8.2534,11.9331 8.9774,11.2634 10.1373,11.2634L10.1373,11.2634L15.5602,11.2634L15.5602,12.5741C15.5602,13.071 15.8927,13.3951 16.4098,13.3951C16.6315,13.3951 16.8605,13.3086 17.023,13.1718L17.023,13.1718L19.9339,10.8169C20.3477,10.4856 20.3403,9.9311 19.9339,9.5926L19.9339,9.5926L17.023,7.2233C16.8605,7.0864 16.6315,7 16.4098,7Z"
        fill="currentColor" fill-rule="nonzero" id="path_0" />
</svg>