<svg width="28" height="28" viewBox="0 0 28 28" fill="currentColor" xmlns="http://www.w3.org/2000/svg">
    <path
        d="M14.1 20.55L14 20.65L13.89 20.55C9.14 16.24 6 13.39 6 10.5C6 8.5 7.5 7 9.5 7C11.04 7 12.54 8 13.07 9.36H14.93C15.46 8 16.96 7 18.5 7C20.5 7 22 8.5 22 10.5C22 13.39 18.86 16.24 14.1 20.55ZM18.5 5C16.76 5 15.09 5.81 14 7.08C12.91 5.81 11.24 5 9.5 5C6.42 5 4 7.41 4 10.5C4 14.27 7.4 17.36 12.55 22.03L14 23.35L15.45 22.03C20.6 17.36 24 14.27 24 10.5C24 7.41 21.58 5 18.5 5Z"
         />
</svg>