<svg id="vector" xmlns="http://www.w3.org/2000/svg" width="28" height="28" viewBox="0 0 28 28">
    <path 
        d="M6,13.4599L6,12.8189C6,10.5144 7.6993,9.0957 10.2777,9.0957L15.5602,9.0957L15.5602,7.821C15.5602,7.3313 15.8927,7 16.4098,7C16.6315,7 16.8605,7.0864 17.023,7.2233L19.9339,9.5926C20.3403,9.9311 20.3477,10.4856 19.9339,10.8169L17.023,13.1718C16.8605,13.3086 16.6315,13.3951 16.4098,13.3951C15.8927,13.3951 15.5602,13.071 15.5602,12.5741L15.5602,11.2634L10.1373,11.2634C8.9774,11.2634 8.2534,11.9331 8.2534,12.9918L8.2534,13.4599C8.2534,14.072 7.751,14.5617 7.123,14.5617C6.5024,14.5617 6,14.072 6,13.4599ZM13.4398,15.4331L13.4398,16.7366L18.8627,16.7366C20.0226,16.7366 20.7466,16.0597 20.7466,15.001L20.7466,14.5329C20.7466,13.9208 21.249,13.4311 21.8696,13.4311C22.4976,13.4311 23,13.9208 23,14.5329L23,15.1739C23,17.4784 21.3007,18.9043 18.7223,18.9043L13.4398,18.9043L13.4398,20.179C13.4398,20.6759 13.1073,21 12.5902,21C12.3685,21 12.1395,20.9208 11.977,20.784L9.0661,18.4146C8.6523,18.0689 8.6597,17.5216 9.0661,17.1903L11.977,14.8282C12.1395,14.6914 12.3685,14.6121 12.5902,14.6121C13.1073,14.6121 13.4398,14.9362 13.4398,15.4331Z"
        fill="currentColor" fill-rule="evenodd" id="path_0" />
</svg>