<svg width="28" height="28" viewBox="0 0 28 28" fill="currentColor" xmlns="http://www.w3.org/2000/svg">
    <path
        d="M20.2515 22.8467C20.6748 22.5313 20.7578 22 20.5254 21.311L18.8403 16.3057L23.1401 13.2261C23.7378 12.8027 23.9868 12.3213 23.8208 11.8149C23.6465 11.3169 23.1733 11.0679 22.4346 11.0762L17.1719 11.1177L15.5615 6.0791C15.3374 5.3735 14.9722 5 14.4409 5C13.9097 5 13.5361 5.3735 13.312 6.0791L11.71 11.1177L6.43073 11.0762C5.70853 11.0679 5.22713 11.3169 5.05273 11.8149C4.87843 12.3213 5.14413 12.8027 5.73343 13.2261L10.0332 16.3057L8.34823 21.311C8.11573 22 8.19873 22.5313 8.62213 22.8467C9.05373 23.1787 9.57673 23.0708 10.1743 22.6392L14.4409 19.5098L18.6992 22.6392C19.2969 23.0708 19.8198 23.1787 20.2515 22.8467Z"
         />
</svg>