<svg id="vector" xmlns="http://www.w3.org/2000/svg" width="28" height="28" viewBox="0 0 28 28">
    <path 
        d="M22,0C25.3137,-0 28,2.6863 28,6L28,22C28,25.3137 25.3137,28 22,28L6,28C2.6863,28 0,25.3137 0,22L0,6C-0,2.6863 2.6863,0 6,0L22,0ZM19.4466,8C18.9665,8 18.6578,8.3034 18.6578,8.7585L18.6578,8.7585L18.6578,9.9985L17.1075,9.9985C15.7698,9.9985 14.7409,10.348 13.8422,11.3638L13.8422,11.3638L12.4017,12.9929L10.968,11.3638C10.0556,10.3415 9.0198,9.9985 7.7027,9.9985L7.7027,9.9985L6.029,9.9985C5.4596,9.9985 5,10.4404 5,10.9878C5,11.5287 5.4596,11.9706 6.029,11.9706L6.029,11.9706L7.6479,11.9706C8.5259,11.9706 9.0198,12.1553 9.5823,12.7884L9.5823,12.7884L11.0777,14.4901L9.5823,16.1852C9.0198,16.825 8.5259,17.0096 7.6479,17.0096L7.6479,17.0096L6.029,17.0096C5.4596,17.0096 5,17.445 5,17.9924C5,18.5398 5.4596,18.9751 6.029,18.9751L6.029,18.9751L7.7027,18.9751C9.0198,18.9751 10.0556,18.6388 10.968,17.6164L10.968,17.6164L12.4017,15.9873L13.8422,17.6164C14.7409,18.6322 15.7698,18.9817 17.1075,18.9817L17.1075,18.9817L18.6578,18.9817L18.6578,20.2481C18.6578,20.7032 18.9665,21 19.4466,21C19.6524,21 19.8582,20.9209 20.016,20.7955L20.016,20.7955L22.7119,18.6388C23.096,18.3288 23.096,17.8275 22.7119,17.5175L22.7119,17.5175L20.016,15.3475C19.8582,15.2222 19.6524,15.1431 19.4466,15.1431C18.9665,15.1431 18.6578,15.4465 18.6578,15.9016L18.6578,15.9016L18.6578,17.0096L17.1692,17.0096C16.2774,17.0096 15.7904,16.8184 15.2348,16.1852L15.2348,16.1852L13.7325,14.4901L15.2348,12.7884C15.7904,12.1553 16.2774,11.9706 17.1692,11.9706L17.1692,11.9706L18.6578,11.9706L18.6578,13.105C18.6578,13.5601 18.9665,13.8569 19.4466,13.8569C19.6524,13.8569 19.8582,13.7844 20.016,13.6525L20.016,13.6525L22.7119,11.4957C23.096,11.1857 23.096,10.6844 22.7119,10.3744L22.7119,10.3744L20.016,8.2045C19.8582,8.0791 19.6524,8 19.4466,8Z"
        fill="currentColor" fill-rule="nonzero" />
</svg>