<svg id="vector" xmlns="http://www.w3.org/2000/svg" width="40" height="34" viewBox="0 0 40 34">
    <path 
        d="M20,32C27.6588,32 34,25.7956 34,18.302C34,11.6947 29.0725,6.0947 22.649,4.8592L22.649,2.9522C22.649,1.9987 21.9765,1.7435 21.2353,2.2673L16.8569,5.262C16.2255,5.6918 16.2118,6.3364 16.8569,6.7796L21.2216,9.7877C21.9765,10.3249 22.649,10.0698 22.649,9.1028L22.649,7.1959C27.8373,8.3508 31.6529,12.8631 31.6529,18.302C31.6529,24.6407 26.4784,29.717 20,29.717C13.5216,29.717 8.3196,24.6407 8.3333,18.302C8.3471,14.488 10.2412,11.1173 13.1647,9.076C13.7275,8.6597 13.9059,8.0285 13.5627,7.4645C13.2196,6.9139 12.4647,6.7661 11.8608,7.2227C8.3333,9.734 6,13.7897 6,18.302C6,25.7956 12.3549,32 20,32ZM15.7314,23.9558C17.8863,23.9558 19.4235,22.68 19.4235,20.867C19.4235,19.6181 18.5725,18.584 17.3647,18.3691C18.3392,18.1006 19.0804,17.1068 19.0804,15.9787C19.0804,14.3672 17.7353,13.2391 15.8137,13.2391C14.1529,13.2391 12.7667,14.1523 12.4784,15.455C12.4373,15.6161 12.4235,15.7504 12.4235,15.8981C12.4235,16.3816 12.7392,16.7173 13.2059,16.7173C13.6039,16.7173 13.851,16.5159 14.002,16.0861C14.2902,15.2401 14.8667,14.7969 15.7725,14.7969C16.7333,14.7969 17.3922,15.361 17.3922,16.1801C17.3922,17.0396 16.7333,17.6708 15.7588,17.6708L15.1686,17.6708C14.7157,17.6708 14.4137,17.9797 14.4137,18.4497C14.4137,18.8929 14.7294,19.2286 15.1686,19.2286L15.8275,19.2286C16.9804,19.2286 17.7078,19.8598 17.7078,20.7999C17.7078,21.7131 16.8843,22.4114 15.7451,22.4114C14.7843,22.4114 14.098,21.9414 13.7961,21.1087C13.6314,20.6656 13.3843,20.4776 13.0137,20.4776C12.5471,20.4776 12.2176,20.8267 12.2176,21.2968C12.2176,21.4445 12.2314,21.5922 12.2725,21.7399C12.5745,23.0023 14.0569,23.9558 15.7314,23.9558ZM24.5843,23.9558C26.8627,23.9558 28.3588,21.8474 28.3588,18.6243C28.3588,15.3744 26.8627,13.2391 24.5843,13.2391C22.2922,13.2391 20.8098,15.361 20.8098,18.6243C20.8098,21.8474 22.3059,23.9558 24.5843,23.9558ZM24.5843,22.3308C23.3765,22.3308 22.5941,20.9207 22.5941,18.6243C22.5941,16.2876 23.3627,14.8641 24.5843,14.8641C25.8059,14.8641 26.5608,16.2742 26.5608,18.6243C26.5608,20.9207 25.7922,22.3308 24.5843,22.3308Z"
        fill="currentColor" fill-rule="nonzero" id="path_0" />
</svg>