<svg id="vector" xmlns="http://www.w3.org/2000/svg" width="28" height="28" viewBox="0 0 28 28">
    <path 
        d="M5,17.9924C5,17.445 5.4596,17.0096 6.029,17.0096L7.6479,17.0096C8.5259,17.0096 9.0198,16.825 9.5823,16.1852L11.0777,14.4901L9.5823,12.7884C9.0198,12.1553 8.5259,11.9706 7.6479,11.9706L6.029,11.9706C5.4596,11.9706 5,11.5287 5,10.9878C5,10.4404 5.4596,9.9985 6.029,9.9985L7.7027,9.9985C9.0198,9.9985 10.0556,10.3415 10.968,11.3638L12.4017,12.9929L13.8422,11.3638C14.7409,10.348 15.7698,9.9985 17.1075,9.9985L18.6578,9.9985L18.6578,8.7585C18.6578,8.3034 18.9665,8 19.4466,8C19.6524,8 19.8582,8.0791 20.016,8.2045L22.7119,10.3744C23.096,10.6844 23.096,11.1857 22.7119,11.4957L20.016,13.6525C19.8582,13.7844 19.6524,13.8569 19.4466,13.8569C18.9665,13.8569 18.6578,13.5601 18.6578,13.105L18.6578,11.9706L17.1692,11.9706C16.2774,11.9706 15.7904,12.1553 15.2348,12.7884L13.7325,14.4901L15.2348,16.1852C15.7904,16.8184 16.2774,17.0096 17.1692,17.0096L18.6578,17.0096L18.6578,15.9016C18.6578,15.4465 18.9665,15.1431 19.4466,15.1431C19.6524,15.1431 19.8582,15.2222 20.016,15.3475L22.7119,17.5175C23.096,17.8275 23.096,18.3288 22.7119,18.6388L20.016,20.7955C19.8582,20.9209 19.6524,21 19.4466,21C18.9665,21 18.6578,20.7032 18.6578,20.2481L18.6578,18.9817L17.1075,18.9817C15.7698,18.9817 14.7409,18.6322 13.8422,17.6164L12.4017,15.9873L10.968,17.6164C10.0556,18.6388 9.0198,18.9751 7.7027,18.9751L6.029,18.9751C5.4596,18.9751 5,18.5398 5,17.9924Z"
        fill="currentColor" fill-rule="evenodd" id="path_0" />
</svg>