<svg width="28" height="28" viewBox="0 0 28 28" fill="currentColor" xmlns="http://www.w3.org/2000/svg">
    <g clip-path="url(#clip0_103_884)">
        <path fill-rule="evenodd" clip-rule="evenodd"
            d="M0.07387 5.06139C0 5.52779 0 6.08519 0 7.2V20.8C0 21.9148 0 22.4722 0.07387 22.9386C0.480499 25.506 2.49404 27.5195 5.06139 27.9261C5.52779 28 6.08519 28 7.2 28H20.8C21.9148 28 22.4722 28 22.9386 27.9261C25.506 27.5195 27.5195 25.506 27.9261 22.9386C28 22.4722 28 21.9148 28 20.8V7.2C28 6.08519 28 5.52779 27.9261 5.06139C27.5195 2.49404 25.506 0.480499 22.9386 0.07387C22.4722 0 21.9148 0 20.8 0H7.2C6.08519 0 5.52779 0 5.06139 0.07387C2.49404 0.480499 0.480499 2.49404 0.07387 5.06139ZM11.8446 6.38595C12.445 6.63899 12.9891 7.00884 13.4453 7.47402L14.1368 8.17118L14.818 7.48202C15.2769 7.01819 15.8235 6.65029 16.426 6.39973C17.0285 6.14917 17.6748 6.02095 18.3274 6.02255C18.9799 6.02414 19.6256 6.15552 20.2268 6.40902C20.8281 6.66252 21.3729 7.03309 21.8296 7.49916C22.5145 8.19154 22.9845 9.06733 23.1829 10.0209C23.3812 10.9744 23.2994 11.9649 22.9473 12.873C22.8719 12.8627 22.7953 12.857 22.7165 12.857H19.7815L18.2912 11.1564C18.115 10.9553 17.8942 10.7982 17.6464 10.6976C17.3987 10.597 17.1308 10.5558 16.8643 10.5773C16.5978 10.5987 16.3399 10.6822 16.1114 10.821C15.8829 10.9599 15.6901 11.1503 15.5483 11.377L14.4511 13.1336L12.8705 9.34035C12.7407 9.02892 12.5219 8.7627 12.2415 8.57504C11.9611 8.38739 11.6316 8.28664 11.2942 8.28542C10.9568 8.2842 10.6266 8.38256 10.3449 8.56818C10.0631 8.75381 9.84241 9.01844 9.71039 9.32892L8.21092 12.857H5.57313C5.50342 12.857 5.43484 12.8616 5.36856 12.8696C4.99994 11.9608 4.90525 10.964 5.09614 10.002C5.28703 9.04004 5.75516 8.15493 6.44287 7.45573C6.90151 6.99295 7.44756 6.62594 8.04928 6.37604C8.651 6.12613 9.29639 5.99832 9.94794 6.00002C10.5995 6.00172 11.2442 6.1329 11.8446 6.38595ZM8.20063 16.2857L13.6351 21.775C13.7054 21.8462 13.7893 21.9028 13.8817 21.9414C13.9741 21.98 14.0732 21.9999 14.1734 21.9999C14.2735 21.9999 14.3727 21.98 14.4651 21.9414C14.5575 21.9028 14.6413 21.8462 14.7117 21.775L20.1495 16.2857H19.0021C18.7579 16.2856 18.5166 16.2333 18.2943 16.1324C18.0719 16.0315 17.8737 15.8842 17.7129 15.7005L17.2329 15.1519L15.5986 17.7657C15.4318 18.0323 15.1949 18.2479 14.9138 18.3889C14.6328 18.5298 14.3183 18.5908 14.005 18.5651C13.6916 18.5394 13.3913 18.4279 13.137 18.243C12.8827 18.0581 12.6841 17.8068 12.563 17.5166L11.2716 14.4194L10.9219 15.2422C10.7903 15.5517 10.5706 15.8156 10.2902 16.0011C10.0097 16.1866 9.68092 16.2856 9.34467 16.2857H8.20063ZM11.6061 9.52479C11.6996 9.5875 11.7725 9.67641 11.8156 9.78036L14.2465 15.616L16.5174 11.9827C16.5646 11.9069 16.6289 11.8432 16.7051 11.7967C16.7814 11.7502 16.8674 11.7222 16.9564 11.715C17.0455 11.7077 17.1349 11.7215 17.2177 11.7551C17.3004 11.7887 17.3741 11.8412 17.4329 11.9084L19.2615 13.9999H22.7165C22.868 13.9999 23.0134 14.0601 23.1205 14.1673C23.2277 14.2744 23.2879 14.4198 23.2879 14.5714C23.2879 14.7229 23.2277 14.8683 23.1205 14.9754C23.0134 15.0826 22.868 15.1428 22.7165 15.1428H19.0021C18.9207 15.1427 18.8402 15.1252 18.7661 15.0915C18.692 15.0578 18.6259 15.0087 18.5723 14.9474L17.0786 13.241L14.6294 17.16C14.5738 17.249 14.4948 17.3211 14.401 17.3682C14.3072 17.4153 14.2023 17.4356 14.0976 17.427C13.993 17.4184 13.8928 17.3811 13.808 17.3193C13.7232 17.2575 13.657 17.1735 13.6168 17.0766L11.2819 11.473L9.87039 14.7954C9.82647 14.8984 9.75322 14.9863 9.65975 15.0481C9.56628 15.1099 9.45671 15.1428 9.34467 15.1428H5.57313C5.42158 15.1428 5.27623 15.0826 5.16906 14.9754C5.06189 14.8683 5.00169 14.7229 5.00169 14.5714C5.00169 14.4198 5.06189 14.2744 5.16906 14.1673C5.27623 14.0601 5.42158 13.9999 5.57313 13.9999H8.96751L10.7618 9.77579C10.8059 9.67221 10.8795 9.58394 10.9735 9.52205C11.0675 9.46015 11.1777 9.4274 11.2902 9.42788C11.4028 9.42837 11.5127 9.46208 11.6061 9.52479Z"
             />
    </g>
    <defs>
        <clipPath id="clip0_103_884">
            <rect width="28" height="28"  />
        </clipPath>
    </defs>
</svg>