<svg width="28" height="28" viewBox="0 0 28 28" fill="currentColor" xmlns="http://www.w3.org/2000/svg">
    <path
        d="M13.3006 7.47411C12.8444 7.00894 12.3002 6.63908 11.6998 6.38604C11.0994 6.13299 10.4547 6.00181 9.80316 6.00011C9.15161 5.99841 8.50622 6.12622 7.9045 6.37613C7.30278 6.62603 6.75674 6.99304 6.29809 7.45582C5.61039 8.15502 5.14225 9.04013 4.95136 10.0021C4.76047 10.9641 4.85517 11.9609 5.22378 12.8697C5.29007 12.8617 5.35864 12.8571 5.42836 12.8571H8.06614L9.56561 9.32902C9.69763 9.01853 9.91834 8.7539 10.2001 8.56827C10.4818 8.38265 10.8121 8.28429 11.1495 8.28551C11.4868 8.28673 11.8164 8.38748 12.0968 8.57513C12.3771 8.76279 12.5959 9.02901 12.7257 9.34044L14.3063 13.1337L15.4035 11.3771C15.5453 11.1504 15.7381 10.96 15.9667 10.8211C16.1952 10.6823 16.453 10.5988 16.7195 10.5773C16.986 10.5559 17.2539 10.5971 17.5017 10.6977C17.7494 10.7982 17.9702 10.9554 18.1464 11.1565L19.6367 12.8571H22.5717C22.6505 12.8571 22.7271 12.8628 22.8026 12.8731C23.1546 11.965 23.2364 10.9745 23.0381 10.0209C22.8397 9.06742 22.3698 8.19164 21.6848 7.49925C21.2281 7.03319 20.6833 6.66262 20.082 6.40911C19.4808 6.15561 18.8351 6.02424 18.1826 6.02264C17.5301 6.02105 16.8838 6.14926 16.2813 6.39982C15.6788 6.65038 15.1321 7.01828 14.6732 7.48211L13.992 8.17127L13.3006 7.47411ZM13.4903 21.7751L8.05586 16.2858H9.19989C9.53614 16.2857 9.86494 16.1867 10.1454 16.0012C10.4258 15.8157 10.6455 15.5518 10.7771 15.2423L11.1268 14.4194L12.4183 17.5167C12.5393 17.8069 12.7379 18.0582 12.9922 18.2431C13.2465 18.428 13.5468 18.5395 13.8602 18.5652C14.1736 18.5909 14.488 18.5299 14.7691 18.3889C15.0501 18.248 15.287 18.0324 15.4538 17.7658L17.0881 15.152L17.5681 15.7006C17.7289 15.8843 17.9272 16.0316 18.1495 16.1325C18.3718 16.2334 18.6131 16.2857 18.8573 16.2858H20.0048L14.5669 21.7751C14.4965 21.8463 14.4127 21.9029 14.3203 21.9415C14.2279 21.9801 14.1287 22 14.0286 22C13.9284 22 13.8293 21.9801 13.7369 21.9415C13.6445 21.9029 13.5607 21.8463 13.4903 21.7751ZM11.6708 9.78046C11.6277 9.6765 11.5548 9.58759 11.4614 9.52488C11.3679 9.46218 11.258 9.42846 11.1455 9.42798C11.0329 9.42749 10.9227 9.46024 10.8287 9.52214C10.7347 9.58403 10.6611 9.6723 10.6171 9.77589L8.82274 14H5.42836C5.2768 14 5.13145 14.0602 5.02428 14.1674C4.91712 14.2745 4.85691 14.4199 4.85691 14.5714C4.85691 14.723 4.91712 14.8684 5.02428 14.9755C5.13145 15.0827 5.2768 15.1429 5.42836 15.1429H9.19989C9.31193 15.1429 9.4215 15.11 9.51497 15.0482C9.60845 14.9864 9.6817 14.8985 9.72562 14.7955L11.1371 11.4731L13.472 17.0767C13.5122 17.1736 13.5784 17.2576 13.6632 17.3194C13.7481 17.3812 13.8483 17.4185 13.9529 17.4271C14.0575 17.4357 14.1624 17.4154 14.2562 17.3683C14.35 17.3212 14.429 17.2491 14.4846 17.1601L16.9338 13.2411L18.4276 14.9475C18.4811 15.0088 18.5472 15.0579 18.6213 15.0916C18.6954 15.1253 18.7759 15.1428 18.8573 15.1429H22.5717C22.7232 15.1429 22.8686 15.0827 22.9758 14.9755C23.0829 14.8684 23.1431 14.723 23.1431 14.5714C23.1431 14.4199 23.0829 14.2745 22.9758 14.1674C22.8686 14.0602 22.7232 14 22.5717 14H19.1167L17.2881 11.9085C17.2293 11.8413 17.1556 11.7888 17.0729 11.7552C16.9901 11.7216 16.9007 11.7078 16.8117 11.7151C16.7227 11.7223 16.6366 11.7503 16.5603 11.7968C16.4841 11.8433 16.4198 11.907 16.3727 11.9828L14.1017 15.616L11.6708 9.78046Z"
         />
</svg>