<svg width="12" height="17" viewBox="0 0 12 17" fill="none" xmlns="http://www.w3.org/2000/svg">
<path d="M2.54395 12.416H5.04004C5.11035 12.416 5.17188 12.4336 5.2334 12.4863L9.08301 15.9316C9.54004 16.3447 9.8916 16.5381 10.3574 16.5381C11.0166 16.5381 11.5088 16.0459 11.5088 15.3955V1.97461C11.5088 1.31543 11.0166 0.788086 10.3486 0.788086C9.8916 0.788086 9.5752 0.990234 9.08301 1.43848L5.2334 4.85742C5.17188 4.91016 5.11035 4.92773 5.04004 4.92773H2.54395C1.25195 4.92773 0.583984 5.61328 0.583984 6.98438V10.3594C0.583984 11.7393 1.25195 12.416 2.54395 12.416ZM2.70215 10.8428C2.41211 10.8428 2.27148 10.7021 2.27148 10.4121V6.94043C2.27148 6.6416 2.41211 6.50098 2.70215 6.50098H5.44434C5.68164 6.50098 5.85742 6.45703 6.06836 6.27246L9.55762 3.08203C9.60156 3.04688 9.64551 3.02051 9.70703 3.02051C9.76855 3.02051 9.82129 3.06445 9.82129 3.14355V14.1738C9.82129 14.2617 9.76855 14.3057 9.70703 14.3057C9.6543 14.3057 9.61035 14.2881 9.56641 14.2441L6.06836 11.0713C5.86621 10.8867 5.68164 10.8428 5.44434 10.8428H2.70215Z" fill="white"/>
</svg>
