<svg width="12" height="17" viewBox="0 0 12 17" fill="none" xmlns="http://www.w3.org/2000/svg">
<g clip-path="url(#clip0_1_2)">
<path d="M2.54395 12.416H5.04004C5.11035 12.416 5.17188 12.4336 5.2334 12.4863L9.08301 15.9316C9.54004 16.3447 9.8916 16.5381 10.3574 16.5381C11.0166 16.5381 11.5088 16.0459 11.5088 15.3955V1.97461C11.5088 1.31543 11.0166 0.788086 10.3486 0.788086C9.8916 0.788086 9.5752 0.990234 9.08301 1.43848L5.2334 4.85742C5.17188 4.91016 5.11035 4.92773 5.04004 4.92773H2.54395C1.25195 4.92773 0.583984 5.61328 0.583984 6.98438V10.3594C0.583984 11.7393 1.25195 12.416 2.54395 12.416Z" fill="white"/>
</g>
<defs>
<clipPath id="clip0_1_2">
<rect width="12" height="17" fill="white"/>
</clipPath>
</defs>
</svg>
