<svg id="vector" xmlns="http://www.w3.org/2000/svg" width="28" height="28" viewBox="0 0 28 28">
    <path 
        d="M22.8,18.5c0.7,0 1.2,0.5 1.2,1.2c0,0.7 -0.5,1.2 -1.2,1.2H10.1c-0.7,0 -1.2,-0.5 -1.2,-1.2c0,-0.7 0.5,-1.2 1.2,-1.2H22.8zM5.5,21.2c-0.9,0 -1.5,-0.7 -1.5,-1.5c0,-0.8 0.7,-1.5 1.5,-1.5c0.8,0 1.5,0.7 1.5,1.5C7,20.5 6.4,21.2 5.5,21.2zM22.8,12.4c0.7,0 1.2,0.5 1.2,1.2c0,0.7 -0.5,1.2 -1.2,1.2H10.1c-0.7,0 -1.2,-0.5 -1.2,-1.2c0,-0.7 0.5,-1.2 1.2,-1.2H22.8zM5.5,15.1c-0.8,0 -1.5,-0.7 -1.5,-1.5c0,-0.9 0.7,-1.5 1.5,-1.5c0.8,0 1.5,0.7 1.5,1.5C7,14.4 6.4,15.1 5.5,15.1zM22.8,6.3c0.7,0 1.2,0.5 1.2,1.2c0,0.7 -0.5,1.2 -1.2,1.2H10.1c-0.7,0 -1.2,-0.5 -1.2,-1.2c0,-0.7 0.5,-1.2 1.2,-1.2H22.8zM5.5,9C4.7,9 4,8.3 4,7.5C4,6.7 4.7,6 5.5,6C6.4,6 7,6.7 7,7.5C7,8.3 6.4,9 5.5,9z"
        id="path_0" />
</svg>