<svg id="vector" xmlns="http://www.w3.org/2000/svg" width="28" height="28" viewBox="0 0 28 28">
    <path fill="currentColor"
        d="M14.4,12.2c0,-1.1 0.8,-1.9 2,-1.9c1.3,0 2.1,1 2.1,2.4c0,2 -1.7,3.2 -2.7,3.2c-0.3,0 -0.5,-0.2 -0.5,-0.4c0,-0.2 0.1,-0.4 0.4,-0.4c0.8,-0.2 1.4,-0.7 1.7,-1.4h-0.2c-0.2,0.3 -0.6,0.4 -1.1,0.4C15.1,14 14.4,13.2 14.4,12.2zM9.5,12.2c0,-1.1 0.8,-1.9 2,-1.9c1.3,0 2.1,1 2.1,2.4c0,2 -1.7,3.2 -2.7,3.2c-0.3,0 -0.5,-0.2 -0.5,-0.4c0,-0.2 0.1,-0.4 0.4,-0.4c0.8,-0.2 1.5,-0.7 1.7,-1.4h-0.2c-0.2,0.3 -0.6,0.4 -1.1,0.4C10.2,14 9.5,13.2 9.5,12.2zM10.4,21.4l2.8,-2.7c0.6,-0.6 0.9,-0.7 1.6,-0.7h4.6c1.3,0 2.1,-0.8 2.1,-2.1V9.4c0,-1.4 -0.8,-2.1 -2.1,-2.1H8.5C7.2,7.3 6.4,8 6.4,9.4v6.5c0,1.3 0.8,2.1 2.1,2.1h1c0.6,0 0.9,0.3 0.9,0.9V21.4zM9.9,24c-0.9,0 -1.5,-0.6 -1.5,-1.6v-2H7.9C5.4,20.3 4,19 4,16.5V9c0,-2.5 1.5,-4 4.1,-4h11.8C22.5,5 24,6.4 24,9v7.6c0,2.5 -1.5,3.8 -4.1,3.8h-5.1l-3.1,2.7C11,23.7 10.5,24 9.9,24z"
        id="path_0" />
</svg>