<svg width="28" height="28" viewBox="0 0 28 28" fill="currentColor" xmlns="http://www.w3.org/2000/svg">
    <path
        d="M9.20852 14.311C11.834 14.311 14.0327 12.1123 14.0327 9.4775C14.0327 6.8335 11.8525 4.644 9.20852 4.644C6.55522 4.644 4.37502 6.8335 4.37502 9.4775C4.37502 12.1309 6.55522 14.311 9.20852 14.311ZM22.9761 7.9097C23.4956 7.9097 23.9131 7.5015 23.9131 6.9819C23.9131 6.4717 23.4956 6.0635 22.9761 6.0635H16.2314C15.7212 6.0635 15.313 6.4717 15.313 6.9819C15.313 7.5015 15.7212 7.9097 16.2314 7.9097H22.9761ZM9.20852 12.6504C8.82812 12.6504 8.49412 12.3535 8.49412 11.9546V10.1641H6.80572C6.43462 10.1641 6.11912 9.8486 6.10992 9.4775C6.10992 9.0972 6.43462 8.7817 6.80572 8.7817H8.49412V6.9912C8.49412 6.5923 8.82812 6.314 9.20852 6.314C9.59812 6.314 9.92292 6.5923 9.92292 6.9912V8.7817H11.6113C11.9824 8.7817 12.2979 9.0972 12.2979 9.4775C12.2979 9.8486 11.9824 10.1641 11.6113 10.1641H9.92292V11.9546C9.92292 12.3535 9.58892 12.6504 9.20852 12.6504ZM22.9761 12.7617C23.4956 12.7617 23.9131 12.3535 23.9131 11.8433C23.9131 11.3237 23.4956 10.9155 22.9761 10.9155H16.2314C15.7212 10.9155 15.313 11.3237 15.313 11.8433C15.313 12.3535 15.7212 12.7617 16.2314 12.7617H22.9761ZM22.9761 17.623C23.4956 17.623 23.9131 17.2148 23.9131 16.7046C23.9131 16.1851 23.4956 15.7769 22.9761 15.7769H5.28422C4.77392 15.7769 4.36572 16.1851 4.36572 16.7046C4.36572 17.2148 4.77392 17.623 5.28422 17.623H22.9761ZM22.9761 22.4844C23.4956 22.4844 23.9131 22.0762 23.9131 21.5566C23.9131 21.0464 23.4956 20.6382 22.9761 20.6382H5.28422C4.77392 20.6382 4.36572 21.0464 4.36572 21.5566C4.36572 22.0762 4.77392 22.4844 5.28422 22.4844H22.9761Z"
         />
</svg>