<svg id="vector" xmlns="http://www.w3.org/2000/svg" width="28" height="28" viewBox="0 0 28 28">
    <path 
        d="M6,0L22,0C25.3137,-0 28,2.6863 28,6L28,22C28,25.3137 25.3137,28 22,28L6,28C2.6863,28 0,25.3137 0,22L0,6C-0,2.6863 2.6863,0 6,0ZM9.5581,24C9.9807,24 10.3206,23.8261 10.8351,23.3685L14.3353,20.275L20.2333,20.275C22.6679,20.275 24,19.0395 24,16.7331L24,8.6517C24,6.3271 22.6679,5 20.2333,5L7.7758,5C5.3872,5 4.0092,6.3271 4.0092,8.6517L4,16.7331C4,18.9846 5.3229,20.275 7.5921,20.275L8.5659,20.275L8.5659,22.9109C8.5659,23.579 8.9426,24 9.5581,24ZM9.0528,12.0838C9.0528,10.8849 9.9348,10.0337 11.1475,10.0337C12.5255,10.0337 13.3891,11.1411 13.3891,12.5506C13.3891,14.6556 11.6068,15.9918 10.4952,15.9918C10.192,15.9918 9.9623,15.8088 9.9623,15.5342C9.9623,15.2962 10.1001,15.1407 10.3941,15.0674C11.2485,14.8661 11.9375,14.3078 12.1764,13.6305L12.011,13.6305C11.7354,13.9417 11.3312,14.0698 10.8443,14.0698C9.7786,14.0698 9.0528,13.2278 9.0528,12.0838ZM14.2343,12.0838C14.2343,10.8849 15.1254,10.0337 16.3197,10.0337C17.7161,10.0337 18.5705,11.1411 18.5705,12.5506C18.5705,14.6556 16.7791,15.9918 15.6674,15.9918C15.3826,15.9918 15.1438,15.8088 15.1438,15.5342C15.1438,15.2962 15.2816,15.1407 15.5756,15.0674C16.4391,14.8661 17.119,14.3078 17.3578,13.6305L17.1833,13.6305C16.926,13.9417 16.5126,14.0698 16.0257,14.0698C14.9692,14.0698 14.2343,13.2278 14.2343,12.0838Z"
        fill="currentColor" fill-rule="evenodd" id="path_0" />
</svg>