<svg id="vector" xmlns="http://www.w3.org/2000/svg" width="38" height="38" viewBox="0 0 38 38">
    <path 
        d="M8.7384,36C6.3594,36 5,34.5857 5,32.4261L5,5.593C5,3.4143 6.3594,2 8.7384,2L12.911,2C15.2711,2 16.6305,3.4143 16.6305,5.593L16.6305,32.4261C16.6305,34.6048 15.2711,36 12.911,36L8.7384,36ZM25.089,36C22.7289,36 21.3695,34.6048 21.3695,32.4261L21.3695,5.593C21.3695,3.4143 22.7289,2 25.089,2L29.2616,2C31.6406,2 33,3.4143 33,5.593L33,32.4261C33,34.5857 31.6406,36 29.2616,36L25.089,36Z"
        fill="currentColor" stroke-width="1" fill-rule="nonzero" id="path_0" />
</svg>