<svg xmlns="http://www.w3.org/2000/svg" width="40" height="40" viewBox="0 0 64 64" fill="currentColor">
    <path
        d="M27.2646 43.4883C26.5029 43.4883 25.9062 43.1836 25.1826 42.498L20.0283 37.6738C19.9648 37.6104 19.876 37.585 19.7871 37.585H16.2578C14.1631 37.585 13.0205 36.4043 13.0205 34.208V29.5107C13.0205 27.3145 14.1631 26.1211 16.2578 26.1211H19.7871C19.8887 26.1211 19.9648 26.083 20.041 26.0195L25.1826 21.2334C25.957 20.4971 26.5156 20.2051 27.252 20.2051C28.4072 20.2051 29.2578 21.1064 29.2578 22.2363V41.4951C29.2578 42.625 28.4072 43.4883 27.2646 43.4883Z"
         class="speaker-bounce-1" />
    <path
        d="M33.752 37.8645C32.9649 37.3694 32.7998 36.4299 33.4346 35.3762C34.0694 34.3986 34.4375 33.1418 34.4375 31.8342C34.4375 30.5139 34.082 29.257 33.4346 28.2922C32.7871 27.2512 32.9649 26.299 33.752 25.8039C34.4756 25.3469 35.377 25.5246 35.8467 26.1721C36.9385 27.6955 37.586 29.7141 37.586 31.8342C37.586 33.9543 36.9385 35.9729 35.8467 37.4836C35.377 38.1438 34.4756 38.3088 33.752 37.8645Z"
         class="speaker-bounce-2" />
    <path
        d="M39.4775 41.3937C38.6523 40.9113 38.5508 39.9084 39.1093 39.007C40.4043 37.0011 41.1533 34.4748 41.1533 31.8342C41.1533 29.1935 40.417 26.6545 39.1093 24.6613C38.5508 23.7599 38.6523 22.757 39.4775 22.2619C40.2265 21.8302 41.1406 22.008 41.623 22.7443C43.3369 25.2453 44.3017 28.4826 44.3017 31.8342C44.3017 35.1857 43.3242 38.3976 41.623 40.924C41.1406 41.6603 40.2265 41.8381 39.4775 41.3937Z"
         class="speaker-bounce-3" />
    <path
        d="M45.1778 44.9611C44.378 44.4787 44.251 43.4884 44.7969 42.5998C46.7012 39.5656 47.8565 35.8712 47.8565 31.8595C47.8565 27.8351 46.7012 24.1408 44.7969 21.1066C44.251 20.2179 44.378 19.2277 45.1778 18.7453C45.9395 18.2882 46.8916 18.5041 47.374 19.2912C49.6211 22.8585 50.9922 27.1623 50.9922 31.8595C50.9922 36.5441 49.6465 40.8605 47.374 44.4279C46.8916 45.2023 45.9395 45.4181 45.1778 44.9611Z"
         class="speaker-bounce-4" />
</svg>