<svg id="vector" xmlns="http://www.w3.org/2000/svg" width="24" height="24" viewBox="0 0 24 24">
    <path 
        d="M5.5161,14.1665C5.8687,14.1665 6.1856,14.083 6.467,13.916C6.7485,13.749 6.9742,13.5264 7.1443,13.248C7.3144,12.9697 7.3994,12.6574 7.3994,12.311C7.3994,11.7977 7.217,11.3601 6.8521,10.9983C6.4871,10.6365 6.0418,10.4556 5.5161,10.4556C5.1759,10.4556 4.8652,10.5391 4.5837,10.7061C4.3023,10.873 4.0781,11.0972 3.9111,11.3787C3.7441,11.6601 3.6606,11.9709 3.6606,12.311C3.6606,12.6574 3.7441,12.9697 3.9111,13.248C4.0781,13.5264 4.3023,13.749 4.5837,13.916C4.8652,14.083 5.1759,14.1665 5.5161,14.1665ZM12.4092,14.1665C12.7555,14.1665 13.0679,14.083 13.3462,13.916C13.6245,13.749 13.8472,13.5264 14.0142,13.248C14.1812,12.9697 14.2646,12.6574 14.2646,12.311C14.2646,11.7977 14.0837,11.3601 13.7219,10.9983C13.3601,10.6365 12.9225,10.4556 12.4092,10.4556C12.069,10.4556 11.7582,10.5391 11.4768,10.7061C11.1954,10.873 10.9727,11.0972 10.8088,11.3787C10.6449,11.6601 10.563,11.9709 10.563,12.311C10.563,12.6574 10.6449,12.9697 10.8088,13.248C10.9727,13.5264 11.1954,13.749 11.4768,13.916C11.7582,14.083 12.069,14.1665 12.4092,14.1665ZM19.3022,14.1665C19.6424,14.1665 19.9532,14.083 20.2346,13.916C20.516,13.749 20.7402,13.5264 20.9072,13.248C21.0742,12.9697 21.1577,12.6574 21.1577,12.311C21.1577,11.7977 20.9768,11.3601 20.615,10.9983C20.2532,10.6365 19.8156,10.4556 19.3022,10.4556C18.9559,10.4556 18.6405,10.5391 18.356,10.7061C18.0715,10.873 17.8457,11.0972 17.6787,11.3787C17.5117,11.6601 17.4282,11.9709 17.4282,12.311C17.4282,12.6574 17.5117,12.9697 17.6787,13.248C17.8457,13.5264 18.0715,13.749 18.356,13.916C18.6405,14.083 18.9559,14.1665 19.3022,14.1665Z"
        fill="currentColor" fill-rule="nonzero" id="path_0" />
</svg>