<svg id="vector" xmlns="http://www.w3.org/2000/svg" width="28" height="28" viewBox="0 0 28 28">
    <path 
        d="M13.5,15.5v1.4h5.6c1.1,0 1.9,-0.7 1.9,-1.8v-0.5c0,-0.6 0.5,-1 1,-1c0.6,0 1,0.5 1,1v0.6c0,2.3 -1.7,3.7 -4.1,3.7h-5.4v1.4c0,0.5 -0.3,0.8 -0.8,0.8c-0.2,0 -0.4,-0.1 -0.6,-0.2l-2.9,-2.3c-0.4,-0.3 -0.4,-0.9 0,-1.2l2.9,-2.3c0.2,-0.1 0.4,-0.2 0.6,-0.2C13.1,14.7 13.5,15 13.5,15.5zM6,13.5v-0.6c0,-2.3 1.7,-3.7 4.1,-3.7h3.8V7.9c0,-0.5 0.3,-0.8 0.8,-0.8c0.2,0 0.4,0.1 0.6,0.2l2.9,2.3c0.4,0.3 0.4,0.9 0,1.2l-2.9,2.3c-0.2,0.1 -0.4,0.2 -0.6,0.2c-0.5,0 -0.8,-0.3 -0.8,-0.8v-1.4h-4c-1.1,0 -1.9,0.7 -1.9,1.8v0.5c0,0.6 -0.5,1 -1,1C6.5,14.5 6,14 6,13.5zM22,12.4c-0.5,0 -0.9,-0.3 -0.9,-0.9V8.7h0l-0.6,0.5c-0.2,0.1 -0.3,0.2 -0.5,0.2c-0.4,0 -0.6,-0.3 -0.6,-0.6c0,-0.3 0.1,-0.4 0.4,-0.6l0.9,-0.7C21,7.1 21.3,7 21.8,7c0.6,0 1.1,0.4 1.1,1v3.5C22.9,12.1 22.5,12.4 22,12.4z"
        id="path_0" />
</svg>