<svg width="28" height="28" viewBox="0 0 28 28" fill="currentColor" xmlns="http://www.w3.org/2000/svg">
    <g clip-path="url(#clip0_113_870)">
        <path fill-rule="evenodd" clip-rule="evenodd"
            d="M22 0.0635071C25.3137 0.0635071 28 2.74981 28 6.06351V22.0635C28 25.3772 25.3137 28.0635 22 28.0635H6C2.6863 28.0635 0 25.3772 0 22.0635V6.06351C0 2.74981 2.6863 0.0635071 6 0.0635071H22ZM12.9131 6.98191C12.9131 7.50151 12.4956 7.90971 11.9761 7.90971H5.23139C4.72119 7.90971 4.31299 7.50151 4.31299 6.98191C4.31299 6.47171 4.72119 6.06351 5.23139 6.06351H11.9761C12.4956 6.06351 12.9131 6.47171 12.9131 6.98191ZM12.9131 11.8433C12.9131 12.3535 12.4956 12.7617 11.9761 12.7617H5.23139C4.72119 12.7617 4.31299 12.3535 4.31299 11.8433C4.31299 11.3237 4.72119 10.9155 5.23139 10.9155H11.9761C12.4956 10.9155 12.9131 11.3237 12.9131 11.8433ZM23.9131 16.7046C23.9131 17.2148 23.4956 17.623 22.9761 17.623H5.28419C4.77389 17.623 4.36569 17.2148 4.36569 16.7046C4.36569 16.1851 4.77389 15.7769 5.28419 15.7769H22.9761C23.4956 15.7769 23.9131 16.1851 23.9131 16.7046ZM23.9131 21.5566C23.9131 22.0762 23.4956 22.4844 22.9761 22.4844H5.28419C4.77389 22.4844 4.36569 22.0762 4.36569 21.5566C4.36569 21.0464 4.77389 20.6382 5.28419 20.6382H22.9761C23.4956 20.6382 23.9131 21.0464 23.9131 21.5566ZM21.6718 6.82826C21.3008 6.45726 20.6993 6.45726 20.3283 6.82826C19.9573 7.19926 19.9573 7.80076 20.3283 8.17176L20.7065 8.55001H16C15.4754 8.55001 15.05 8.97534 15.05 9.50001C15.05 10.0247 15.4754 10.45 16 10.45H20.7065L20.3283 10.8283C19.9573 11.1993 19.9573 11.8008 20.3283 12.1718C20.6993 12.5428 21.3008 12.5428 21.6718 12.1718L23.6718 10.1718C24.0428 9.80076 24.0428 9.19926 23.6718 8.82826L21.6718 6.82826Z"
             />
    </g>
    <defs>
        <clipPath id="clip0_113_870">
            <rect width="28" height="28"  />
        </clipPath>
    </defs>
</svg>