<svg id="vector" xmlns="http://www.w3.org/2000/svg" width="36" height="36" viewBox="0 0 36 36">
    <path 
        d="M17.684,23.105C17.781,23.105 17.838,23.161 17.856,23.274C17.935,23.642 18.003,23.929 18.057,24.137C18.111,24.345 18.188,24.503 18.288,24.613C18.388,24.723 18.54,24.809 18.743,24.871C18.946,24.933 19.233,25.006 19.604,25.089C19.713,25.107 19.767,25.166 19.767,25.267C19.767,25.373 19.713,25.436 19.604,25.454C19.233,25.531 18.943,25.6 18.734,25.663C18.526,25.725 18.371,25.811 18.271,25.921C18.171,26.03 18.094,26.191 18.04,26.401C17.985,26.612 17.924,26.901 17.856,27.268C17.838,27.375 17.781,27.429 17.684,27.429C17.587,27.429 17.527,27.375 17.504,27.268C17.436,26.901 17.376,26.612 17.324,26.401C17.273,26.191 17.195,26.032 17.093,25.925C16.99,25.818 16.835,25.734 16.63,25.672C16.424,25.609 16.135,25.537 15.764,25.454C15.655,25.436 15.601,25.373 15.601,25.267C15.601,25.166 15.655,25.107 15.764,25.089C16.135,25.006 16.423,24.933 16.625,24.871C16.828,24.809 16.98,24.723 17.08,24.613C17.18,24.503 17.257,24.345 17.311,24.137C17.366,23.929 17.43,23.642 17.504,23.274C17.527,23.161 17.587,23.105 17.684,23.105ZM19.27,10.106L23.985,15.008C23.534,15.476 23.058,15.815 22.558,16.022C22.057,16.23 21.565,16.298 21.079,16.227L12.506,24.465C12.335,24.631 12.136,24.72 11.91,24.732C11.685,24.743 11.475,24.646 11.28,24.438L9.866,25.586C9.786,25.645 9.702,25.672 9.613,25.666C9.524,25.66 9.443,25.621 9.369,25.55L9.12,25.283C9.04,25.206 9,25.12 9,25.025C9,24.93 9.026,24.847 9.077,24.776L10.175,23.308C9.974,23.095 9.88,22.872 9.891,22.641C9.903,22.41 9.989,22.202 10.149,22.018L18.121,13.113C18.053,12.597 18.114,12.084 18.306,11.574C18.497,11.064 18.819,10.575 19.27,10.106ZM23.985,17.886C24.157,17.886 24.254,17.981 24.277,18.171C24.345,18.77 24.419,19.234 24.499,19.563C24.579,19.892 24.705,20.14 24.877,20.306C25.048,20.472 25.304,20.601 25.644,20.693C25.984,20.785 26.445,20.887 27.028,21C27.2,21.036 27.286,21.137 27.286,21.303C27.286,21.469 27.188,21.569 26.994,21.605C26.411,21.7 25.954,21.792 25.623,21.881C25.291,21.97 25.041,22.1 24.872,22.272C24.704,22.444 24.579,22.698 24.499,23.033C24.419,23.368 24.345,23.835 24.277,24.434C24.254,24.624 24.157,24.719 23.985,24.719C23.905,24.719 23.839,24.694 23.788,24.643C23.737,24.593 23.705,24.529 23.694,24.452C23.619,23.859 23.543,23.396 23.466,23.064C23.389,22.732 23.266,22.481 23.098,22.312C22.929,22.143 22.676,22.011 22.339,21.916C22.002,21.822 21.536,21.718 20.942,21.605C20.77,21.569 20.685,21.469 20.685,21.303C20.685,21.22 20.709,21.151 20.757,21.098C20.806,21.044 20.867,21.012 20.942,21C21.536,20.917 22.002,20.833 22.339,20.747C22.676,20.661 22.929,20.53 23.098,20.355C23.266,20.18 23.389,19.922 23.466,19.581C23.543,19.24 23.619,18.767 23.694,18.162C23.716,17.978 23.814,17.886 23.985,17.886ZM18.593,14.421L11.032,22.748L11.82,23.566L19.793,15.728C19.679,15.657 19.564,15.573 19.45,15.475C19.336,15.377 19.227,15.272 19.124,15.159C19.016,15.04 18.917,14.92 18.829,14.799C18.74,14.677 18.661,14.551 18.593,14.421ZM12.069,9.724C12.208,9.724 12.287,9.801 12.305,9.955C12.361,10.442 12.421,10.818 12.487,11.086C12.551,11.353 12.654,11.554 12.793,11.689C12.932,11.824 13.14,11.929 13.416,12.004C13.692,12.078 14.067,12.161 14.541,12.253C14.68,12.282 14.75,12.364 14.75,12.499C14.75,12.634 14.671,12.715 14.513,12.744C14.039,12.822 13.668,12.896 13.399,12.968C13.129,13.041 12.926,13.147 12.789,13.286C12.652,13.426 12.551,13.632 12.487,13.904C12.421,14.177 12.361,14.556 12.305,15.042C12.287,15.197 12.208,15.274 12.069,15.274C12.004,15.274 11.95,15.253 11.908,15.212C11.867,15.171 11.841,15.12 11.832,15.057C11.771,14.575 11.71,14.199 11.647,13.93C11.585,13.66 11.485,13.456 11.348,13.319C11.211,13.182 11.005,13.074 10.732,12.997C10.458,12.92 10.079,12.836 9.596,12.744C9.457,12.715 9.388,12.634 9.388,12.499C9.388,12.431 9.407,12.376 9.447,12.332C9.486,12.289 9.536,12.263 9.596,12.253C10.079,12.185 10.458,12.117 10.732,12.047C11.005,11.977 11.211,11.871 11.348,11.729C11.485,11.587 11.585,11.377 11.647,11.1C11.71,10.823 11.771,10.439 11.832,9.948C11.85,9.798 11.929,9.724 12.069,9.724ZM23.415,8.109C23.972,8.266 24.491,8.591 24.971,9.083C25.451,9.581 25.767,10.121 25.918,10.702C26.07,11.283 26.055,11.867 25.875,12.455C25.695,13.042 25.354,13.593 24.851,14.109L20.127,9.207C20.63,8.686 21.165,8.332 21.731,8.149C22.296,7.965 22.858,7.952 23.415,8.109Z"
        fill="currentColor" fill-rule="evenodd" id="path_0" />
</svg>