<svg width="28" height="28" viewBox="0 0 28 28" fill="currentColor" xmlns="http://www.w3.org/2000/svg">
<path d="M13.5869 17.3016L14.9316 15.9393C13.8945 15.8514 13.1475 15.5087 12.6113 14.9725C11.126 13.4872 11.126 11.3866 12.6025 9.91882L15.5205 6.99207C17.0059 5.5155 19.0977 5.50672 20.583 6.99207C22.0771 8.48621 22.0596 10.578 20.5918 12.0546L19.0977 13.5399C19.3789 14.1903 19.4756 14.9813 19.3174 15.6669L21.8311 13.162C23.9932 11.0087 24.002 7.9325 21.8223 5.75281C19.6338 3.56433 16.5752 3.58191 14.4131 5.74402L11.3545 8.80261C9.19238 10.9647 9.18359 14.0321 11.3633 16.2118C11.873 16.7303 12.5762 17.1171 13.5869 17.3016ZM14.4043 9.87488L13.0596 11.2372C14.0967 11.3339 14.8438 11.6678 15.3799 12.204C16.874 13.6893 16.8652 15.7899 15.3887 17.2665L12.4707 20.1845C10.9854 21.6698 8.89355 21.6698 7.41699 20.1845C5.92285 18.6903 5.93164 16.6073 7.4082 15.1307L8.89355 13.6366C8.6123 12.995 8.52441 12.204 8.67383 11.5096L6.16016 14.0233C3.99805 16.1766 3.98926 19.244 6.16895 21.4237C8.35742 23.6122 11.416 23.5946 13.5781 21.4413L16.6367 18.3739C18.7988 16.2118 18.8076 13.1444 16.6279 10.9647C16.1182 10.455 15.4238 10.0682 14.4043 9.87488Z" fill="currentColor"/>
</svg>
