<svg width="55" height="20" viewBox="0 0 55 20" fill="currentColor" xmlns="http://www.w3.org/2000/svg">
<g clip-path="url(#clip0_2_24)">
<path opacity="0.4" fill-rule="evenodd" clip-rule="evenodd" d="M7.08442 0H47.9156C50.379 0 51.2723 0.256492 52.1729 0.73813C53.0735 1.21977 53.7802 1.92655 54.2619 2.82714C54.7435 3.72772 55 4.62101 55 7.08442V12.9156C55 15.379 54.7435 16.2723 54.2619 17.1729C53.7802 18.0734 53.0735 18.7802 52.1729 19.2619C51.2723 19.7435 50.379 20 47.9156 20H7.08442C4.62101 20 3.72772 19.7435 2.82714 19.2619C1.92655 18.7802 1.21977 18.0734 0.73813 17.1729C0.256492 16.2723 0 15.379 0 12.9156V7.08442C0 4.62101 0.256492 3.72772 0.73813 2.82714C1.21977 1.92655 1.92655 1.21977 2.82714 0.73813C3.72772 0.256492 4.62101 0 7.08442 0Z" fill="currentColor"/>
<path d="M16.1838 6C17.4176 6 18.1597 7.44851 18.7119 8.98359L18.7656 9.13482L18.8181 9.28631L18.8696 9.43778C19.0393 9.94235 19.1919 10.4418 19.3379 10.8882C19.6733 9.49163 19.4974 9.19176 19.8567 9.19176C19.9903 9.19176 20.1256 9.28262 20.1256 9.44819C20.1256 9.5152 20.0165 10.2254 19.8647 10.937L19.8367 11.0663L19.8078 11.1947C19.759 11.4076 19.7071 11.6135 19.6538 11.7945C21.1981 15.8408 22.3448 10.5111 22.4743 9.42163C22.4933 9.26453 22.6116 9.19176 22.7312 9.19176C22.8909 9.19176 23.0219 9.31208 22.9969 9.49314C22.7204 11.255 22.2952 14 20.5468 14C19.582 14 19.0396 13.245 18.6112 12.3798C18.3137 11.7953 18.0608 11.1006 17.8281 10.4019L17.7726 10.2342C17.7542 10.1784 17.736 10.1225 17.7178 10.0667L17.6637 9.89971C17.1342 8.26093 16.6851 6.74258 15.9967 6.74258C15.6603 6.74258 15.4108 7.09385 15.3936 7.09385C15.3618 7.09385 15.3369 6.95073 15.0227 6.55859C15.3217 6.21716 15.7338 6 16.1838 6ZM10.4581 6.0043C13.2111 6.0043 13.456 13.2682 15.0141 13.2682C15.197 13.2682 15.3942 13.1573 15.6097 12.9062C15.729 13.1082 15.8513 13.2877 15.9779 13.4456C15.6669 13.8006 15.2799 13.9997 14.7953 13.9997C13.0544 13.9995 12.3064 11.0842 11.6626 9.11601C11.511 9.74737 11.4323 10.3188 11.4015 10.5753C11.3824 10.7383 11.2629 10.8126 11.1425 10.8126C11.0091 10.8126 10.8745 10.7212 10.8745 10.5581C10.8745 10.546 10.8752 10.5334 10.8768 10.5205C10.9659 9.8735 11.1456 8.89326 11.3468 8.20982C11.079 7.50821 10.7445 6.74138 10.2518 6.74138C9.25694 6.74138 8.68725 9.24149 8.52704 10.5753C8.50792 10.7383 8.38843 10.8126 8.26806 10.8126C8.13458 10.8126 8 10.7212 8 10.5581C8 10.546 8.00075 10.5334 8.0023 10.5205C8.02539 10.353 8.05014 10.1824 8.07704 10.0104L8.10064 9.86273C8.10466 9.83807 8.10874 9.81339 8.11286 9.78869L8.13817 9.64039C8.45345 7.83491 9.0412 6.0043 10.4581 6.0043ZM13.3146 6.00033C13.809 6.00033 14.3394 6.2576 14.7966 6.86121C14.8221 6.89052 15.0784 7.28879 15.1593 7.42686C15.4387 7.93316 15.6821 8.55194 15.9066 9.19532L15.9647 9.36366C16.6095 11.2484 17.1067 13.277 17.8811 13.277C18.0647 13.277 18.2638 13.163 18.4842 12.9061C18.6035 13.1082 18.7258 13.2876 18.8523 13.4455C18.5421 13.7999 18.1553 13.9997 17.6698 13.9997C14.9332 13.9993 14.6358 6.73978 13.1281 6.73978C12.7879 6.73978 12.5364 7.09388 12.5191 7.09388C12.4873 7.09388 12.4624 6.95077 12.1482 6.55866C12.4553 6.20796 12.8704 6.00033 13.3146 6.00033Z" fill="currentColor"/>
<path d="M28.28 5.75H35.56V6.68H32.04V7.28C32.02 7.84 31.98 8.36 31.92 8.86H36.35V9.78H33.33V12.99C33.33 13.31 33.48 13.48 33.79 13.48H34.92C35.12 13.48 35.27 13.41 35.37 13.27C35.48 13.13 35.56 12.67 35.6 11.91L36.49 12.2C36.41 13.25 36.25 13.88 36.03 14.08C35.83 14.27 35.52 14.37 35.1 14.37H33.5C32.76 14.37 32.39 13.97 32.39 13.19V9.78H31.77C31.59 10.64 31.34 11.38 31.01 12.01C30.39 13.1 29.39 13.94 28.01 14.53L27.48 13.68C28.86 13.05 29.79 12.25 30.28 11.29C30.49 10.83 30.66 10.33 30.78 9.78H27.63V8.86H30.95C31.01 8.36 31.05 7.84 31.07 7.28V6.68H28.28V5.75Z" fill="currentColor"/>
<path d="M46.66 8.59V12.51H45.73V9.43H42.55V12.52H41.62V8.59H46.66ZM41.95 5.63H46.36V8.07H41.95V5.63ZM45.44 7.28V6.44H42.87V7.28H45.44ZM43.63 9.9H44.58V10.93C44.54 11.91 44.28 12.69 43.8 13.29C43.32 13.83 42.56 14.26 41.5 14.56L40.99 13.75C41.99 13.47 42.68 13.12 43.05 12.69C43.41 12.24 43.6 11.65 43.63 10.93V9.9ZM39.21 14.42H38.27L38.06 13.51C38.34 13.55 38.62 13.57 38.88 13.57C39.14 13.57 39.27 13.44 39.27 13.19V11.02C38.87 11.18 38.46 11.32 38.05 11.45L37.81 10.49C38.31 10.38 38.79 10.24 39.27 10.06V7.97H38.01V7.06H39.27V5.31H40.2V7.06H41.31V7.97H40.2V9.69C40.55 9.53 40.9 9.35 41.24 9.17V10.13C40.9 10.31 40.55 10.48 40.2 10.64V13.43C40.2 14.09 39.87 14.42 39.21 14.42ZM44.82 12.41C45.65 12.79 46.41 13.24 47.1 13.77L46.57 14.59C45.85 13.97 45.11 13.47 44.35 13.11L44.82 12.41Z" fill="currentColor"/>
</g>
<defs>
<clipPath id="clip0_2_24">
<rect width="55" height="20" fill="currentColor"/>
</clipPath>
</defs>
</svg>
