<svg width="300" height="150" viewBox="0 0 300 150" fill="none" xmlns="http://www.w3.org/2000/svg">
<rect width="300" height="150" fill="url(#paint0_linear_203_233)"/>
<path fill-rule="evenodd" clip-rule="evenodd" d="M101.308 25.5102C101.104 25.5289 99.296 25.8477 99.0785 25.8919L74.0481 30.9166L74.0388 30.9189C73.3861 31.0562 72.8738 31.2866 72.4785 31.6171C72.0012 32.0151 71.7369 32.5783 71.6363 33.2346C71.6153 33.3742 71.5802 33.6582 71.5802 34.0771C71.5802 34.0771 71.5802 59.5193 71.5802 65.2445C71.5802 65.973 71.5217 66.6805 71.0258 67.2833C70.5298 67.886 69.9169 68.0676 69.1988 68.2119C68.6537 68.3212 68.1087 68.4306 67.5636 68.54C65.4957 68.9543 64.1506 69.2359 62.9318 69.706C61.7669 70.1552 60.8943 70.7277 60.1996 71.4538C58.8217 72.8898 58.2626 74.8377 58.4545 76.6624C58.6182 78.2193 59.3223 79.7088 60.5317 80.8096C61.3482 81.5544 62.3681 82.1199 63.5705 82.3596C64.8173 82.6087 66.146 82.5225 68.0876 82.1316C69.1216 81.9244 70.0901 81.6009 71.0117 81.0587C71.9241 80.5234 72.7054 79.8089 73.3159 78.9385C73.9288 78.0657 74.3242 77.0952 74.5417 76.0642C74.7663 75.0007 74.8201 74.0395 74.8201 72.9782V45.9464C74.8201 44.4988 75.2318 44.1171 76.4061 43.8332C76.4061 43.8332 97.2117 39.658 98.1825 39.4695C99.537 39.2112 100.176 39.5952 100.176 41.0078V59.4612C100.176 60.1919 100.169 60.932 99.668 61.5371C99.172 62.1399 98.5591 62.3214 97.841 62.4657C97.2959 62.5751 96.7509 62.6845 96.2058 62.7939C94.1379 63.2081 92.7928 63.4897 91.574 63.9599C90.4091 64.409 89.5365 64.9815 88.8418 65.7077C87.4639 67.1436 86.8557 69.0916 87.0475 70.9162C87.2113 72.4732 87.9645 73.9627 89.1739 75.0635C89.9903 75.8082 91.0103 76.3575 92.2127 76.5995C93.4595 76.8485 94.7882 76.7601 96.7298 76.3714C97.7638 76.1643 98.7322 75.8548 99.6539 75.3125C100.566 74.7772 101.348 74.0627 101.958 73.1923C102.571 72.3196 102.966 71.3491 103.184 70.3181C103.408 69.2545 103.418 68.2933 103.418 67.2321V27.7119C103.423 26.2783 102.662 25.3939 101.308 25.5102Z" fill="white"/>
<path d="M139.75 43.75L150 54M160.25 64.25L150 54M150 54L160.25 43.75L139.75 64.25" stroke="white" stroke-width="5" stroke-linecap="round" stroke-linejoin="round"/>
<path fill-rule="evenodd" clip-rule="evenodd" d="M218.337 27.4178C233.203 27.4178 245.254 39.4688 245.254 54.3368C245.254 69.2026 233.203 81.2536 218.337 81.2536C203.469 81.2536 191.418 69.2026 191.418 54.3368C191.418 39.4688 203.469 27.4178 218.337 27.4178ZM222.414 36.9938C219.556 37.9388 218.184 40.6028 219.003 43.6268L219.295 44.7406C218.678 44.8731 218.071 45.0536 217.482 45.2806C214.69 46.3583 212.471 48.7456 211.697 51.5153C211.42 52.5025 211.325 53.5317 211.416 54.5528C211.612 56.7781 212.797 58.8503 214.591 60.0946C216.278 61.2691 218.301 61.6133 220.283 61.0666C221.677 60.6851 222.909 59.8616 223.795 58.7198C225.159 56.9378 225.566 54.5978 224.941 52.1273C224.713 51.2296 224.428 50.2306 224.149 49.2676L223.852 48.2191C225.034 48.5153 226.124 49.1041 227.02 49.9313C230.107 52.8158 230.701 57.7838 228.403 61.4873C226.385 64.7386 222.452 66.8423 218.384 66.8423C215.087 66.8388 211.926 65.5275 209.594 63.1962C207.262 60.8649 205.95 57.7039 205.946 54.4066C205.947 52.8079 206.263 51.225 206.878 49.7491C207.428 48.4172 208.209 47.1925 209.184 46.1311C210.157 45.075 211.305 44.1944 212.577 43.5278C212.934 43.3419 213.299 43.1737 213.673 43.0238C213.886 42.9387 214.08 42.8125 214.245 42.6522C214.409 42.492 214.541 42.3009 214.631 42.0898C214.722 41.8788 214.77 41.652 214.773 41.4223C214.776 41.1927 214.734 40.9647 214.649 40.7513C214.564 40.538 214.438 40.3435 214.277 40.179C214.117 40.0145 213.926 39.8831 213.715 39.7924C213.504 39.7018 213.277 39.6535 213.048 39.6505C212.818 39.6475 212.59 39.6898 212.377 39.7748C209.598 40.8845 207.194 42.7641 205.447 45.1928C203.503 47.8732 202.455 51.0981 202.45 54.4088C202.45 63.1928 209.598 70.3411 218.384 70.3411C223.633 70.3411 228.734 67.5893 231.373 63.3323C234.589 58.1551 233.758 51.4456 229.405 47.3798C227.623 45.7148 225.303 44.7361 222.857 44.5201L222.378 42.7111C222.263 42.2948 222.209 41.8201 222.333 41.3993C222.466 40.9681 222.759 40.6046 223.153 40.3845C223.547 40.1645 224.011 40.1049 224.448 40.2181C224.693 40.2811 224.923 40.3981 225.125 40.5488C225.337 40.7108 225.501 40.9156 225.694 41.0956C225.999 41.3808 226.397 41.5474 226.814 41.5651C227.231 41.5829 227.641 41.4506 227.969 41.1922C228.298 40.9339 228.523 40.5666 228.603 40.1567C228.684 39.7469 228.616 39.3217 228.41 38.9581L228.388 38.9176C228.178 38.5893 227.918 38.2968 227.616 38.0513C226.783 37.3429 225.76 36.8953 224.675 36.7643C223.913 36.6772 223.142 36.754 222.414 36.9938ZM220.195 48.1246C220.382 48.8108 220.585 49.5241 220.787 50.2306C221.062 51.1846 221.334 52.1318 221.55 52.9868C221.804 53.9858 221.917 55.4213 221.019 56.5936C220.597 57.1312 220.013 57.518 219.354 57.6961C218.887 57.8309 218.395 57.8585 217.916 57.7766C217.437 57.6948 216.982 57.5058 216.586 57.2236C216.106 56.8797 215.707 56.4355 215.415 55.9219C215.124 55.4083 214.948 54.8376 214.899 54.2491C214.846 53.6477 214.902 53.0416 215.065 52.4603C215.547 50.7323 216.955 49.2316 218.74 48.5453C219.217 48.3608 219.705 48.2213 220.195 48.1246Z" fill="white"/>
<defs>
<linearGradient id="paint0_linear_203_233" x1="150" y1="0" x2="150" y2="150" gradientUnits="userSpaceOnUse">
<stop stop-color="#FB5C74"/>
<stop offset="1" stop-color="#FA233B"/>
</linearGradient>
</defs>
</svg>
