<svg width="300" height="150" viewBox="0 0 300 150" fill="none" xmlns="http://www.w3.org/2000/svg">
<rect width="300" height="150" fill="url(#paint0_linear_4_229)"/>
<path d="M21.5 19.72H23.98L29.48 34H27.14L25.8 30.32H19.66L18.32 34H16L21.5 19.72ZM20.32 28.52H25.14L22.78 22.06H22.7L20.32 28.52Z" fill="white"/>
<path d="M35.8566 23.38C37.3632 23.38 38.5566 23.92 39.4366 25C40.2366 26 40.6366 27.2933 40.6366 28.88C40.6366 30.3867 40.2432 31.6467 39.4566 32.66C38.6166 33.74 37.4499 34.28 35.9566 34.28C34.6899 34.28 33.6366 33.68 32.7966 32.48V37.96H30.6766V23.66H32.6566V24.9C33.3766 23.8867 34.4432 23.38 35.8566 23.38ZM35.5366 25.1C34.6032 25.1 33.8899 25.4667 33.3966 26.2C32.9566 26.84 32.7366 27.6933 32.7366 28.76V28.94C32.7366 30.06 33.0099 30.9533 33.5566 31.62C34.0366 32.2467 34.6766 32.56 35.4766 32.56C36.5166 32.56 37.2832 32.22 37.7766 31.54C38.2299 30.8867 38.4566 30 38.4566 28.88C38.4566 27.7733 38.2499 26.8867 37.8366 26.22C37.3432 25.4733 36.5766 25.1 35.5366 25.1Z" fill="white"/>
<path d="M47.8097 23.38C49.3164 23.38 50.5097 23.92 51.3897 25C52.1897 26 52.5897 27.2933 52.5897 28.88C52.5897 30.3867 52.1964 31.6467 51.4097 32.66C50.5697 33.74 49.403 34.28 47.9097 34.28C46.643 34.28 45.5897 33.68 44.7497 32.48V37.96H42.6297V23.66H44.6097V24.9C45.3297 23.8867 46.3964 23.38 47.8097 23.38ZM47.4897 25.1C46.5564 25.1 45.843 25.4667 45.3497 26.2C44.9097 26.84 44.6897 27.6933 44.6897 28.76V28.94C44.6897 30.06 44.963 30.9533 45.5097 31.62C45.9897 32.2467 46.6297 32.56 47.4297 32.56C48.4697 32.56 49.2364 32.22 49.7297 31.54C50.183 30.8867 50.4097 30 50.4097 28.88C50.4097 27.7733 50.203 26.8867 49.7897 26.22C49.2964 25.4733 48.5297 25.1 47.4897 25.1Z" fill="white"/>
<path d="M54.8228 19.44H56.9428V34H54.8228V19.44Z" fill="white"/>
<path d="M63.9628 23.38C65.6695 23.38 66.9561 23.9533 67.8228 25.1C68.6361 26.1533 69.0495 27.5933 69.0628 29.42H61.2228C61.3028 30.4467 61.5761 31.22 62.0428 31.74C62.5361 32.2733 63.1961 32.54 64.0228 32.54C64.7561 32.54 65.3561 32.3667 65.8228 32.02C66.1561 31.7667 66.4695 31.32 66.7628 30.68H68.8828C68.6295 31.6667 68.1561 32.4733 67.4628 33.1C66.5561 33.8867 65.4161 34.28 64.0428 34.28C62.5095 34.28 61.3028 33.8067 60.4228 32.86C59.4628 31.86 58.9828 30.5133 58.9828 28.82C58.9828 27.2733 59.4361 25.9867 60.3428 24.96C61.2228 23.9067 62.4295 23.38 63.9628 23.38ZM64.0228 25.12C63.2228 25.12 62.5895 25.3533 62.1228 25.82C61.6695 26.3 61.3828 26.9667 61.2628 27.82H66.8428C66.6428 26.02 65.7028 25.12 64.0228 25.12Z" fill="white"/>
<path d="M77.732 19.72H80.312L85.292 31.16H85.352L90.312 19.72H92.892V34H90.712V23.8H90.632L86.252 34H84.372L79.992 23.8H79.912V34H77.732V19.72Z" fill="white"/>
<path d="M95.5008 23.66H97.6208V29.96C97.6208 30.8533 97.8074 31.4933 98.1808 31.88C98.5541 32.2933 99.1475 32.5 99.9608 32.5C100.494 32.5 101.007 32.2733 101.501 31.82C101.981 31.3533 102.314 30.74 102.501 29.98V23.66H104.621V34H102.501V32.6C101.621 33.72 100.534 34.28 99.2408 34.28C96.7475 34.28 95.5008 32.8867 95.5008 30.1V23.66Z" fill="white"/>
<path d="M110.904 23.38C113.597 23.38 115.064 24.4667 115.304 26.64H113.244C113.084 26.08 112.837 25.6933 112.504 25.48C112.144 25.24 111.597 25.12 110.864 25.12C110.197 25.12 109.717 25.2133 109.424 25.4C109.05 25.6 108.864 25.9067 108.864 26.32C108.864 26.6667 109.144 26.9733 109.704 27.24C110.05 27.3867 110.744 27.5933 111.784 27.86C112.944 28.14 113.817 28.4667 114.404 28.84C115.23 29.36 115.644 30.08 115.644 31C115.644 33.1867 114.11 34.28 111.044 34.28C108.217 34.28 106.684 33.0733 106.444 30.66H108.524C108.644 31.3533 108.89 31.8467 109.264 32.14C109.637 32.4067 110.21 32.54 110.984 32.54C112.637 32.54 113.464 32.0733 113.464 31.14C113.464 30.6333 113.157 30.24 112.544 29.96C112.224 29.8 111.53 29.6 110.464 29.36C109.237 29.08 108.384 28.78 107.904 28.46C107.104 27.9533 106.704 27.26 106.704 26.38C106.704 25.4333 107.09 24.7 107.864 24.18C108.637 23.6467 109.65 23.38 110.904 23.38Z" fill="white"/>
<path d="M118.934 19.52C119.374 19.52 119.728 19.6533 119.994 19.92C120.274 20.1733 120.414 20.5133 120.414 20.94C120.414 21.34 120.268 21.6867 119.974 21.98C119.681 22.2467 119.334 22.38 118.934 22.38C118.534 22.38 118.188 22.2467 117.894 21.98C117.614 21.7 117.474 21.3533 117.474 20.94C117.474 20.5133 117.614 20.1733 117.894 19.92C118.161 19.6533 118.508 19.52 118.934 19.52ZM117.874 23.66H119.994V34H117.874V23.66Z" fill="white"/>
<path d="M127.464 23.38C128.784 23.38 129.844 23.68 130.644 24.28C131.457 24.9333 131.964 25.8933 132.164 27.16H130.064C129.917 26.44 129.631 25.9267 129.204 25.62C128.777 25.2867 128.197 25.12 127.464 25.12C126.584 25.12 125.897 25.4467 125.404 26.1C124.897 26.7267 124.644 27.6333 124.644 28.82C124.644 29.9933 124.891 30.9067 125.384 31.56C125.851 32.2133 126.537 32.54 127.444 32.54C129.017 32.54 129.904 31.7533 130.104 30.18H132.204C131.964 31.5533 131.437 32.5867 130.624 33.28C129.811 33.9467 128.744 34.28 127.424 34.28C125.851 34.28 124.624 33.76 123.744 32.72C122.891 31.7333 122.464 30.44 122.464 28.84C122.464 27.28 122.884 26 123.724 25C124.631 23.92 125.877 23.38 127.464 23.38Z" fill="white"/>
<path d="M133.816 27.94H143.916V29.7H133.816V27.94Z" fill="white"/>
<path d="M146.366 19.44H148.486V34H146.366V19.44Z" fill="white"/>
<path d="M152.626 19.52C153.066 19.52 153.419 19.6533 153.686 19.92C153.966 20.1733 154.106 20.5133 154.106 20.94C154.106 21.34 153.959 21.6867 153.666 21.98C153.372 22.2467 153.026 22.38 152.626 22.38C152.226 22.38 151.879 22.2467 151.586 21.98C151.306 21.7 151.166 21.3533 151.166 20.94C151.166 20.5133 151.306 20.1733 151.586 19.92C151.852 19.6533 152.199 19.52 152.626 19.52ZM151.566 23.66H153.686V34H151.566V23.66Z" fill="white"/>
<path d="M156.555 19.44H158.675V27.92L163.155 23.66H165.895L161.315 27.92L166.295 34H163.575L159.855 29.28L158.675 30.38V34H156.555V19.44Z" fill="white"/>
<path d="M171.873 23.38C173.58 23.38 174.866 23.9533 175.733 25.1C176.546 26.1533 176.96 27.5933 176.973 29.42H169.133C169.213 30.4467 169.486 31.22 169.953 31.74C170.446 32.2733 171.106 32.54 171.933 32.54C172.666 32.54 173.266 32.3667 173.733 32.02C174.066 31.7667 174.38 31.32 174.673 30.68H176.793C176.54 31.6667 176.066 32.4733 175.373 33.1C174.466 33.8867 173.326 34.28 171.953 34.28C170.42 34.28 169.213 33.8067 168.333 32.86C167.373 31.86 166.893 30.5133 166.893 28.82C166.893 27.2733 167.346 25.9867 168.253 24.96C169.133 23.9067 170.34 23.38 171.873 23.38ZM171.933 25.12C171.133 25.12 170.5 25.3533 170.033 25.82C169.58 26.3 169.293 26.9667 169.173 27.82H174.753C174.553 26.02 173.613 25.12 171.933 25.12Z" fill="white"/>
<path d="M185.642 19.72H187.802V32.14H195.662V34H185.642V19.72Z" fill="white"/>
<path d="M196.159 23.66H198.459L201.299 31.2L204.019 23.66H206.339L200.719 37.96H198.459L200.259 33.76L196.159 23.66Z" fill="white"/>
<path d="M212.43 23.38C212.976 23.38 213.423 23.4667 213.77 23.64V25.76C213.29 25.6133 212.79 25.54 212.27 25.54C211.63 25.54 211.056 25.8 210.55 26.32C210.016 26.8667 209.75 27.6 209.75 28.52V34H207.63V23.66H209.75V25.22C210.003 24.6733 210.336 24.2533 210.75 23.96C211.216 23.5733 211.776 23.38 212.43 23.38Z" fill="white"/>
<path d="M216.571 19.52C217.011 19.52 217.364 19.6533 217.631 19.92C217.911 20.1733 218.051 20.5133 218.051 20.94C218.051 21.34 217.904 21.6867 217.611 21.98C217.318 22.2467 216.971 22.38 216.571 22.38C216.171 22.38 215.824 22.2467 215.531 21.98C215.251 21.7 215.111 21.3533 215.111 20.94C215.111 20.5133 215.251 20.1733 215.531 19.92C215.798 19.6533 216.144 19.52 216.571 19.52ZM215.511 23.66H217.631V34H215.511V23.66Z" fill="white"/>
<path d="M225.101 23.38C226.421 23.38 227.481 23.68 228.281 24.28C229.094 24.9333 229.601 25.8933 229.801 27.16H227.701C227.554 26.44 227.267 25.9267 226.841 25.62C226.414 25.2867 225.834 25.12 225.101 25.12C224.221 25.12 223.534 25.4467 223.041 26.1C222.534 26.7267 222.281 27.6333 222.281 28.82C222.281 29.9933 222.527 30.9067 223.021 31.56C223.487 32.2133 224.174 32.54 225.081 32.54C226.654 32.54 227.541 31.7533 227.741 30.18H229.841C229.601 31.5533 229.074 32.5867 228.261 33.28C227.447 33.9467 226.381 34.28 225.061 34.28C223.487 34.28 222.261 33.76 221.381 32.72C220.527 31.7333 220.101 30.44 220.101 28.84C220.101 27.28 220.521 26 221.361 25C222.267 23.92 223.514 23.38 225.101 23.38Z" fill="white"/>
<path d="M235.513 23.38C238.206 23.38 239.673 24.4667 239.913 26.64H237.853C237.693 26.08 237.446 25.6933 237.113 25.48C236.753 25.24 236.206 25.12 235.473 25.12C234.806 25.12 234.326 25.2133 234.033 25.4C233.66 25.6 233.473 25.9067 233.473 26.32C233.473 26.6667 233.753 26.9733 234.313 27.24C234.66 27.3867 235.353 27.5933 236.393 27.86C237.553 28.14 238.426 28.4667 239.013 28.84C239.84 29.36 240.253 30.08 240.253 31C240.253 33.1867 238.72 34.28 235.653 34.28C232.826 34.28 231.293 33.0733 231.053 30.66H233.133C233.253 31.3533 233.5 31.8467 233.873 32.14C234.246 32.4067 234.82 32.54 235.593 32.54C237.246 32.54 238.073 32.0733 238.073 31.14C238.073 30.6333 237.766 30.24 237.153 29.96C236.833 29.8 236.14 29.6 235.073 29.36C233.846 29.08 232.993 28.78 232.513 28.46C231.713 27.9533 231.313 27.26 231.313 26.38C231.313 25.4333 231.7 24.7 232.473 24.18C233.246 23.6467 234.26 23.38 235.513 23.38Z" fill="white"/>
<path d="M23.12 54.76H27.5V51.24H29.44V54.76H34.06V56.6H29.44V61.52H34.94V63.38H22.38V61.52H27.5V56.6H23.12V54.76ZM19.7 56.42C19.1533 56.9667 18.5267 57.54 17.82 58.14L16.62 56.58C18.9267 54.6733 20.7667 52.4867 22.14 50.02H17.34V48.16H23.04C23.4 47.3733 23.7333 46.46 24.04 45.42L26 45.64C25.72 46.5733 25.4333 47.4133 25.14 48.16H34.94V50.02H24.3C23.5133 51.5933 22.6067 53.02 21.58 54.3V64.12H19.7V56.42Z" fill="white"/>
<path d="M45.22 59.44C44.66 58.5333 44.1333 57.7333 43.64 57.04C42.96 58.84 42.16 60.4 41.24 61.72L40.02 60.24C40.94 58.84 41.7267 57.18 42.38 55.26C41.6067 54.1933 40.7267 53.08 39.74 51.92L40.9 50.78C41.46 51.3667 42.1533 52.1867 42.98 53.24C43.3 51.9067 43.5533 50.5667 43.74 49.22L45.48 49.52C45.1733 51.5867 44.7867 53.42 44.32 55.02C45 55.98 45.72 57.04 46.48 58.2L45.22 59.44ZM50.98 60.4C50.4733 59.4933 49.9 58.5333 49.26 57.52C48.5133 59.3333 47.6467 60.8933 46.66 62.2L45.46 60.74C46.4867 59.2867 47.3533 57.6 48.06 55.68C47.22 54.44 46.36 53.26 45.48 52.14L46.66 51.02C47.3267 51.7667 48.0067 52.6333 48.7 53.62C49.06 52.2733 49.36 50.8267 49.6 49.28L51.36 49.58C51 51.7533 50.54 53.7333 49.98 55.52C50.7533 56.7067 51.5133 57.9133 52.26 59.14L50.98 60.4ZM50.16 63.94L49.66 62.1L51.54 62.18C52.0333 62.18 52.28 61.9467 52.28 61.48V48.12H39.72V64.06H37.84V46.3H54.16V61.9C54.16 63.26 53.4933 63.94 52.16 63.94H50.16Z" fill="white"/>
<path d="M59.78 53.64V46.24H72.32V53.64H64.46C64.14 54.1067 63.8067 54.5333 63.46 54.92H73.82C73.7667 57.1067 73.6467 58.88 73.46 60.24C73.26 61.5867 72.9533 62.5133 72.54 63.02C72.1133 63.54 71.4267 63.82 70.48 63.86H67.7L67.2 62.08C68.2933 62.1333 69.08 62.16 69.56 62.16C70.4667 62.16 71.06 61.82 71.34 61.14C71.6333 60.38 71.82 58.8667 71.9 56.6H70.34C68.62 60.3467 65.9 62.82 62.18 64.02L61.1 62.44C64.4333 61.4 66.8667 59.4533 68.4 56.6H66.24C64.84 58.7733 62.6067 60.4733 59.54 61.7L58.32 60.22C60.9867 59.26 62.9467 58.0533 64.2 56.6H61.6C60.6533 57.3067 59.56 57.9467 58.32 58.52L57.28 56.84C59.5067 55.9733 61.1667 54.9067 62.26 53.64H59.78ZM70.46 52.04V50.68H61.64V52.04H70.46ZM61.64 49.18H70.46V47.86H61.64V49.18Z" fill="white"/>
<path d="M78.92 46.62H93.28V48.46H78.92V46.62ZM77 52.14H95.06V54.04H85.58C83.8467 57.4933 82.34 59.9533 81.06 61.42C84.2867 61.22 87.5533 60.8867 90.86 60.42C90.1933 59.22 89.4933 58.0467 88.76 56.9L90.28 55.96C92.0667 58.6 93.4733 60.9533 94.5 63.02L92.8 64.2C92.3733 63.2933 92.04 62.6133 91.8 62.16C87.7733 62.72 83.4067 63.16 78.7 63.48L78.2 61.54C78.4133 61.4733 78.5667 61.4133 78.66 61.36C79.8867 60.44 81.4867 58 83.46 54.04H77V52.14Z" fill="white"/>
<path d="M99 53.9C98.4267 54.66 97.8533 55.3667 97.28 56.02L96.72 54.12C98.6933 51.64 100.14 48.7667 101.06 45.5L102.76 46.3C102.293 47.8733 101.66 49.42 100.86 50.94V64.08H99V53.9ZM102.26 48.82H107.32V45.58H109.18V48.82H114.48V50.64H110.54C111.473 53.8 113.047 56.5867 115.26 59L114.04 60.54C111.72 57.62 110.1 54.3467 109.18 50.72V58.28H112.04V60.1H109.18V64.06H107.32V60.1H104.52V58.28H107.32V50.64C106.32 54.76 104.64 58.14 102.28 60.78L101.3 59.16C103.447 56.9067 105 54.0667 105.96 50.64H102.26V48.82Z" fill="white"/>
<path d="M126.6 51.86C125.96 52.5533 125.28 53.1733 124.56 53.72L123.56 52.2C125.733 50.5333 127.427 48.34 128.64 45.62H130.34C131.327 48.1133 133.033 50.2867 135.46 52.14L134.42 53.7C133.647 53.1133 132.94 52.4733 132.3 51.78V52.98H126.6V51.86ZM131.84 51.26C130.853 50.06 130.067 48.8 129.48 47.48C128.773 48.9467 127.987 50.2067 127.12 51.26H131.84ZM124.14 61.6H130.56C131.28 59.5333 131.92 56.9867 132.48 53.96L134.3 54.42C133.78 57.0733 133.14 59.4667 132.38 61.6H135.18V63.42H124.14V61.6ZM126.3 54.54C126.913 56.2067 127.467 58.0933 127.96 60.2L126.34 60.6C125.913 58.76 125.36 56.9267 124.68 55.1L126.3 54.54ZM129.38 53.94C129.86 55.38 130.313 57.1867 130.74 59.36L129.1 59.76C128.753 57.8933 128.307 56.1267 127.76 54.46L129.38 53.94ZM121.74 48.1H117.06V46.38H123.62L122.68 54.62H123.84C123.84 59.2733 123.633 61.9733 123.22 62.72C122.807 63.44 121.933 63.8 120.6 63.8C120.16 63.8 119.7 63.78 119.22 63.74L118.72 62.06C119.467 62.1667 119.953 62.22 120.18 62.22C121.073 62.22 121.613 61.9333 121.8 61.36C122 60.7733 122.1 59.0867 122.1 56.3H117.04L117.98 49.24L119.72 49.34L118.94 54.62H120.9L121.74 48.1ZM121.22 59.38C119.927 59.86 118.447 60.26 116.78 60.58L116.56 58.78C118.373 58.4867 119.927 58.12 121.22 57.68V59.38Z" fill="white"/>
<path d="M148.16 47.72H150.64L156.14 62H153.8L152.46 58.32H146.32L144.98 62H142.66L148.16 47.72ZM146.98 56.52H151.8L149.44 50.06H149.36L146.98 56.52Z" fill="white"/>
<path d="M162.517 51.38C164.023 51.38 165.217 51.92 166.097 53C166.897 54 167.297 55.2933 167.297 56.88C167.297 58.3867 166.903 59.6467 166.117 60.66C165.277 61.74 164.11 62.28 162.617 62.28C161.35 62.28 160.297 61.68 159.457 60.48V65.96H157.337V51.66H159.317V52.9C160.037 51.8867 161.103 51.38 162.517 51.38ZM162.197 53.1C161.263 53.1 160.55 53.4667 160.057 54.2C159.617 54.84 159.397 55.6933 159.397 56.76V56.94C159.397 58.06 159.67 58.9533 160.217 59.62C160.697 60.2467 161.337 60.56 162.137 60.56C163.177 60.56 163.943 60.22 164.437 59.54C164.89 58.8867 165.117 58 165.117 56.88C165.117 55.7733 164.91 54.8867 164.497 54.22C164.003 53.4733 163.237 53.1 162.197 53.1Z" fill="white"/>
<path d="M174.47 51.38C175.977 51.38 177.17 51.92 178.05 53C178.85 54 179.25 55.2933 179.25 56.88C179.25 58.3867 178.857 59.6467 178.07 60.66C177.23 61.74 176.063 62.28 174.57 62.28C173.303 62.28 172.25 61.68 171.41 60.48V65.96H169.29V51.66H171.27V52.9C171.99 51.8867 173.057 51.38 174.47 51.38ZM174.15 53.1C173.217 53.1 172.503 53.4667 172.01 54.2C171.57 54.84 171.35 55.6933 171.35 56.76V56.94C171.35 58.06 171.623 58.9533 172.17 59.62C172.65 60.2467 173.29 60.56 174.09 60.56C175.13 60.56 175.897 60.22 176.39 59.54C176.843 58.8867 177.07 58 177.07 56.88C177.07 55.7733 176.863 54.8867 176.45 54.22C175.957 53.4733 175.19 53.1 174.15 53.1Z" fill="white"/>
<path d="M181.483 47.44H183.603V62H181.483V47.44Z" fill="white"/>
<path d="M190.623 51.38C192.33 51.38 193.616 51.9533 194.483 53.1C195.296 54.1533 195.71 55.5933 195.723 57.42H187.883C187.963 58.4467 188.236 59.22 188.703 59.74C189.196 60.2733 189.856 60.54 190.683 60.54C191.416 60.54 192.016 60.3667 192.483 60.02C192.816 59.7667 193.13 59.32 193.423 58.68H195.543C195.29 59.6667 194.816 60.4733 194.123 61.1C193.216 61.8867 192.076 62.28 190.703 62.28C189.17 62.28 187.963 61.8067 187.083 60.86C186.123 59.86 185.643 58.5133 185.643 56.82C185.643 55.2733 186.096 53.9867 187.003 52.96C187.883 51.9067 189.09 51.38 190.623 51.38ZM190.683 53.12C189.883 53.12 189.25 53.3533 188.783 53.82C188.33 54.3 188.043 54.9667 187.923 55.82H193.503C193.303 54.02 192.363 53.12 190.683 53.12Z" fill="white"/>
<path d="M204.392 47.72H206.972L211.952 59.16H212.012L216.972 47.72H219.552V62H217.372V51.8H217.292L212.912 62H211.032L206.652 51.8H206.572V62H204.392V47.72Z" fill="white"/>
<path d="M222.161 51.66H224.281V57.96C224.281 58.8533 224.468 59.4933 224.841 59.88C225.214 60.2933 225.808 60.5 226.621 60.5C227.154 60.5 227.668 60.2733 228.161 59.82C228.641 59.3533 228.974 58.74 229.161 57.98V51.66H231.281V62H229.161V60.6C228.281 61.72 227.194 62.28 225.901 62.28C223.408 62.28 222.161 60.8867 222.161 58.1V51.66Z" fill="white"/>
<path d="M237.564 51.38C240.257 51.38 241.724 52.4667 241.964 54.64H239.904C239.744 54.08 239.497 53.6933 239.164 53.48C238.804 53.24 238.257 53.12 237.524 53.12C236.857 53.12 236.377 53.2133 236.084 53.4C235.711 53.6 235.524 53.9067 235.524 54.32C235.524 54.6667 235.804 54.9733 236.364 55.24C236.711 55.3867 237.404 55.5933 238.444 55.86C239.604 56.14 240.477 56.4667 241.064 56.84C241.891 57.36 242.304 58.08 242.304 59C242.304 61.1867 240.771 62.28 237.704 62.28C234.877 62.28 233.344 61.0733 233.104 58.66H235.184C235.304 59.3533 235.551 59.8467 235.924 60.14C236.297 60.4067 236.871 60.54 237.644 60.54C239.297 60.54 240.124 60.0733 240.124 59.14C240.124 58.6333 239.817 58.24 239.204 57.96C238.884 57.8 238.191 57.6 237.124 57.36C235.897 57.08 235.044 56.78 234.564 56.46C233.764 55.9533 233.364 55.26 233.364 54.38C233.364 53.4333 233.751 52.7 234.524 52.18C235.297 51.6467 236.311 51.38 237.564 51.38Z" fill="white"/>
<path d="M245.595 47.52C246.035 47.52 246.388 47.6533 246.655 47.92C246.935 48.1733 247.075 48.5133 247.075 48.94C247.075 49.34 246.928 49.6867 246.635 49.98C246.341 50.2467 245.995 50.38 245.595 50.38C245.195 50.38 244.848 50.2467 244.555 49.98C244.275 49.7 244.135 49.3533 244.135 48.94C244.135 48.5133 244.275 48.1733 244.555 47.92C244.821 47.6533 245.168 47.52 245.595 47.52ZM244.535 51.66H246.655V62H244.535V51.66Z" fill="white"/>
<path d="M254.124 51.38C255.444 51.38 256.504 51.68 257.304 52.28C258.118 52.9333 258.624 53.8933 258.824 55.16H256.724C256.578 54.44 256.291 53.9267 255.864 53.62C255.438 53.2867 254.858 53.12 254.124 53.12C253.244 53.12 252.558 53.4467 252.064 54.1C251.558 54.7267 251.304 55.6333 251.304 56.82C251.304 57.9933 251.551 58.9067 252.044 59.56C252.511 60.2133 253.198 60.54 254.104 60.54C255.678 60.54 256.564 59.7533 256.764 58.18H258.864C258.624 59.5533 258.098 60.5867 257.284 61.28C256.471 61.9467 255.404 62.28 254.084 62.28C252.511 62.28 251.284 61.76 250.404 60.72C249.551 59.7333 249.124 58.44 249.124 56.84C249.124 55.28 249.544 54 250.384 53C251.291 51.92 252.538 51.38 254.124 51.38Z" fill="white"/>
<path d="M24.26 76.9V90.82H22.44V89.78H19.28V91.4H17.46V76.9H19.36C19.7467 75.74 20.0133 74.6267 20.16 73.56L22.06 73.82C21.8733 74.8733 21.58 75.9 21.18 76.9H24.26ZM19.28 88.02H22.44V84.08H19.28V88.02ZM19.28 82.38H22.44V78.7H19.28V82.38ZM27.86 81.7C29.2333 83.3933 30.2467 84.8267 30.9 86L29.4 87.06C28.6933 85.8333 27.6667 84.3667 26.32 82.66L27.86 81.7ZM34.58 76.92C34.58 83.8267 34.48 88.08 34.28 89.68C34.08 91.12 33.1267 91.84 31.42 91.84C31.1133 91.84 30.4067 91.8067 29.3 91.74L28.84 90C30.0133 90.0533 30.7733 90.08 31.12 90.08C31.92 90.08 32.38 89.66 32.5 88.82C32.6067 87.94 32.68 84.5867 32.72 78.76H27.7C27.1133 80 26.46 81.1 25.74 82.06L24.6 80.56C25.9333 78.6133 26.84 76.2733 27.32 73.54L29.2 73.78C29.0133 74.7933 28.7467 75.84 28.4 76.92H34.58Z" fill="white"/>
<path d="M37.78 85.06H42.76V89.16H37.78V85.06ZM41.22 87.98V86.26H39.32V87.98H41.22ZM49.4 73.94C49.28 74.8867 49.1733 75.6533 49.08 76.24H54.52V77.46C54.28 79.14 53.9467 80.9133 53.52 82.78L51.76 82.3C52.1467 81.02 52.4533 79.6133 52.68 78.08H48.68C48.2267 79.84 47.6733 81.2133 47.02 82.2L45.52 81.14C46.6133 79.3267 47.3067 76.8333 47.6 73.66L49.4 73.94ZM43.68 76H37.38V74.28H46.28V76H45.44V81.6H43.68V76ZM37.76 77.12H42.72V81.08H37.76V77.12ZM41.18 79.92V78.3H39.3V79.92H41.18ZM41.7 92L41.32 90.32C41.96 90.3867 42.5067 90.42 42.96 90.42C43.48 90.42 43.74 90.1733 43.74 89.68V83.96H37.06V82.26H46.7V83.96H45.48V90.08C45.48 90.2133 45.4667 90.3733 45.44 90.56C47.0267 89.2667 48.08 87.7067 48.6 85.88C48.9867 84.28 49.1867 82.2267 49.2 79.72H51C51 81.0267 50.9333 82.3333 50.8 83.64C51.7067 86.5467 53.1933 88.8533 55.26 90.56L54 92.06C52.4267 90.58 51.1733 88.78 50.24 86.66C49.64 88.86 48.3933 90.6733 46.5 92.1L45.4 90.76C45.2 91.5867 44.5933 92 43.58 92H41.7Z" fill="white"/>
<path d="M69.96 91.98L69.48 90.16L71.76 90.2C72.36 90.2 72.66 89.8733 72.66 89.22V76.08H63.32V74.28H74.54V89.76C74.54 91.24 73.7467 91.98 72.16 91.98H69.96ZM63.78 78H71.62V79.82H63.78V78ZM64.38 81.6H70.94V88.16H64.38V81.6ZM69.16 86.5V83.26H66.2V86.5H69.16ZM59.46 73.76C60.78 74.76 61.88 75.7467 62.76 76.72L61.46 78.04C60.6333 77.0667 59.5267 76.0733 58.14 75.06L59.46 73.76ZM56.8 79.56H61.38V87.88C61.7133 87.56 62.2333 87.0333 62.94 86.3L63.44 88.34C62.28 89.5 61.06 90.54 59.78 91.46L59.06 89.76C59.3933 89.4667 59.56 89.12 59.56 88.72V81.38H56.8V79.56Z" fill="white"/>
<path d="M77.7 74.84H85.14V76.66H77.7V74.84ZM76.96 80.24H85.86V82.08H81.36C80.64 84.8 80.02 86.8067 79.5 88.1C80.7933 87.82 82.1267 87.4267 83.5 86.92C83.0467 85.9333 82.5867 85.0133 82.12 84.16L83.72 83.38C84.6267 85.0333 85.5067 86.8867 86.36 88.94L84.72 89.78L84.2 88.5C82.0933 89.22 79.8267 89.8 77.4 90.24L76.94 88.44C77.1133 88.4 77.2467 88.3467 77.34 88.28C77.8733 87.5067 78.6 85.44 79.52 82.08H76.96V80.24ZM88.56 73.66H90.46V77.22H94.8C94.8 83.9 94.7067 88.0467 94.52 89.66C94.3067 91.14 93.3067 91.88 91.52 91.88L89.8 91.8L89.36 90.12C90.16 90.1867 90.7867 90.22 91.24 90.22C92.08 90.22 92.5667 89.76 92.7 88.84C92.82 87.8533 92.9 84.5867 92.94 79.04H90.46V79.46C90.42 85.2467 89.0467 89.4933 86.34 92.2L84.84 90.86C87.28 88.5 88.52 84.7 88.56 79.46V79.04H86.24V77.22H88.56V73.66Z" fill="white"/>
<path d="M102.9 83.58V85.88H105.2V83.58H102.9ZM106.84 85.88H109.14V83.58H106.84V85.88ZM109.14 82.02V79.76H106.84V82.02H109.14ZM105.2 79.76H102.9V82.02H105.2V79.76ZM97.06 74.56H114.94V76.4H97.06V74.56ZM112.48 79.62H114.32V92.02H112.48V91.1H99.56V92.02H97.72V79.68H99.56V89.3H112.48V79.62ZM101.08 78.04H110.96V87.6H101.08V78.04Z" fill="white"/>
<path d="M121.12 78.8C120.267 80.64 119.267 82.24 118.12 83.6L116.58 82.5C117.727 81.2333 118.693 79.7333 119.48 78L121.12 78.8ZM124.76 81.92C123.92 80.8533 123.04 79.88 122.12 79L123.28 77.86C124.067 78.5 124.973 79.4333 126 80.66L124.76 81.92ZM119.78 82.84C120.62 83.5067 121.327 84.1067 121.9 84.64C122.34 83.76 122.693 82.8733 122.96 81.98L124.62 82.68C124.247 83.9467 123.82 85.0533 123.34 86C124.113 86.76 124.86 87.5467 125.58 88.36L124.24 89.86C123.56 89.0467 122.92 88.3333 122.32 87.72C121.107 89.5067 119.587 90.9133 117.76 91.94L116.6 90.24C118.333 89.2933 119.78 87.9867 120.94 86.32C119.993 85.4267 119.207 84.72 118.58 84.2L119.78 82.84ZM121.9 73.48C122.193 74.1467 122.467 74.84 122.72 75.56H126.4V77.38H117.02V75.56H120.86C120.607 74.9733 120.293 74.3867 119.92 73.8L121.9 73.48ZM129.18 78.52L128.78 79.72C129.193 81.4667 129.727 83.06 130.38 84.5C131.193 82.7267 131.647 80.7333 131.74 78.52H129.18ZM129.36 86.3C128.693 84.9933 128.147 83.6 127.72 82.12C127.413 82.6933 127.08 83.2267 126.72 83.72L125.52 82.24C126.907 80.0667 127.84 77.16 128.32 73.52L130.2 73.84C130.027 74.88 129.847 75.8267 129.66 76.68H135.04V78.52H133.5C133.353 81.5867 132.667 84.2267 131.44 86.44C132.507 88.1467 133.813 89.4667 135.36 90.4L134.22 92.06C132.727 91.0733 131.44 89.74 130.36 88.06C129.107 89.7 127.513 91.06 125.58 92.14L124.5 90.4C126.567 89.36 128.187 87.9933 129.36 86.3Z" fill="white"/>
<path d="M139.06 74.28H152.88V82.36H146.96V83.84H154.86V85.6H148.48C149.88 87.2133 152.16 88.6733 155.32 89.98L154 91.64C150.68 89.84 148.333 87.8533 146.96 85.68V92.02H145.04V85.66C143.547 88.0733 141.147 90.06 137.84 91.62L136.74 89.86C139.767 88.7533 142.02 87.3333 143.5 85.6H137.14V83.84H145.04V82.36H139.06V74.28ZM150.98 80.72V79.18H146.96V80.72H150.98ZM145.04 80.72V79.18H140.96V80.72H145.04ZM140.96 77.54H145.04V75.96H140.96V77.54ZM146.96 75.96V77.54H150.98V75.96H146.96Z" fill="white"/>
<path d="M163.36 75.08V89.72H161.52V88.8H159.36V90.14H157.48V75.08H163.36ZM159.36 86.96H161.52V76.92H159.36V86.96ZM168.44 76.18H166.48V82.02H168.44V76.18ZM170.2 82.02H172.24V76.18H170.2V82.02ZM174.08 74.42V83.78H166.48V88.56C166.48 89.4533 166.827 89.9 167.52 89.9H172.14C172.553 89.8733 172.84 89.6667 173 89.28C173.107 89 173.213 88.1333 173.32 86.68L175.1 87.26C174.98 88.6067 174.827 89.5933 174.64 90.22C174.36 91.18 173.727 91.68 172.74 91.72H166.74C165.34 91.72 164.64 90.9067 164.64 89.28V74.42H174.08Z" fill="white"/>
<path d="M179.76 75.72H182.26L181.8 85.96H180.22L179.76 75.72ZM181 87.14C181.44 87.14 181.793 87.2733 182.06 87.54C182.34 87.7933 182.48 88.1333 182.48 88.56C182.48 88.9733 182.34 89.32 182.06 89.6C181.753 89.8667 181.4 90 181 90C180.6 90 180.26 89.86 179.98 89.58C179.687 89.3 179.54 88.96 179.54 88.56C179.54 88.1333 179.687 87.7933 179.98 87.54C180.247 87.2733 180.587 87.14 181 87.14Z" fill="white"/>
<path d="M16.84 122.432H20.752C21.592 122.432 22.248 122.632 22.72 123.032C23.176 123.416 23.404 123.936 23.404 124.592C23.404 125.072 23.284 125.48 23.044 125.816C22.796 126.136 22.464 126.372 22.048 126.524C22.616 126.636 23.044 126.864 23.332 127.208C23.62 127.552 23.764 128.016 23.764 128.6C23.764 129.456 23.468 130.088 22.876 130.496C22.372 130.832 21.664 131 20.752 131H16.84V122.432ZM18.148 123.512V126.068H20.404C20.996 126.068 21.428 125.964 21.7 125.756C21.964 125.54 22.096 125.204 22.096 124.748C22.096 124.316 21.964 124.004 21.7 123.812C21.444 123.612 21.02 123.512 20.428 123.512H18.148ZM18.148 127.136V129.92H20.572C21.108 129.92 21.54 129.832 21.868 129.656C22.26 129.424 22.456 129.064 22.456 128.576C22.456 128.072 22.304 127.704 22 127.472C21.704 127.248 21.24 127.136 20.608 127.136H18.148Z" fill="white"/>
<path d="M24.2983 124.796H25.6783L27.3823 129.32L29.0143 124.796H30.4063L27.0343 133.376H25.6783L26.7583 130.856L24.2983 124.796Z" fill="white"/>
<path d="M38.2971 122.264C39.3051 122.264 40.0851 122.476 40.6371 122.9C41.2371 123.34 41.5771 124.028 41.6571 124.964H40.3611C40.2411 124.396 40.0171 123.996 39.6891 123.764C39.3611 123.516 38.8731 123.392 38.2251 123.392C37.6651 123.392 37.2331 123.476 36.9291 123.644C36.5611 123.836 36.3771 124.148 36.3771 124.58C36.3771 124.964 36.5891 125.268 37.0131 125.492C37.2211 125.612 37.7171 125.788 38.5011 126.02C39.6851 126.388 40.4331 126.668 40.7451 126.86C41.4811 127.308 41.8491 127.924 41.8491 128.708C41.8491 129.468 41.5491 130.072 40.9491 130.52C40.3491 130.952 39.5091 131.168 38.4291 131.168C37.3971 131.168 36.5811 130.96 35.9811 130.544C35.2771 130.04 34.8891 129.248 34.8171 128.168H36.1131C36.2091 128.848 36.4491 129.332 36.8331 129.62C37.1851 129.884 37.7171 130.016 38.4291 130.016C39.0611 130.016 39.5771 129.904 39.9771 129.68C40.3611 129.464 40.5531 129.164 40.5531 128.78C40.5531 128.308 40.2811 127.932 39.7371 127.652C39.5371 127.556 38.9691 127.364 38.0331 127.076C36.9611 126.732 36.3051 126.496 36.0651 126.368C35.4091 125.976 35.0811 125.404 35.0811 124.652C35.0811 123.9 35.3971 123.308 36.0291 122.876C36.6291 122.468 37.3851 122.264 38.2971 122.264Z" fill="white"/>
<path d="M44.8306 122.792V124.796H46.2466V125.852H44.8306V129.452C44.8306 129.612 44.8666 129.736 44.9386 129.824C45.0186 129.904 45.1306 129.944 45.2746 129.944H46.0906V131H45.0706C44.5346 131 44.1466 130.86 43.9066 130.58C43.6746 130.324 43.5586 129.948 43.5586 129.452V125.852H42.4066V124.796H43.5586V123.32L44.8306 122.792Z" fill="white"/>
<path d="M49.8988 124.628C50.9228 124.628 51.6948 124.972 52.2148 125.66C52.7028 126.292 52.9508 127.156 52.9588 128.252H48.2548C48.3028 128.868 48.4668 129.332 48.7468 129.644C49.0428 129.964 49.4388 130.124 49.9348 130.124C50.3748 130.124 50.7348 130.02 51.0148 129.812C51.2148 129.66 51.4028 129.392 51.5788 129.008H52.8508C52.6988 129.6 52.4148 130.084 51.9988 130.46C51.4548 130.932 50.7708 131.168 49.9468 131.168C49.0268 131.168 48.3028 130.884 47.7748 130.316C47.1988 129.716 46.9108 128.908 46.9108 127.892C46.9108 126.964 47.1828 126.192 47.7268 125.576C48.2548 124.944 48.9788 124.628 49.8988 124.628ZM49.9348 125.672C49.4548 125.672 49.0748 125.812 48.7948 126.092C48.5228 126.38 48.3508 126.78 48.2788 127.292H51.6268C51.5068 126.212 50.9428 125.672 49.9348 125.672Z" fill="white"/>
<path d="M53.3842 124.796H54.7642L56.3242 129.416L57.8842 124.796H59.2642L56.9602 131H55.6882L53.3842 124.796Z" fill="white"/>
<path d="M62.6722 124.628C63.6962 124.628 64.4682 124.972 64.9882 125.66C65.4762 126.292 65.7242 127.156 65.7322 128.252H61.0282C61.0762 128.868 61.2402 129.332 61.5202 129.644C61.8162 129.964 62.2122 130.124 62.7082 130.124C63.1482 130.124 63.5082 130.02 63.7882 129.812C63.9882 129.66 64.1762 129.392 64.3522 129.008H65.6242C65.4722 129.6 65.1882 130.084 64.7722 130.46C64.2282 130.932 63.5442 131.168 62.7202 131.168C61.8002 131.168 61.0762 130.884 60.5482 130.316C59.9722 129.716 59.6842 128.908 59.6842 127.892C59.6842 126.964 59.9562 126.192 60.5002 125.576C61.0282 124.944 61.7522 124.628 62.6722 124.628ZM62.7082 125.672C62.2282 125.672 61.8482 125.812 61.5682 126.092C61.2962 126.38 61.1242 126.78 61.0522 127.292H64.4002C64.2802 126.212 63.7162 125.672 62.7082 125.672Z" fill="white"/>
<path d="M66.3617 122.432H67.9577L70.0457 125.528L72.1337 122.432H73.7297L70.8257 126.572L73.9337 131H72.3377L70.0457 127.604L67.7537 131H66.1577L69.2417 126.572L66.3617 122.432Z" fill="white"/>
<path d="M74.8361 122.432H76.3841L79.3721 129.296H79.4081L82.3841 122.432H83.9321V131H82.6241V124.88H82.5761L79.9481 131H78.8201L76.1921 124.88H76.1441V131H74.8361V122.432Z" fill="white"/>
<path d="M85.6174 122.432H86.9254V126.044H91.4134V122.432H92.7214V131H91.4134V127.16H86.9254V131H85.6174V122.432Z" fill="white"/>
<defs>
<linearGradient id="paint0_linear_4_229" x1="150" y1="0" x2="150" y2="150" gradientUnits="userSpaceOnUse">
<stop stop-color="#F02A42"/>
<stop offset="1" stop-color="#ED5C6D"/>
</linearGradient>
</defs>
</svg>
