<svg width="50" height="50" viewBox="0 0 128 128" fill="none" xmlns="http://www.w3.org/2000/svg">
    <g>
        <path fill-rule="evenodd" clip-rule="evenodd"
            d="M53.312 42.0081C53.1491 42.0228 51.7025 42.2745 51.5285 42.3094L31.5042 46.2763L31.4967 46.2781C30.9746 46.3865 30.5648 46.5684 30.2485 46.8293C29.8667 47.1435 29.6553 47.5881 29.5748 48.1063C29.5579 48.2165 29.5299 48.4407 29.5299 48.7714C29.5299 48.7714 29.5299 68.8574 29.5299 73.3773C29.5299 73.9524 29.4831 74.5109 29.0863 74.9868C28.6896 75.4627 28.1993 75.606 27.6248 75.7199C27.1887 75.8062 26.7527 75.8926 26.3166 75.979C24.6623 76.306 23.5862 76.5283 22.6112 76.8995C21.6792 77.2541 20.9812 77.7061 20.4254 78.2793C19.3231 79.413 18.8758 80.9508 19.0293 82.3913C19.1603 83.6205 19.7236 84.7964 20.6911 85.6655C21.3442 86.2535 22.1602 86.6999 23.1221 86.8892C24.1196 87.0858 25.1825 87.0178 26.7358 86.7091C27.563 86.5456 28.3378 86.2902 29.0751 85.8621C29.805 85.4395 30.43 84.8754 30.9185 84.1883C31.4088 83.4993 31.725 82.7331 31.8991 81.9191C32.0787 81.0795 32.1218 80.3206 32.1218 79.4828V58.1419C32.1218 56.9991 32.4512 56.6977 33.3906 56.4736C33.3906 56.4736 50.0351 53.1774 50.8117 53.0285C51.8953 52.8246 52.4062 53.1278 52.4062 54.243V68.8114C52.4062 69.3884 52.4006 69.9726 52.0001 70.4504C51.6033 70.9262 51.113 71.0695 50.5385 71.1835C50.1025 71.2698 49.6664 71.3562 49.2304 71.4425C47.576 71.7696 46.5 71.9919 45.525 72.363C44.593 72.7177 43.8949 73.1696 43.3391 73.7429C42.2369 74.8765 41.7503 76.4144 41.9037 77.8549C42.0347 79.0841 42.6373 80.26 43.6049 81.1291C44.258 81.717 45.0739 82.1506 46.0359 82.3417C47.0333 82.5383 48.0963 82.4685 49.6496 82.1617C50.4767 81.9981 51.2515 81.7538 51.9889 81.3257C52.7187 80.9031 53.3438 80.339 53.8322 79.6518C54.3225 78.9628 54.6388 78.1967 54.8128 77.3827C54.9925 76.543 55 75.7842 55 74.9464V43.7462C55.0037 42.6144 54.3955 41.9162 53.312 42.0081Z"
            fill="currentColor" />
        <rect x="67" y="30" width="42" height="6" rx="3" fill="currentColor" />
        <rect x="67" y="72" width="42" height="6" rx="3" fill="currentColor" />
        <rect x="67" y="51" width="42" height="6" rx="3" fill="currentColor" />
        <rect x="67" y="93" width="42" height="6" rx="3" fill="currentColor" />
    </g>
</svg>