<svg width="50" height="50" viewBox="0 0 50 50" fill="none" xmlns="http://www.w3.org/2000/svg">
    <path
        d="M10 22C10 19.1997 10 17.7996 10.545 16.73C11.0243 15.7892 11.7892 15.0243 12.73 14.545C13.7996 14 15.1997 14 18 14H19.8C20.9201 14 21.4802 14 21.908 14.218C22.2843 14.4097 22.5903 14.7157 22.782 15.092C23 15.5198 23 16.0799 23 17.2V27H10V22Z"
        stroke="currentColor" stroke-width="2" stroke-linejoin="round" />
    <path
        d="M10 27H23V40H18C15.1997 40 13.7996 40 12.73 39.455C11.7892 38.9757 11.0243 38.2108 10.545 37.27C10 36.2004 10 34.8003 10 32V27Z"
        stroke="currentColor" stroke-width="2" stroke-linejoin="round" />
    <path
        d="M23 27H32.8C33.9201 27 34.4802 27 34.908 27.218C35.2843 27.4097 35.5903 27.7157 35.782 28.092C36 28.5198 36 29.0799 36 30.2V32C36 34.8003 36 36.2004 35.455 37.27C34.9757 38.2108 34.2108 38.9757 33.27 39.455C32.2004 40 30.8003 40 28 40H23V27Z"
        stroke="currentColor" stroke-width="2" stroke-linejoin="round" />
    <rect x="28" y="9" width="13" height="13" rx="5" stroke="currentColor" stroke-width="2" stroke-linejoin="round" />
</svg>