<svg id="vector" xmlns="http://www.w3.org/2000/svg" width="40" height="34" viewBox="0 0 40 34">
    <path fill="#FFFFFF"
        d="M21.3119,28.0396C21.8317,28.0396 22.3218,27.8614 22.901,27.5198L37.5297,19.0396C38.4356,18.5198 39,17.9703 39,17.0198C39,16.0545 38.4356,15.5198 37.5297,15L22.901,6.5198C22.3218,6.1782 21.8317,6 21.3119,6C20.3762,6 19.4851,6.698 19.4851,8.0644L19.4851,16.6188C19.3515,15.9059 18.8168,15.4455 18.0594,15L3.4158,6.5198C2.8515,6.1782 2.3614,6 1.8267,6C0.8911,6 0,6.698 0,8.0644L0,25.9752C0,27.3416 0.8911,28.0396 1.8267,28.0396C2.3614,28.0396 2.8515,27.8614 3.4158,27.5198L18.0594,19.0396C18.8168,18.5941 19.3515,18.1337 19.4851,17.4208L19.4851,25.9752C19.4851,27.3416 20.3762,28.0396 21.3119,28.0396Z"
        stroke="#00000000" stroke-width="1" fill-rule="nonzero" id="path_0" />
</svg>